<?xml version="1.0" encoding="utf-8"?>
<!-- Generator: Adobe Illustrator 25.2.1, SVG Export Plug-In . SVG Version: 6.00 Build 0)  -->
<svg version="1.1" id="allChange" xmlns="http://www.w3.org/2000/svg" xmlns:xlink="http://www.w3.org/1999/xlink" x="0px" y="0px"
	 viewBox="0 0 50 50" style="enable-background:new 0 0 50 50;" xml:space="preserve">
<style type="text/css">
	.st0{fill:#003E52;}
</style>
<g>
	<g id="change_6_">
		<path class="st0" d="M46.5,0.5l-3.9,44.1L25,49.5L7.4,44.6L3.5,0.5H46.5 M47,0H3l4,45l18,5L43,45L47,0L47,0z"/>
	</g>
	<polygon id="change_5_" class="st0" points="12.2,20.4 12.6,25.9 25,25.9 25,20.4 	"/>
	<polygon id="change_4_" class="st0" points="25,9.2 25,9.2 11.2,9.2 11.7,14.7 25,14.7 	"/>
	<polygon id="change_3_" class="st0" points="25,40.4 25,34.7 25,34.7 18.8,33 18.4,28.6 15.5,28.6 12.9,28.6 13.7,37.3 25,40.5 	
		"/>
	<polygon id="change_2_" class="st0" points="31.1,33 31.8,25.9 25,25.9 25,34.7 	"/>
	<polygon id="change_1_" class="st0" points="32.8,14.7 25,14.7 25,20.4 32.3,20.4 	"/>
	<polygon id="change" class="st0" points="25,3.7 25,9.2 38.8,9.2 37.8,20.4 37.7,21.9 36.4,36.4 36.3,37.3 25,40.4 25,46.2 
		39.6,42.1 43,3.7 	"/>
</g>
</svg>
