<?xml version="1.0" encoding="utf-8"?>
<!-- Generator: Adobe Illustrator 25.2.1, SVG Export Plug-In . SVG Version: 6.00 Build 0)  -->
<svg version="1.1" id="Capa_1" xmlns="http://www.w3.org/2000/svg" xmlns:xlink="http://www.w3.org/1999/xlink" x="0px" y="0px"
	 viewBox="0 0 50 50" style="enable-background:new 0 0 50 50;" xml:space="preserve">
<style type="text/css">
	.st0{fill:#003E52;}
</style>
<g>
	<path class="st0" d="M24.9,50c-1,0.1-1.7-0.3-2.4-0.7c-4.9-2.7-9.7-5.5-14.6-8.2c-1.2-0.7-1-1-0.2-1.8c9.3-9.3,18.6-18.7,27.9-28
		c0.5-0.5,1-1.2,1.9-1c0.9,0.3,0.8,1.1,1,1.8c1.4,8.9,2.9,17.9,4.4,26.8c0.1,0.8,0.2,1.5-0.8,2c-5.1,2.8-10.2,5.7-15.3,8.5
		C26.1,49.7,25.5,50.1,24.9,50z"/>
	<path class="st0" d="M7.9,36.1c5.2-9.3,10.4-18.6,15.6-27.9c0.9-1.6,1.8-1.6,2.6,0c1,1.9,2,3.9,3,5.7c0.4,0.6,0.4,1.1-0.2,1.6
		C22.2,22.3,15.4,29.1,8.6,36C8.5,36.1,8.3,36.3,7.9,36.1z"/>
	<path class="st0" d="M8.2,31.2c0.4-2.8,0.8-5.5,1.2-8.3c1.1-6.9,2.2-13.8,3.2-20.8c0.1-0.8,0-1.9,1.1-2.1c1.2-0.2,1.4,0.9,1.8,1.6
		c1.4,2.5,2.8,5.1,4.1,7.7c0.4,0.7,0.6,1.2,0.1,2c-3.7,6.5-7.3,13-10.9,19.5C8.8,31,8.7,31.2,8.2,31.2z"/>
</g>
</svg>
