<?xml version="1.0" encoding="utf-8"?>
<!-- Generator: Adobe Illustrator 25.2.1, SVG Export Plug-In . SVG Version: 6.00 Build 0)  -->
<svg version="1.1" id="Capa_1" xmlns="http://www.w3.org/2000/svg" xmlns:xlink="http://www.w3.org/1999/xlink" x="0px" y="0px"
	 viewBox="0 0 30 30" style="enable-background:new 0 0 30 30;" xml:space="preserve">
<style type="text/css">
	.st0{fill:#003E52;}
</style>
<path class="st0" d="M9,25.5c-1.1-0.9-2.4-1.8-3.2-3c-1.8-2.1-3.1-4.6-4-7.2c-0.6-1.7-0.8-3.5-1.5-5.1c-0.8-1.2,0.1-2.5,1.4-2.9
	C2.3,7.2,3.3,6.6,2.1,7C1,7.8,0.9,6.3,2,6.2C2.8,6.1,3,5.4,2.8,4.9C2,4.3,4.8,3.7,3.4,2.9C1.9,1.3,5.4,1,4.5,2.9
	C4.3,4.2,7,2.6,6.4,4.2C7,5,8.8,4.4,8.7,5.5c0.9,0.1,1.2,0.8,2.1,0.9c0.9,0.4,2.5,0.7,2.8,1.7c-0.9,0.7-3-1.5-3.1,0.5
	c0.3,2.9,0.2,5.9,1.3,8.6c0.5,1.7,1.7,3,2.8,4.3c1,1.3,2.5,2.2,3.9,2.9c1.3,0.6,2.6,1,4,1.2c0.6-0.4,1.6-2,2.4-1.4
	c0,0.8-1.7,1.6-0.1,1.5c1-0.3,1.6,0.8,2.4-0.2c0.7,0.9,3.1-0.6,2.5,1.2c-0.7,0.5-1.7,0.2-2.4,0.8c-1.2-0.6-2.1,0.5-3.4,0.4
	c-1.4,0.3-2.9,0.4-4.4,0.4c-2.4-0.2-4.8-0.3-7.1-1.1C11.3,26.9,10.1,26.2,9,25.5L9,25.5z M11,26.3c1.3,0.5,2.5,1.1,3.8,1.3
	c2.2,0.3,4.4,0.8,6.6,0.3c-1-0.4-2,0.2-3-0.3c-1.2,0.3-2.4-0.1-3.7-0.2c-1.4-0.6-2.8-1-4.1-1.8c-1.6-0.6,0.8,0.7,1.3,0.9
	c1,0.6-1.1-0.3-1.4-0.5c-0.8-0.5-0.9-0.4-0.1,0.1L11,26.3L11,26.3L11,26.3z M8.6,24.6c1.2,0.5,0-0.9-0.6-0.8
	c-0.2-0.4-0.9-0.7-0.5-0.9c-0.9,0.3-0.9-1.2-1.3-1c-0.9-0.3-0.4-1.3-1.5-2c-0.1-0.7-1.1-1.3-1.4-2.3c-0.1-0.5-1.1-2-0.5-0.6
	c0.5,1.3,1.4,2.5,2.2,3.6c0.6,1.1,1.3,2.2,2.4,2.9C7.7,24,8.1,24.5,8.6,24.6L8.6,24.6z M5.1,20.8C5.2,20.6,5.3,21.2,5.1,20.8z
	 M10.1,25.2C10.3,25.1,9.7,25,10.1,25.2z M10.7,25.4C10.6,25.1,10.4,25.6,10.7,25.4z M11.5,25.8C11.9,25.4,10.9,25.5,11.5,25.8z
	 M12.9,26.6C13.2,26.2,12.2,26.4,12.9,26.6z M10.2,24.7C10.8,24.3,9.5,24.7,10.2,24.7z M10.9,25C10.8,24.8,10.6,25.1,10.9,25z
	 M13.9,26.9c0.5,0.3,2.9,0.7,1.4,0.1C15.1,27.1,12.6,26.3,13.9,26.9z M9,23.1C9,22.9,8.3,22.9,9,23.1z M10.5,23.9
	C10.9,23.7,9.7,23.7,10.5,23.9z M11.7,24.7C12.2,24.5,10.8,24.5,11.7,24.7z M8.5,22.4c0.6,0.4,2.4,0.1,0.9-0.3
	c-0.7-0.4-2.2-0.6-1.1,0.2L8.5,22.4L8.5,22.4z M12.5,24.9C12.8,24.5,11.5,24.7,12.5,24.9z M11.3,23.9c1.4,0.4-1.2-0.9-0.4-0.1
	l0.2,0.1L11.3,23.9L11.3,23.9L11.3,23.9z M13.7,25.4C15.1,25.4,12.5,25.2,13.7,25.4z M7.9,21.7C7.9,21.4,7.6,21.7,7.9,21.7z
	 M16,26.6C16.1,26.2,15.6,27,16,26.6z M10.2,23.1C10.2,22.8,9.8,23.1,10.2,23.1z M8.1,21.5C8.8,21.5,7,21.2,8.1,21.5z M5.5,19.8
	C5.4,19.5,4.6,19.2,5.5,19.8z M12.3,24.1C12.1,24,12.2,24.2,12.3,24.1z M16.5,26.7C16.4,26.5,16.2,26.8,16.5,26.7z M11.9,23.7
	C12,23.4,11.2,23.7,11.9,23.7z M8.7,21.8C9.3,21.7,7.8,21.4,8.7,21.8z M14,25.1C14.9,24.7,13.2,24.9,14,25.1z M11.3,23.2
	c1,0.1-1.2-0.7-0.2-0.1L11.3,23.2z M14.9,25.4c1-0.6,0.6,1.4,1.6,0.2c1-0.7-0.8,0.9,0.4,0.1c0.9-0.6,2.2,0.3,3,0.6
	c0.6,0,1.2,0.5,1.8,0.2c1.2-0.3-2.3-0.5-1.4-1c-1.1,0.3-1.8-0.4-2.4-1c-1.2-0.3-2.6-0.9-3.1-1.9c-0.2-0.4,0.3,0.1-0.2-0.6
	c-0.7-0.6-1.1-1.4-1.5-2.1c-0.6-0.3-0.6-1.2-0.7,0c0-0.7-0.7-1.2-0.9-1c0-0.7,0.7-0.4,0.2-0.9c-0.1-0.7-0.5-1.5-0.6-2.3
	c-0.2-0.4,0-1.3-0.6-0.4c-0.2,1-0.1-1.2,0.3-0.5c0.4-0.7-0.2-0.6-0.2-0.5c0.3-0.6,0.2-1.5-0.1-1.1c0.1-0.6,0.2-2.4-0.2-2.1
	c0.3-0.7,0.5-3.1-0.7-2.2C9.1,8.7,8.3,8.9,7.9,9c1.2,0.7-0.1,0.2-0.6,0.1C7.2,9.8,6.7,9.5,6.1,9.5c1,0.1-0.5,1-1.1,0.7
	c-0.7,0.4,0.6,1.2,0,1.5c0.1,0.4-1.1-0.1-1,0.8c-0.7-0.3-0.1,1.1,0.3,0.6c1.2,0.3,0.9,1.1,0.9,1.8c-0.2,0.4-1-1-0.2-0.9
	c-0.6-1-0.7-0.4-1.2,0.1c-0.1,0,1.4,0.7,0.4,1C5,15.3,5,16,5.2,16.4c0.5,0.5,0.4-0.6,1,0c-0.4-0.5-2-1.5-0.7-1.2c0-0.5-0.2-1,0.2-1
	C6,13.6,5.2,16,6.1,15.1c0.2-0.1,0.3-0.7,0.7,0.1c0.6,0.6,0.2,1.1-0.7,0.5c0.2,0.5,1.2,0.7,1,1.6c0.2,0.7,0.5,0.5,0.7,0.4
	c0.2,0.7,0.3,0.2,0.3-0.2c0.9,0.2,0.7,0.7,1,1.1c0.6,0.3-0.9-1.9,0.2-0.7c1.1,1,0.4,1.4-0.6,1.3c0.6-0.1,0.8,0.9,1.6,0.8
	c0.7,0.3,1.2,1.7,0,1.1c-0.4-0.4-2-0.9-0.7-0.1c1.2,0.5,2.1,0.9,3.2,1.5c0.8,0.6,1.1,1.2,1.5,1.4c-0.7,0.3-2-0.3-1-0.4
	c-0.6-0.1-1.3-0.4-0.7,0.4c0.5,0.4,1.8,0.4,2,0.4c-0.2,0.4-0.5,0.5,0,0.5C14,25.2,14.8,25.2,14.9,25.4L14.9,25.4z M13.6,21.9
	c-0.4-0.4-0.5-1.1-0.1-0.5C13.8,21.5,14.2,22.6,13.6,21.9z M17.7,24.4C17.9,24.4,17.7,24.6,17.7,24.4z M13.1,20.9
	C13,20.3,13.2,21.4,13.1,20.9z M12.7,20.4C12.2,19.5,13.2,20.6,12.7,20.4z M7.8,17C8.1,16.9,7.9,17.5,7.8,17z M11.7,19.1
	C11.8,18.5,11.8,19.6,11.7,19.1z M8.9,17.2C8.7,16.9,9.3,17.5,8.9,17.2z M11.3,18c-0.4-1,0.3-0.5,0.1,0.2L11.3,18z M7.2,15.3
	C7,14.9,6.7,14,6.8,13.7c0.1,0.5,1,2,0.4,0.7C6.6,13.2,8,14.7,8.1,15c0.1,0.3-0.4-0.1-0.1,0.6C7.5,14.8,7.7,16,7.2,15.3L7.2,15.3z
	 M6,14.4C6,13.6,6.2,14.9,6,14.4z M6.5,14.6C6.8,14,7,15.4,6.5,14.6z M5.2,13.6c-0.5-0.5-0.8-0.9,0-0.3c0.3,0-0.7-1,0.1-0.3
	C6.1,13.1,5.7,14.3,5.2,13.6L5.2,13.6z M5.9,13.5C6.1,13.3,6,13.8,5.9,13.5z M6.3,13.7C5.9,12.9,6.8,14,6.3,13.7z M5.4,12.8
	c-1.4-1.2,1.7,0.6,0.2,0.2L5.4,12.8z M9.3,15.1c-0.6-0.4-0.2-2.5,0-1c0.6-0.2,0,0.8,0.4,0.7C9.7,15.4,9.5,15.6,9.3,15.1L9.3,15.1z
	 M10.8,16C10.8,15.3,10.9,16.4,10.8,16z M10.5,15.7C10.6,15.4,10.5,16,10.5,15.7z M5.7,12.4c-0.9-1.2,2.5,1.2,0.6,0.3
	C6.1,12.7,5.8,12.7,5.7,12.4z M8.5,13.9C8.4,12.9,8.7,14.1,8.5,13.9z M10.6,15.3C10.7,14.7,10.6,15.6,10.6,15.3z M5.8,12
	c0.5-0.1,2.2,0.9,0.7,0.3C6.3,12.1,6,12.2,5.8,12z M10.3,14.2c0.1-1,0.3-0.6,0,0.1L10.3,14.2z M6.2,11.6c0.2-0.3-0.6-1.4,0.1-0.4
	c0.3,0.2,0.8,0.4,0.4,0.5C7.5,12.4,6.5,11.9,6.2,11.6L6.2,11.6z M10.1,13.9C10.2,12.7,10.2,14.6,10.1,13.9z M5.8,10.5
	C6,10.5,5.9,10.7,5.8,10.5z M6.8,11.1C7.1,10.6,7.3,11.7,6.8,11.1z M9.6,12.7C9.6,12.5,9.7,13,9.6,12.7z M9.5,12.3
	C9.1,11.4,9.8,12.9,9.5,12.3z M9.2,11.7C9.2,11.3,9.4,12.2,9.2,11.7z M9.6,11.1C9.3,10.6,9.9,9,10,10c-0.3,0.8-0.1,1.2,0.1,0.2
	C10.5,9.3,10.1,11.8,9.6,11.1L9.6,11.1z M10,8.7C10.1,8.5,10,8.8,10,8.7z M9.3,21.9C9.2,21.8,9.4,22,9.3,21.9z M10.7,22.6
	c0.8,0.2,0.8-0.1,0.1-0.2c-0.4-0.3-1.6-0.7-0.5,0C10.4,22.6,10.6,22.5,10.7,22.6L10.7,22.6z M8,20.8c0.4,0.3,1.6,0.9,0.6,0.1
	c0.3-0.4-0.6-0.6-0.3-0.9c-0.8-0.5-0.7-0.5-0.1-0.4c-1-0.4,0.1-0.4,0.1-0.6c-0.4-0.1-1.9-0.7-1,0c-0.9-0.5-0.2,0.2-0.5,0.1
	c-0.9-0.3,0.8,0.7-0.1,0.5c0.5,0.4,1.4,1.1,0.2,0.4C6.7,20.3,7.7,20.6,8,20.8L8,20.8z M9.4,21.6C11.2,22.2,8.6,21,9.4,21.6z
	 M16.9,26.1C16.9,25.8,16.6,26.4,16.9,26.1z M17.6,26.5c0.4-0.4,0,0.6,0.7-0.1c0-0.5,0-0.8-0.8-0.2C17.3,26.3,17.3,26.8,17.6,26.5
	L17.6,26.5z M5.5,18.9C5.4,18.4,4.6,18.4,5.5,18.9z M6.3,19.4C6,18.9,5.2,18.9,6.3,19.4z M11,22.2c0.5,0.4,2.1,0.3,0.5,0.1
	C11.3,21.9,10.1,22,11,22.2z M17.3,26.1C18,25.5,16.7,26.4,17.3,26.1z M18.8,27.1C18.8,26.9,18.5,27.2,18.8,27.1z M18.8,26.9
	C19.6,26,18,26.9,18.8,26.9z M3.5,17.2c-0.7-0.9-0.4-1.4-1-2.1c-0.1-0.6-1.1-1.9-0.5-0.5C2.5,15.4,2.7,16.6,3.5,17.2L3.5,17.2
	L3.5,17.2z M18.5,26.6C20,25.7,18,26.2,18.5,26.6z M19.6,27C20.3,26.4,19.2,26.9,19.6,27z M5.3,17.8C5.5,17.5,4.7,17.8,5.3,17.8z
	 M19.4,26.7c0.7-0.4-0.2-0.4-0.1,0L19.4,26.7z M10.1,20.8C10,20.5,9.7,20.9,10.1,20.8z M10.6,21.2C10.5,20.8,10.4,21.2,10.6,21.2z
	 M20.5,27c0.9-0.6-0.5-0.1-0.2,0.1L20.5,27z M20.2,26.9C20.9,26.3,19.4,27.1,20.2,26.9z M21.9,28C22.4,27.7,21.3,27.9,21.9,28z
	 M5.7,17.6c0.6,0.1,2.6,1.6,1.4,0.1c-0.6-0.2-0.2-1.6-0.8-1.4c0.4,0.7,0.3,1-0.5,0.5c-1.1-0.5-0.6,0.3-0.4,0.5
	C5.1,17.4,5.8,17.6,5.7,17.6L5.7,17.6z M2.8,15.3c0.1-0.5-1.1-2.6-0.6-1.1C2.4,14.5,2.4,15.1,2.8,15.3z M8.2,18.6
	C7.8,18.3,8.2,18.6,8.2,18.6z M9,18.8C9,18.3,8.1,18.6,9,18.8z M16.1,23.3C16,22.9,15.6,23.3,16.1,23.3z M16.4,23.5
	C16.4,23.3,16.3,23.6,16.4,23.5z M19.3,25.3C19.5,25.1,18.9,25.3,19.3,25.3z M4.2,15.7C5,15.4,3.4,15.4,4.2,15.7z M15.5,22.7
	C15.5,22.2,15,22.9,15.5,22.7z M3.9,14.9C4.4,14.8,3.5,14.8,3.9,14.9z M5.4,15.6C5.4,15.5,5.2,15.7,5.4,15.6z M23,26.4
	c0.6-0.1,2.1,0.3,2.3-0.2c-0.8,0-2.7-0.5-2.8,0.1l0.2,0L23,26.4L23,26.4L23,26.4z M5.8,15.8C5.8,15.2,5.4,15.7,5.8,15.8z M2,13.1
	C1.9,12.2,1.4,13,2,13.1z M2.9,13.3C3,13,2.1,13.1,2.9,13.3z M3.5,13.6C3.3,13.5,3.3,13.8,3.5,13.6z M6.7,15.7
	C6.9,15.5,6.4,15.6,6.7,15.7z M3.1,13C3,12.3,2.1,12.9,3.1,13z M1.3,11.8C1.2,11.5,1.1,11.9,1.3,11.8z M1.5,11.6
	C1.5,11.2,1.3,11.7,1.5,11.6z M3.1,12.5c0.6-0.3-1.2-0.5-0.1,0L3.1,12.5z M23.5,25.1C23.9,24.8,23,25,23.5,25.1z M25.9,26.4
	C26.1,25.9,25.5,26.5,25.9,26.4z M3.2,11.7C3.3,11.3,2.7,11.8,3.2,11.7z M1,10.3c-0.1-0.7-0.1-1.8,1-1.4c-1.5,0.3,1,1.9,0.7,0.6
	c0.6,0,1.2-0.4,0.9,0.2c1.2-0.1,2.1-1.2,3.3-1.1C7.9,8.5,8.9,8.4,9.9,8c0.8-0.1,1.6-0.9,1.2-1.5c-1.1-0.1-2.3,0-3.5,0.3
	c-1.4,0.3-2.6,0.8-4,1.1C2.2,8.1,3.8,8.4,3.4,8.5C2.7,8.7,4.2,8.9,3.3,9.2C2.7,9.1,2.1,8.9,2.4,8.3C1.1,8.4-0.1,9,1,10.3L1,10.3
	L1,10.3z M4.2,8.7c0.3-1.1,1.6,0.9,0.5,0.2C4.5,8.7,4.3,8.7,4.2,8.7z M4.2,8.2C4.7,7.8,4.5,8.3,4.2,8.2z M4.8,8.2
	c0-0.5,1.3,0.3,0.2,0.2L4.8,8.2z M5.5,7.9C5.8,7.5,5.6,8.1,5.5,7.9z M5.7,7.7c0.5-0.6,2.6-0.4,1-0.1C6.3,7.3,6,7.9,5.7,7.7z
	 M8.5,7.3C8.5,5.8,9.9,7.8,8.5,7.3z M9.3,7.3C9.6,6.5,10.5,7,9.5,7.1C9.5,7.2,9.5,7.5,9.3,7.3z M2.9,11.3C3.8,10.8,2,10.9,2.9,11.3z
	 M3.5,11.5C3.9,11.2,2.9,11.4,3.5,11.5z M1.6,10.2C2.1,9.8,1.1,10,1.6,10.2z M27.4,26.3C27.4,25.8,27,26.5,27.4,26.3z M24.8,24.5
	C24.9,24,24.4,24.5,24.8,24.5z M28.1,26.5c0.7,0,2.1-0.2,0.6-0.2C28.5,26.3,27.3,26.3,28.1,26.5z M4.1,11.2c0.6,0,0.9-0.6-0.1-0.6
	c-1.5-0.2,1.4,0.5-0.2,0.3C3.6,11.1,4.1,11.2,4.1,11.2L4.1,11.2z M4.6,11.4C4.6,11.1,4.4,11.6,4.6,11.4z M5.2,9.9
	C5.4,9.6,4.9,9.8,5.2,9.9z M3.3,6.7c1-0.3,2.4-0.7,2.9,0.2C5.7,6.3,6,5.8,6.5,6.6c0.6,0.9,1-0.4,0.5-0.7c0.5,0.6,1,0.9,0.3,0
	C8.1,5,5.8,6.1,5.3,6.1C5,6.2,2.7,6.7,3.3,6.7L3.3,6.7L3.3,6.7z M3.9,5.6c0.6-0.4,2,0.3,1.1-0.4C4.9,5.1,3,5.7,3.9,5.6z M6,5.7
	c0.7,0-0.3-0.9,0.5-0.5C6.4,4.8,5.6,4.7,5.2,4.5C5,4.9,5.6,5.7,6,5.7L6,5.7z M4.3,3.8C4.5,3.5,3.9,4,4.3,3.8z M5.1,4
	c1.1-0.1-0.3-0.5-0.2,0L5.1,4z M3.5,2.8C2.8,1.8,5,2.9,4.2,1.9C3.5,1.4,2.9,2.5,3.5,2.8z M13.3,8c0.4-0.6-1.4-0.8-0.2-0.2
	C13.2,7.8,13.2,8.1,13.3,8z"/>
</svg>
