<?xml version="1.0" encoding="utf-8"?>
<!-- Generator: Adobe Illustrator 25.2.1, SVG Export Plug-In . SVG Version: 6.00 Build 0)  -->
<svg version="1.1" id="Capa_1" xmlns="http://www.w3.org/2000/svg" xmlns:xlink="http://www.w3.org/1999/xlink" x="0px" y="0px"
	 viewBox="0 0 50 50" style="enable-background:new 0 0 50 50;" xml:space="preserve">
<style type="text/css">
	.st0{fill:#003E52;}
</style>
<path class="st0" d="M14.9,42.4c-1.9-1.5-3.9-2.9-5.3-5c-2.9-3.6-5.2-7.7-6.7-12c-0.9-2.8-1.3-5.8-2.4-8.6c-1.3-2,0.2-4.1,2.4-4.8
	c1-0.2,2.7-1.1,0.6-0.4c-1.8,1.3-2-1.2-0.1-1.4c1.3-0.2,1.8-1.2,1.3-2.2C3.3,7.2,8,6.2,5.6,4.9C3.1,2.2,9,1.7,7.6,4.8
	C7.2,7.1,11.7,4.3,10.7,7c1.1,1.3,4,0.3,3.9,2.1c1.5,0.1,2.1,1.4,3.5,1.5c1.5,0.7,4.2,1.2,4.7,2.9c-1.5,1.2-4.9-2.4-5.1,0.8
	c0.5,4.8,0.3,9.8,2.1,14.4c0.8,2.8,2.9,5,4.7,7.1c1.7,2.1,4.1,3.6,6.5,4.9c2.1,1,4.4,1.7,6.7,2.1c0.9-0.7,2.6-3.4,4-2.3
	c0.1,1.3-2.9,2.6-0.1,2.5c1.6-0.5,2.7,1.2,4.1-0.3c1.2,1.5,5.1-0.9,4.2,2c-1.2,0.8-2.9,0.3-4.1,1.3c-1.9-1-3.5,0.9-5.7,0.6
	c-2.4,0.4-4.8,0.6-7.3,0.6c-4-0.3-8.1-0.4-11.8-1.8C18.9,44.8,16.8,43.6,14.9,42.4L14.9,42.4z M18.3,43.9c2.1,0.9,4.1,1.9,6.4,2.1
	c3.6,0.5,7.4,1.3,11,0.6c-1.6-0.7-3.3,0.3-5-0.5c-2,0.4-4.1-0.1-6.1-0.4c-2.3-1-4.7-1.7-6.9-3c-2.7-1,1.4,1.2,2.1,1.4
	c1.7,0.9-1.8-0.5-2.3-0.9c-1.4-0.8-1.6-0.6-0.1,0.2L18.3,43.9L18.3,43.9L18.3,43.9z M14.3,41.1c2,0.8,0-1.4-0.9-1.3
	c-0.4-0.7-1.6-1.2-0.8-1.5c-1.5,0.5-1.5-1.9-2.2-1.6c-1.6-0.5-0.6-2.2-2.5-3.3c-0.2-1.1-1.8-2.1-2.4-3.8c-0.2-0.9-1.9-3.4-0.9-1
	c0.9,2.2,2.4,4.1,3.6,6.1c1,1.8,2.1,3.7,3.9,4.9C12.9,40,13.5,40.9,14.3,41.1L14.3,41.1z M8.5,34.7C8.6,34.4,8.9,35.3,8.5,34.7z
	 M16.8,42C17.2,41.8,16.1,41.7,16.8,42z M17.9,42.4C17.7,41.8,17.4,42.7,17.9,42.4z M19.2,42.9C19.9,42.3,18.2,42.5,19.2,42.9z
	 M21.6,44.3C22,43.7,20.3,44,21.6,44.3z M17.1,41.1C18.1,40.4,15.8,41.1,17.1,41.1z M18.1,41.6C18.1,41.3,17.7,41.8,18.1,41.6z
	 M23.2,44.8c0.8,0.5,4.8,1.1,2.3,0.2C25.1,45.1,20.9,43.8,23.2,44.8z M15.1,38.5C15,38.1,13.8,38.1,15.1,38.5z M17.5,39.9
	C18.1,39.4,16.2,39.5,17.5,39.9z M19.5,41.1C20.4,40.8,18,40.8,19.5,41.1z M14.1,37.4c1,0.7,3.9,0.1,1.5-0.4c-1.1-0.6-3.6-1-1.9,0.4
	L14.1,37.4L14.1,37.4z M20.8,41.5C21.3,40.8,19.1,41.1,20.8,41.5z M18.8,39.9c2.4,0.7-2-1.5-0.6-0.3l0.3,0.1L18.8,39.9L18.8,39.9
	L18.8,39.9z M22.9,42.3C25.2,42.3,20.9,42,22.9,42.3z M13.2,36.1C13.1,35.7,12.7,36.1,13.2,36.1z M26.7,44.4
	C26.8,43.6,26,45,26.7,44.4z M17.1,38.4C16.9,38.1,16.4,38.4,17.1,38.4z M13.4,35.8C14.7,35.8,11.7,35.3,13.4,35.8z M9.2,33.1
	C9,32.4,7.7,32,9.2,33.1z M20.4,40.2C20.2,39.9,20.3,40.3,20.4,40.2z M27.4,44.5C27.4,44.1,27.1,44.7,27.4,44.5z M19.8,39.6
	C19.9,39,18.7,39.4,19.8,39.6z M14.6,36.3C15.5,36.2,13,35.6,14.6,36.3z M23.4,41.8C24.9,41.2,22,41.5,23.4,41.8z M18.8,38.6
	c1.7,0.2-2.1-1.2-0.4-0.1L18.8,38.6z M24.8,42.3c1.6-1,1.1,2.3,2.7,0.3c1.6-1.2-1.4,1.5,0.6,0.2c1.5-1,3.6,0.5,5,0.9
	c1,0,1.9,0.8,2.9,0.3c1.9-0.5-3.8-0.8-2.3-1.7c-1.8,0.5-3.1-0.6-3.9-1.7c-2-0.5-4.3-1.5-5.2-3.2c-0.4-0.7,0.6,0.1-0.3-1
	c-1.2-1.1-1.8-2.3-2.6-3.5c-1-0.5-1.1-2-1.2,0c0-1.2-1.2-2.1-1.4-1.7c0-1.2,1.2-0.6,0.4-1.5c-0.2-1.2-0.8-2.5-1-3.9
	c-0.3-0.7,0-2.1-1-0.6c-0.3,1.6-0.1-2,0.4-0.8c0.7-1.2-0.3-1.1-0.3-0.9c0.5-1,0.3-2.5-0.1-1.9c0.2-1.1,0.4-4-0.4-3.5
	c0.5-1.1,0.9-5.2-1.1-3.6c-0.8,0-2.2,0.3-2.8,0.6c2.1,1.1-0.2,0.4-1,0.2c-0.1,1-0.9,0.6-2,0.6c1.7,0.2-0.8,1.7-1.8,1.1
	c-1.2,0.6,1.1,2.1,0,2.5c0.1,0.7-1.9-0.2-1.7,1.3c-1.2-0.5-0.2,1.9,0.4,1.1c2,0.6,1.4,1.8,1.5,3c-0.3,0.7-1.6-1.6-0.3-1.5
	c-1.1-1.7-1.2-0.6-2.1,0.2c-0.2,0.1,2.3,1.1,0.7,1.7c1.4,0.2,1.4,1.4,1.7,2.1c0.8,0.8,0.6-0.9,1.6,0.1c-0.6-0.9-3.3-2.6-1.1-2
	c0-0.9-0.4-1.7,0.3-1.6c0.6-1.2-0.7,2.9,0.8,1.4c0.4-0.2,0.5-1.2,1.2,0.1c1.1,1,0.4,1.8-1.1,0.8c0.3,0.9,2,1.2,1.7,2.6
	c0.3,1.2,0.8,0.8,1.2,0.7c0.3,1.2,0.5,0.3,0.5-0.3c1.5,0.3,1.2,1.2,1.6,1.8c1,0.5-1.5-3.2,0.3-1.1c1.9,1.7,0.7,2.4-1,2.1
	c1.1-0.1,1.4,1.4,2.7,1.4c1.2,0.6,2,2.8-0.1,1.9c-0.7-0.7-3.3-1.5-1.2-0.2c1.9,0.9,3.5,1.4,5.3,2.6c1.3,0.9,1.9,2,2.4,2.3
	c-1.1,0.5-3.4-0.4-1.7-0.7c-1-0.2-2.2-0.7-1.2,0.6c0.9,0.7,3,0.6,3.4,0.7c-0.3,0.7-0.9,0.8,0,0.8C23.4,41.9,24.7,42,24.8,42.3
	L24.8,42.3z M22.7,36.5c-0.6-0.6-0.8-1.9-0.1-0.8C23,35.8,23.7,37.6,22.7,36.5z M29.5,40.7C29.9,40.7,29.5,41,29.5,40.7z M21.8,34.9
	C21.7,33.9,22,35.6,21.8,34.9z M21.1,34C20.3,32.5,22.1,34.4,21.1,34z M13,28.3C13.4,28.2,13.2,29.1,13,28.3z M19.4,31.9
	C19.7,30.8,19.7,32.7,19.4,31.9z M14.9,28.7C14.5,28.1,15.5,29.2,14.9,28.7z M18.8,29.9c-0.7-1.6,0.5-0.9,0.2,0.3L18.8,29.9z
	 M12,25.4c-0.3-0.5-0.9-2.1-0.7-2.6c0.2,0.8,1.7,3.4,0.7,1.1c-1-1.9,1.2,0.6,1.5,1.1c0.1,0.5-0.6-0.1-0.1,1
	C12.5,24.7,12.9,26.7,12,25.4L12,25.4z M9.9,24C10,22.7,10.4,24.8,9.9,24z M10.9,24.3C11.3,23.4,11.6,25.6,10.9,24.3z M8.6,22.6
	c-0.8-0.8-1.3-1.5,0-0.5c0.5,0-1.2-1.6,0.1-0.5C10.1,21.8,9.4,23.8,8.6,22.6L8.6,22.6z M9.8,22.6C10.2,22.1,10,23,9.8,22.6z
	 M10.5,22.8C9.8,21.5,11.3,23.3,10.5,22.8z M9.1,21.4c-2.3-2,2.8,1.1,0.4,0.4L9.1,21.4z M15.5,25.2c-1-0.6-0.3-4.1,0.1-1.7
	c1-0.3-0.1,1.3,0.7,1.2C16.2,25.7,15.8,26,15.5,25.2L15.5,25.2z M17.9,26.6C18,25.5,18.1,27.3,17.9,26.6z M17.5,26.2
	C17.6,25.7,17.5,26.7,17.5,26.2z M9.5,20.7c-1.5-2,4.2,2,0.9,0.5C10.1,21.2,9.7,21.1,9.5,20.7z M14.1,23.2
	C14,21.5,14.4,23.5,14.1,23.2z M17.6,25.4C17.9,24.5,17.7,26.1,17.6,25.4z M9.7,20c0.9-0.2,3.6,1.5,1.1,0.5
	C10.6,20.2,10,20.3,9.7,20z M17.2,23.7c0.1-1.7,0.5-1,0,0.3L17.2,23.7z M10.4,19.4c0.4-0.5-0.9-2.3,0.2-0.7c0.5,0.4,1.4,0.6,0.6,0.8
	C12.4,20.7,10.9,19.8,10.4,19.4L10.4,19.4z M16.8,23.1C17,21.2,17,24.3,16.8,23.1z M9.7,17.6C9.9,17.4,9.8,17.9,9.7,17.6z
	 M11.3,18.6C11.8,17.6,12.1,19.6,11.3,18.6z M16,21.2C16,20.8,16.1,21.7,16,21.2z M15.8,20.6C15.1,19,16.4,21.4,15.8,20.6z
	 M15.4,19.5C15.3,18.8,15.7,20.3,15.4,19.5z M16,18.4c-0.5-0.8,0.6-3.5,0.7-1.8c-0.5,1.3-0.1,2,0.2,0.3C17.5,15.5,16.8,19.6,16,18.4
	L16,18.4z M16.7,14.4C16.9,14.2,16.7,14.7,16.7,14.4z M15.6,36.6C15.3,36.3,15.6,36.7,15.6,36.6z M17.9,37.7
	c1.3,0.3,1.3-0.2,0.1-0.4c-0.6-0.6-2.6-1.2-0.8-0.1C17.3,37.6,17.6,37.6,17.9,37.7L17.9,37.7z M13.3,34.7c0.7,0.5,2.7,1.5,1,0.2
	c0.6-0.7-1.1-1-0.5-1.4c-1.4-0.8-1.1-0.8-0.1-0.7C12,32,13.9,32,13.8,31.7c-0.6-0.1-3.2-1.1-1.7,0.1c-1.5-0.8-0.4,0.3-0.8,0.2
	c-1.6-0.4,1.4,1.2-0.2,0.8c0.9,0.7,2.4,1.8,0.4,0.7C11.2,33.8,12.9,34.4,13.3,34.7L13.3,34.7z M15.7,36.1
	C18.7,37,14.3,34.9,15.7,36.1z M28.1,43.6C28.1,43,27.7,44.1,28.1,43.6z M29.4,44.1c0.7-0.7,0,1,1.1-0.2c0-0.9,0-1.4-1.3-0.3
	C28.9,43.8,28.8,44.6,29.4,44.1L29.4,44.1z M9.2,31.4C9,30.6,7.7,30.6,9.2,31.4z M10.5,32.3C10,31.5,8.7,31.6,10.5,32.3z M18.3,37
	c0.8,0.7,3.5,0.5,0.9,0.1C18.8,36.5,16.8,36.6,18.3,37z M28.9,43.5C30.1,42.6,27.8,44,28.9,43.5z M31.3,45.2
	C31.3,44.9,30.8,45.3,31.3,45.2z M31.3,44.8C32.6,43.4,30.1,44.8,31.3,44.8z M5.8,28.6c-1.1-1.6-0.7-2.3-1.7-3.5
	c-0.2-1-1.8-3.2-0.8-0.8C4.2,25.6,4.4,27.7,5.8,28.6L5.8,28.6L5.8,28.6z M30.9,44.3C33.3,42.8,29.9,43.7,30.9,44.3z M32.7,45
	C33.9,44,32,44.8,32.7,45z M8.8,29.7C9.1,29.2,7.9,29.6,8.8,29.7z M32.3,44.6c1.1-0.7-0.3-0.6-0.2,0.1L32.3,44.6z M16.8,34.7
	C16.7,34.2,16.2,34.8,16.8,34.7z M17.7,35.3C17.4,34.7,17.3,35.4,17.7,35.3z M34.2,45.1c1.5-1.1-0.9-0.2-0.3,0.2L34.2,45.1z
	 M33.6,44.8C34.8,43.8,32.4,45.2,33.6,44.8z M36.5,46.7C37.3,46.2,35.5,46.5,36.5,46.7z M9.5,29.3c1.1,0.2,4.3,2.7,2.4,0.2
	c-1-0.3-0.4-2.7-1.4-2.3c0.7,1.1,0.5,1.6-0.9,0.9c-1.8-0.9-1,0.4-0.6,0.8C8.6,29,9.7,29.3,9.5,29.3L9.5,29.3z M4.6,25.5
	c0.2-0.8-1.8-4.4-0.9-1.8C4,24.2,4,25.2,4.6,25.5z M13.6,31C13.1,30.5,13.6,30.9,13.6,31z M15,31.3C15,30.5,13.5,31,15,31.3z
	 M26.8,38.8C26.6,38.2,25.9,38.8,26.8,38.8z M27.4,39.2C27.3,38.9,27.1,39.3,27.4,39.2z M32.1,42.2C32.5,41.8,31.5,42.1,32.1,42.2z
	 M7.1,26.1C8.4,25.6,5.7,25.7,7.1,26.1z M25.8,37.9C25.8,37,25,38.1,25.8,37.9z M6.6,24.9C7.4,24.6,5.8,24.7,6.6,24.9z M9,26.1
	C8.9,25.8,8.7,26.2,9,26.1z M38.3,44.1c1.1-0.2,3.5,0.5,3.9-0.3c-1.3,0-4.5-0.9-4.6,0.2l0.3,0L38.3,44.1L38.3,44.1L38.3,44.1z
	 M9.7,26.3C9.7,25.4,9.1,26.2,9.7,26.3z M3.4,21.9C3.1,20.3,2.3,21.6,3.4,21.9z M4.9,22.2C4.9,21.7,3.5,21.8,4.9,22.2z M5.8,22.7
	C5.5,22.5,5.6,22.9,5.8,22.7z M11.2,26.1C11.4,25.9,10.6,26,11.2,26.1z M5.2,21.7C5,20.5,3.4,21.5,5.2,21.7z M2.1,19.7
	C2.1,19.1,1.8,19.9,2.1,19.7z M2.6,19.4C2.5,18.7,2.2,19.4,2.6,19.4z M5.1,20.9c1.1-0.4-2-0.9-0.2-0.1L5.1,20.9z M39.1,41.9
	C39.8,41.3,38.3,41.7,39.1,41.9z M43.2,44C43.5,43.2,42.5,44.1,43.2,44z M5.4,19.5C5.5,18.8,4.5,19.7,5.4,19.5z M1.7,17.1
	c-0.2-1.1-0.2-3.1,1.7-2.4c-2.5,0.5,1.7,3.1,1.2,1c1,0.1,2-0.6,1.5,0.4c2.1-0.2,3.5-2,5.5-1.8c1.6-0.2,3.2-0.4,4.9-1
	c1.4-0.1,2.7-1.6,1.9-2.4c-1.9-0.2-3.8,0.1-5.9,0.5c-2.3,0.5-4.4,1.4-6.7,1.8c-2.3,0.3,0.5,0.8-0.2,1c-1.2,0.4,1.4,0.7-0.2,1.1
	c-1-0.2-2-0.5-1.5-1.5c-2.2,0.3-4.1,1.2-2.4,3.4L1.7,17.1L1.7,17.1z M6.9,14.5c0.5-1.9,2.7,1.5,0.8,0.2C7.5,14.6,7.2,14.4,6.9,14.5z
	 M7,13.6C7.8,13,7.4,13.9,7,13.6z M8,13.6c0.1-0.9,2.1,0.5,0.3,0.3L8,13.6z M9.2,13.1C9.7,12.5,9.4,13.6,9.2,13.1z M9.6,12.9
	c0.8-0.9,4.4-0.6,1.7-0.1C10.6,12.2,10,13.1,9.6,12.9z M14.2,12.1C14.1,9.6,16.6,13,14.2,12.1z M15.6,12.1c0.5-1.3,1.9-0.5,0.2-0.3
	C15.8,12,15.8,12.5,15.6,12.1z M4.8,18.9C6.3,18,3.3,18.1,4.8,18.9z M5.9,19.2C6.4,18.7,4.8,19,5.9,19.2z M2.7,16.9
	C3.6,16.3,1.8,16.7,2.7,16.9z M45.7,43.8C45.7,43.1,45,44.1,45.7,43.8z M41.3,40.8C41.4,40,40.7,40.9,41.3,40.8z M46.9,44.1
	c1.2,0,3.5-0.4,1-0.4C47.5,43.8,45.6,43.8,46.9,44.1z M6.9,18.7c0.9-0.1,1.5-1-0.2-1c-2.6-0.3,2.3,0.9-0.3,0.6
	C6,18.5,6.9,18.7,6.9,18.7L6.9,18.7z M7.7,19.1C7.6,18.5,7.4,19.4,7.7,19.1z M8.7,16.5C9.1,16,8.1,16.3,8.7,16.5z M5.5,11.2
	c1.7-0.6,4-1.2,4.8,0.3c-0.8-1-0.3-1.9,0.4-0.5c1.1,1.4,1.6-0.7,0.9-1.1c0.8,1,1.7,1.5,0.5,0.1c1.3-1.5-2.5,0.2-3.4,0.2
	C8.4,10.3,4.5,11.1,5.5,11.2L5.5,11.2L5.5,11.2z M6.5,9.4c1-0.7,3.3,0.4,1.8-0.7C8.2,8.5,5,9.5,6.5,9.4z M10,9.5
	c1.1,0-0.5-1.5,0.9-0.8C10.7,8,9.3,7.8,8.7,7.6C8.3,8.2,9.4,9.5,10,9.5L10,9.5z M7.1,6.3C7.5,5.8,6.5,6.6,7.1,6.3z M8.6,6.7
	c1.8-0.2-0.5-0.8-0.4,0L8.6,6.7z M5.9,4.6C4.6,2.9,8.3,4.9,7,3.1C5.9,2.3,4.9,4.1,5.9,4.6z M22.2,13.4c0.6-1-2.4-1.4-0.4-0.4
	C22,13.1,22,13.4,22.2,13.4z"/>
</svg>
