<?xml version="1.0" encoding="utf-8"?>
<!-- Generator: Adobe Illustrator 25.2.1, SVG Export Plug-In . SVG Version: 6.00 Build 0)  -->
<svg version="1.1" id="Capa_1" xmlns="http://www.w3.org/2000/svg" xmlns:xlink="http://www.w3.org/1999/xlink" x="0px" y="0px"
	 viewBox="0 0 50 50" style="enable-background:new 0 0 50 50;" xml:space="preserve">
<style type="text/css">
	.st0{fill:#003E52;}
</style>
<g>
	<g>
		<path class="st0" d="M46.5,0.5l-3.9,44.1c-2.9,0.8-5.9,1.6-8.7,2.4c-2.9,0.8-5.9,1.6-8.9,2.5c-4.2-1.2-8.4-2.3-12.5-3.5
			c-1.7-0.5-3.3-0.9-5-1.4l-2-22.2l-2-22H46.5 M47,0H3c1.3,15,2.7,30,4,45c6,1.7,12,3.3,18,5c6-1.7,12-3.3,18.1-5L47,0L47,0z"/>
	</g>
	<path class="st0" d="M11.1,9.2H25v5.5h-7.8l0.5,5.7H25v5.5H12.7 M12.9,28.6h5.5l0.4,4.4l6.2,1.7v5.8l-11.3-3.2"/>
	<g>
		<polygon class="st0" points="25,3.7 25,9.2 38.8,9.2 38.3,14.7 25,14.7 25,20.4 37.8,20.4 36.3,37.3 25,40.4 25,46.2 39.6,42.1 
			43,3.7 		"/>
		<polygon class="st0" points="31.8,25.9 25,25.9 25,34.7 31.1,33.1 		"/>
	</g>
</g>
</svg>
