<?xml version="1.0" encoding="utf-8"?>
<!-- Generator: Adobe Illustrator 25.2.1, SVG Export Plug-In . SVG Version: 6.00 Build 0)  -->
<svg version="1.1" id="Capa_1" xmlns="http://www.w3.org/2000/svg" xmlns:xlink="http://www.w3.org/1999/xlink" x="0px" y="0px"
	 viewBox="0 0 30 30" style="enable-background:new 0 0 30 30;" xml:space="preserve">
<style type="text/css">
	.st0{fill:#003E52;}
</style>
<g>
	<g>
		<path class="st0" d="M27.9,0.3l-2.4,26.5c-1.7,0.5-3.5,1-5.2,1.4c-1.8,0.5-3.6,1-5.3,1.5c-2.5-0.7-5.1-1.4-7.5-2.1
			c-1-0.3-2-0.6-3-0.8L3.3,13.5L2.1,0.3H27.9 M28.2,0H1.8c0.8,9,1.6,18,2.4,27c3.6,1,7.2,2,10.8,3c3.6-1,7.2-2,10.8-3L28.2,0L28.2,0
			z"/>
	</g>
	<path class="st0" d="M6.7,5.5H15v3.3h-4.7l0.3,3.4H15v3.3H7.6 M7.7,17.2h3.3l0.2,2.6l3.7,1v3.5l-6.8-1.9"/>
	<g>
		<polygon class="st0" points="15,2.2 15,5.5 23.3,5.5 23,8.8 15,8.8 15,12.2 22.7,12.2 21.8,22.4 15,24.3 15,27.7 23.7,25.3 
			25.8,2.2 		"/>
		<polygon class="st0" points="19.1,15.5 15,15.5 15,20.8 18.7,19.8 		"/>
	</g>
</g>
</svg>
