<?xml version="1.0" encoding="utf-8"?>
<!-- Generator: Adobe Illustrator 25.2.1, SVG Export Plug-In . SVG Version: 6.00 Build 0)  -->
<svg version="1.1" id="Capa_1" xmlns="http://www.w3.org/2000/svg" xmlns:xlink="http://www.w3.org/1999/xlink" x="0px" y="0px"
	 viewBox="0 0 50 50" style="enable-background:new 0 0 50 50;" xml:space="preserve">
<style type="text/css">
	.st0{fill-rule:evenodd;clip-rule:evenodd;fill:#003E52;}
</style>
<g>
	<path class="st0" d="M18.4,38.6c0,0-1.9,1.1,1.4,1.5c4,0.5,6,0.4,10.3-0.4c0,0,1.1,0.7,2.7,1.3C23.1,45.2,10.8,40.8,18.4,38.6z
		 M17.2,33.1c0,0-2.1,1.6,1.1,1.9c4.2,0.4,7.6,0.5,13.3-0.6c0,0,0.8,0.8,2.1,1.3C21.9,39.1,8.8,36,17.2,33.1z"/>
	<path class="st0" d="M27.3,23.9c2.4,2.8-0.6,5.3-0.6,5.3S32.8,26,30,22c-2.6-3.7-4.6-5.5,6.3-11.8C36.2,10.2,19.1,14.5,27.3,23.9z"
		/>
	<path class="st0" d="M40.2,42.7c0,0,1.4,1.2-1.6,2.1c-5.6,1.7-23.5,2.2-28.4,0.1c-1.8-0.8,1.6-1.8,2.6-2.1c1.1-0.2,1.7-0.2,1.7-0.2
		c-2-1.4-12.8,2.7-5.5,3.9C29,49.7,45.4,45,40.2,42.7L40.2,42.7z M19.3,27.5c0,0-9.1,2.2-3.2,2.9c2.5,0.3,7.4,0.3,12-0.1
		c3.8-0.3,7.5-1,7.5-1s-1.3,0.6-2.3,1.2c-9.2,2.4-27,1.3-21.9-1.2C15.8,27.3,19.3,27.5,19.3,27.5L19.3,27.5z M35.6,36.6
		c9.4-4.9,5-9.5,2-8.9c-0.7,0.2-1.1,0.3-1.1,0.3s0.3-0.4,0.8-0.6c6-2.1,10.6,6.2-1.9,9.5C35.4,36.8,35.6,36.7,35.6,36.6z"/>
	<path class="st0" d="M30,0c0,0,5.2,5.2-4.9,13.2c-8.1,6.4-1.8,10,0,14.2c-4.7-4.3-8.2-8-5.9-11.5C22.6,10.7,32.1,8.3,30,0L30,0z"/>
	<path class="st0" d="M20.3,49.8c9,0.6,22.8-0.3,23.1-4.6c0,0-0.6,1.6-7.4,2.9c-7.7,1.4-17.1,1.3-22.7,0.3
		C13.2,48.4,14.4,49.4,20.3,49.8z"/>
</g>
</svg>
