<?xml version="1.0" encoding="utf-8"?>
<!-- Generator: Adobe Illustrator 25.2.1, SVG Export Plug-In . SVG Version: 6.00 Build 0)  -->
<svg version="1.1" id="Capa_1" xmlns="http://www.w3.org/2000/svg" xmlns:xlink="http://www.w3.org/1999/xlink" x="0px" y="0px"
	 viewBox="0 0 30 30" style="enable-background:new 0 0 30 30;" xml:space="preserve">
<style type="text/css">
	.st0{fill-rule:evenodd;clip-rule:evenodd;fill:#003E52;}
</style>
<g>
	<path class="st0" d="M11,23.2c0,0-1.1,0.7,0.8,0.9c2.4,0.3,3.6,0.2,6.2-0.3c0,0,0.7,0.4,1.7,0.8C13.8,27.1,6.4,24.5,11,23.2z
		 M10.3,19.9c0,0-1.3,1,0.7,1.2c2.5,0.3,4.5,0.3,8-0.4c0,0,0.5,0.5,1.2,0.8C13.1,23.5,5.2,21.6,10.3,19.9z"/>
	<path class="st0" d="M16.4,14.3c1.4,1.7-0.4,3.2-0.4,3.2s3.7-1.9,2-4.3c-1.6-2.2-2.8-3.3,3.8-7.1C21.7,6.1,11.5,8.7,16.4,14.3z"/>
	<path class="st0" d="M24.1,25.6c0,0,0.8,0.7-0.9,1.2c-3.4,1-14.1,1.3-17.1,0c-1.1-0.5,0.9-1.1,1.6-1.2c0.7-0.1,1-0.1,1-0.1
		c-1.2-0.8-7.7,1.6-3.3,2.4C17.4,29.8,27.2,27,24.1,25.6L24.1,25.6z M11.6,16.5c0,0-5.5,1.3-1.9,1.8c1.5,0.2,4.5,0.2,7.2-0.1
		c2.3-0.2,4.5-0.6,4.5-0.6s-0.8,0.3-1.4,0.7c-5.5,1.5-16.2,0.8-13.2-0.7C9.5,16.3,11.6,16.5,11.6,16.5L11.6,16.5z M21.4,22
		c5.6-2.9,3-5.7,1.2-5.4c-0.4,0.1-0.6,0.2-0.6,0.2s0.2-0.3,0.5-0.4c3.6-1.3,6.4,3.7-1.2,5.7C21.3,22.1,21.3,22,21.4,22z"/>
	<path class="st0" d="M18,0c0,0,3.1,3.1-3,7.9c-4.9,3.8-1.1,6,0,8.5c-2.8-2.6-4.9-4.8-3.5-6.9C13.5,6.4,19.2,4.9,18,0L18,0z"/>
	<path class="st0" d="M12.1,29.9c5.4,0.3,13.7-0.2,13.9-2.7c0,0-0.4,1-4.5,1.7c-4.6,0.9-10.3,0.8-13.7,0.2
		C7.9,29.1,8.6,29.6,12.1,29.9z"/>
</g>
</svg>
