<?xml version="1.0" encoding="utf-8"?>
<!-- Generator: Adobe Illustrator 25.2.1, SVG Export Plug-In . SVG Version: 6.00 Build 0)  -->
<svg version="1.1" id="Capa_1" xmlns="http://www.w3.org/2000/svg" xmlns:xlink="http://www.w3.org/1999/xlink" x="0px" y="0px"
	 viewBox="0 0 30 30" style="enable-background:new 0 0 30 30;" xml:space="preserve">
<style type="text/css">
	.st0{fill:#003E52;}
</style>
<path class="st0" d="M0,0v30h30V0H0z M16.3,23.4c0,2.9-1.7,4.2-4.2,4.2c-2.3,0-3.6-1.2-4.2-2.6l2.3-1.4c0.4,0.8,0.8,1.5,1.8,1.5
	c0.9,0,1.5-0.4,1.5-1.8v-9.6h2.8L16.3,23.4L16.3,23.4z M23,27.6c-2.6,0-4.3-1.2-5.1-2.9l2.3-1.3c0.6,1,1.4,1.7,2.8,1.7
	c1.2,0,1.9-0.6,1.9-1.4c0-1-0.8-1.3-2.1-1.9l-0.7-0.3c-2-0.9-3.4-2-3.4-4.2c0-2.1,1.6-3.7,4.1-3.7c1.8,0,3.1,0.6,4,2.3l-2.2,1.4
	c-0.5-0.9-1-1.2-1.8-1.2c-0.8,0-1.3,0.5-1.3,1.2c0,0.8,0.5,1.2,1.7,1.7l0.7,0.3c2.4,1,3.7,2.1,3.7,4.4C27.7,26.3,25.7,27.6,23,27.6z
	"/>
</svg>
