<?xml version="1.0" encoding="utf-8"?>
<!-- Generator: Adobe Illustrator 25.2.1, SVG Export Plug-In . SVG Version: 6.00 Build 0)  -->
<svg version="1.1" id="Capa_1" xmlns="http://www.w3.org/2000/svg" xmlns:xlink="http://www.w3.org/1999/xlink" x="0px" y="0px"
	 viewBox="0 0 50 50" style="enable-background:new 0 0 50 50;" xml:space="preserve">
<style type="text/css">
	.st0{fill:#003E52;}
</style>
<g>
	<path class="st0" d="M23.3,10.4c-2-3.1-2.5-7.2-2.6-8.8c-5.2,1.1-10.3,3.1-10,4.6c0,0.2,0.3,0.4,0.7,0.6l-0.6,1.1
		C10,7.4,9.5,7,9.4,6.4C9.1,4.7,11,3.2,15.2,1.7c2.9-1,5.8-1.6,5.9-1.6L21.9,0v0.8c0,0.1,0,5.4,2.4,8.9L23.3,10.4z"/>
	<path class="st0" d="M25.4,50H25c-10.2,0-21.6-3.2-23-8.6c-0.8-3.3,1.9-6.9,7.8-10.5l0.6,1.1c-5.3,3.2-7.9,6.5-7.2,9.1
		c1.2,4.7,12,7.6,21.4,7.6c1.1-1.7,7.2-11.6,3.7-24.8l1.2-0.3c3.9,15.1-4,26-4.1,26.1L25.4,50z"/>
	<path class="st0" d="M6.8,45.4c-0.7,0-1-0.1-1.1-0.1c-0.2-0.1-0.4-0.2-0.5-0.4c-0.1-0.2,0-0.5,0.2-0.6c0.1-0.1,9-9,10.2-16.2
		l1.2,0.2c-1,6.2-7.1,13.3-9.6,15.9c2.4-0.1,8.5-1.3,20.3-7.8c-9.2-1-10.6-8.3-10.6-8.4l1.2-0.2c0.1,0.3,1.5,7.5,11.6,7.5
		c0,0,0,0,0,0l0,0c0.3,0,0.5,0.2,0.6,0.5c0.1,0.3,0,0.6-0.3,0.7C16.1,44.4,9.3,45.4,6.8,45.4z"/>
	<path class="st0" d="M12.6,48.4c-0.3,0-0.5-0.2-0.6-0.4c-0.1-0.3,0-0.6,0.2-0.7c0,0,2.3-1.7,4.6-5.3c-0.9-0.4-1.8-0.9-2.7-1.4
		c-1.1-0.7-1.9-1.4-2.6-2.1c-3.2,0.8-6.2,1.2-8.8,1l0.1-1.2c2.3,0.2,5-0.1,7.9-0.8c-2-3.4-0.2-6.7-0.1-6.7l1.1,0.6
		c-0.1,0.2-1.6,3,0.3,5.8c2.8-0.8,5.7-2,8.7-3.5c0.7-2.3,1.2-4.9,1.5-7.8c0-0.2,0.1-0.4,0.3-0.5c0.2-0.1,0.4-0.1,0.6,0
		c0,0,4.1,1.9,7,3.1c0.2,0.1,0.4,0.3,0.4,0.5c0,0.2-0.1,0.5-0.3,0.6c-2.9,2-5.7,3.6-8.5,5.1c-0.9,2.8-2,5.1-3.1,7
		c4.6,1.7,8.6,1.8,8.7,1.8c0.3,0,0.5,0.2,0.6,0.5c0.1,0.3-0.1,0.6-0.3,0.7C22,47.5,13,48.3,12.6,48.4C12.6,48.4,12.6,48.4,12.6,48.4
		z M18.1,42.5c-1.3,2-2.6,3.5-3.5,4.4c2.5-0.4,6.9-1.2,10.5-2.7C23.3,44,20.8,43.5,18.1,42.5z M12.9,38c0.5,0.5,1.1,1,1.9,1.4
		c0.9,0.6,1.9,1,2.8,1.4c0.9-1.6,1.9-3.5,2.7-5.7C17.7,36.4,15.2,37.3,12.9,38z M23.4,26.7c-0.3,2.2-0.7,4.2-1.1,6.1
		c2.1-1.1,4.2-2.4,6.3-3.8C26.7,28.1,24.5,27.2,23.4,26.7z"/>
	<path class="st0" d="M16.8,9.5c-0.1,0-0.3-0.1-0.4-0.1c-2-1.7-4.4-5.2-4.5-5.4c-0.2-0.2-0.1-0.6,0.1-0.8C12.2,3,12.5,3,12.8,3.1
		c0,0,1.2,0.5,9,1.8c0.2,0,0.4,0.2,0.5,0.4c0.1,0.2,0,0.5-0.1,0.6c-2.2,2.4-5,3.5-5.1,3.6C17,9.5,16.9,9.5,16.8,9.5z M14,4.7
		c0.8,1.1,1.9,2.5,3,3.5c0.6-0.3,2.1-1,3.4-2.2C17.1,5.4,15.2,5,14,4.7z"/>
	<path class="st0" d="M21.7,26.8c-0.1,0-0.2,0-0.3-0.1c-0.2-0.1-0.4-0.4-0.4-0.6c0.4-3.4-4.9-4.8-5-4.8c-0.2-0.1-0.4-0.2-0.4-0.4
		s0-0.4,0.2-0.6c0.3-0.3,6.4-6.4,14.2-9.7c0.2-0.1,0.5-0.1,0.6,0.1c0.2,0.1,0.3,0.4,0.2,0.6c-1.5,7.2-8.4,15.1-8.7,15.4
		C22.1,26.7,21.9,26.8,21.7,26.8z M17.5,20.4c1.5,0.6,4.1,1.8,4.7,4.2c1.8-2.3,5.7-7.5,7.1-12.4C23.9,14.8,19.2,18.8,17.5,20.4z"/>
	<path class="st0" d="M10.8,31.7l-0.6-1.1c2.4-1.3,5-3.6,7.3-6.3c-1.9,1.3-3,2.2-3,2.2l-0.8-1c0,0,2.2-1.8,5.8-4
		c1-1.6,1.7-3.2,2.1-4.8c0.1-0.3,0.1-0.5,0.2-0.8c-2.4-0.9-4.6-1.4-6.1-1.6c-0.2,0-0.4-0.2-0.5-0.4c-0.1-0.2,0-0.5,0.1-0.6
		c0.1-0.1,2.6-2.8,5.8-4.3c0.2-0.1,0.5-0.1,0.7,0.1c0.1,0.1,1.8,2,1.4,6c1.4,0.6,2.9,1.2,4.4,2.1c3.4-1.6,7.4-2.9,11.5-3.8
		c0.2,0,0.5,0,0.6,0.2c0.1,0.2,0.2,0.4,0.1,0.6c-1.6,4.2-6,8.6-6.2,8.8c-0.1,0.1-0.3,0.2-0.5,0.2c-0.2,0-0.3-0.1-0.5-0.2
		c-1.4-1.8-3.2-3.2-5.2-4.4c-2.7,1.3-5.1,2.6-7.1,3.8C17.8,26.4,14,30,10.8,31.7z M28.8,18c1.6,1,3.1,2.3,4.4,3.7
		c1-1.1,3.5-4,4.9-6.8C34.7,15.7,31.6,16.8,28.8,18z M22.9,16.4c0,0.2-0.1,0.4-0.1,0.6c-0.3,1-0.7,2.1-1.2,3.2
		c1.4-0.8,2.9-1.6,4.5-2.4C25,17.3,24,16.8,22.9,16.4z M17,13.4c1.4,0.3,3.1,0.7,4.9,1.4c0.2-2.3-0.4-3.7-0.8-4.3
		C19.4,11.3,17.9,12.5,17,13.4z"/>
	<path class="st0" d="M17,19.4c0,5.5-4.6,9.8-7.8,13C8.6,32.9,6.7,33,6.7,33c0.5-0.5,1-1,1.6-1.5c3.1-3,7.5-7.2,7.5-12.1
		c0-5.9-2.4-8.2-4.2-10C10.7,8.5,10,7.7,9.6,6.8l0.4-0.2c0.4,0.2,0.9,0.4,1.3,0.6c0.3,0.4,0.7,0.9,1.2,1.3C14.3,10.4,17,13,17,19.4z
		"/>
	<path class="st0" d="M48.1,21c0,0-0.8,0.1-1,0.1c-10.9,1.2-22.2,4.4-28.7,6.9c-2.3,0.9-4.8,2.1-7,3.3c0,0,0,0,0,0
		c-1.3,0.8-4.5,2.3-7,3.7c3.7-4,10.8-7.1,13.6-8.2c6.3-2.5,17.2-5.6,27.9-6.9c-1.3-1.5-4.3-4.6-10.4-6.9c-3.5-1.4-8.9-2.2-13.7-2.8
		C14.2,9.2,9.8,8.4,9.4,6.4C9.3,6,9.4,5.6,9.6,5.2c0.4,0.7,1,1.1,1.4,1.4c0.2,0.1,0.3,0.2,0.4,0.2l0,0c1.8,0.9,6.6,1.6,10.5,2.2
		c4.8,0.7,10.3,1.5,14,2.9c8.6,3.3,11.5,8,11.7,8.2C47.7,20.4,48.1,21,48.1,21z"/>
</g>
</svg>
