<?xml version="1.0" encoding="utf-8"?>
<!-- Generator: Adobe Illustrator 25.2.1, SVG Export Plug-In . SVG Version: 6.00 Build 0)  -->
<svg version="1.1" id="Capa_1" xmlns="http://www.w3.org/2000/svg" xmlns:xlink="http://www.w3.org/1999/xlink" x="0px" y="0px"
	 viewBox="0 0 30 30" style="enable-background:new 0 0 30 30;" xml:space="preserve">
<style type="text/css">
	.st0{fill:#003E52;}
</style>
<g>
	<path class="st0" d="M14,6.2c-1.2-1.8-1.5-4.3-1.5-5.3c-3.1,0.7-6.2,1.9-6,2.8c0,0.1,0.2,0.2,0.4,0.4L6.4,4.7
		C6,4.5,5.7,4.2,5.7,3.8C5.5,2.8,6.6,1.9,9.1,1c1.7-0.6,3.5-0.9,3.6-1L13.2,0v0.5c0,0,0,3.2,1.4,5.3L14,6.2z"/>
	<path class="st0" d="M15.2,30H15c-6.1,0-13-1.9-13.8-5.2c-0.5-2,1.1-4.2,4.7-6.3l0.4,0.6c-3.2,1.9-4.7,3.9-4.3,5.5
		c0.7,2.8,7.2,4.5,12.9,4.6c0.7-1,4.3-6.9,2.2-14.9l0.7-0.2c2.4,9.1-2.4,15.6-2.5,15.7L15.2,30z"/>
	<path class="st0" d="M4.1,27.2c-0.4,0-0.6,0-0.6-0.1c-0.1,0-0.2-0.1-0.3-0.3c0-0.1,0-0.3,0.1-0.4c0.1-0.1,5.4-5.4,6.1-9.7l0.7,0.1
		c-0.6,3.7-4.3,8-5.7,9.5c1.5-0.1,5.1-0.8,12.2-4.7c-5.5-0.6-6.4-5-6.4-5.1l0.7-0.1c0,0.2,0.9,4.5,6.9,4.5c0,0,0,0,0,0l0,0
		c0.2,0,0.3,0.1,0.4,0.3c0,0.2,0,0.3-0.2,0.4C9.6,26.7,5.6,27.2,4.1,27.2z"/>
	<path class="st0" d="M7.5,29c-0.2,0-0.3-0.1-0.4-0.2c-0.1-0.2,0-0.3,0.1-0.4c0,0,1.4-1,2.8-3.2c-0.5-0.2-1.1-0.5-1.6-0.9
		c-0.7-0.4-1.2-0.8-1.5-1.3c-1.9,0.5-3.7,0.7-5.3,0.6l0.1-0.7c1.4,0.1,3,0,4.7-0.5c-1.2-2-0.1-4-0.1-4L7,18.7
		c-0.1,0.1-0.9,1.8,0.2,3.5c1.7-0.5,3.4-1.2,5.2-2.1c0.4-1.4,0.7-2.9,0.9-4.7c0-0.1,0.1-0.2,0.2-0.3c0.1-0.1,0.2-0.1,0.3,0
		c0,0,2.4,1.1,4.2,1.8c0.1,0.1,0.2,0.2,0.2,0.3c0,0.1,0,0.3-0.2,0.3c-1.7,1.2-3.4,2.2-5.1,3c-0.5,1.7-1.2,3.1-1.8,4.2
		c2.8,1,5.2,1.1,5.2,1.1c0.2,0,0.3,0.1,0.4,0.3c0,0.2,0,0.3-0.2,0.4C13.2,28.5,7.8,29,7.5,29C7.6,29,7.6,29,7.5,29z M10.8,25.5
		c-0.8,1.2-1.5,2.1-2.1,2.6c1.5-0.2,4.1-0.7,6.3-1.6C14,26.4,12.5,26.1,10.8,25.5z M7.7,22.8c0.3,0.3,0.7,0.6,1.1,0.9
		c0.6,0.3,1.1,0.6,1.7,0.9c0.6-0.9,1.1-2.1,1.6-3.4C10.6,21.8,9.1,22.4,7.7,22.8z M14.1,16c-0.2,1.3-0.4,2.5-0.7,3.6
		c1.2-0.7,2.5-1.4,3.8-2.3C16,16.9,14.7,16.3,14.1,16z"/>
	<path class="st0" d="M10.1,5.7c-0.1,0-0.2,0-0.2-0.1c-1.2-1-2.6-3.1-2.7-3.2c-0.1-0.1-0.1-0.3,0-0.5c0.1-0.1,0.3-0.2,0.5-0.1
		c0,0,0.7,0.3,5.4,1.1c0.1,0,0.2,0.1,0.3,0.2c0,0.1,0,0.3-0.1,0.4c-1.3,1.5-3,2.1-3.1,2.1C10.2,5.7,10.1,5.7,10.1,5.7z M8.4,2.8
		c0.5,0.6,1.2,1.5,1.8,2.1c0.4-0.2,1.2-0.6,2.1-1.3C10.3,3.2,9.1,3,8.4,2.8z"/>
	<path class="st0" d="M13,16.1c-0.1,0-0.1,0-0.2,0c-0.1-0.1-0.2-0.2-0.2-0.4c0.2-2.1-2.9-2.9-3-2.9c-0.1,0-0.2-0.1-0.3-0.3
		s0-0.3,0.1-0.4C9.7,12,13.4,8.3,18,6.3c0.1-0.1,0.3,0,0.4,0.1c0.1,0.1,0.2,0.2,0.1,0.4c-0.9,4.3-5,9-5.2,9.2
		C13.2,16,13.1,16.1,13,16.1z M10.5,12.2c0.9,0.3,2.4,1.1,2.8,2.5c1.1-1.4,3.4-4.5,4.3-7.4C14.3,8.9,11.5,11.3,10.5,12.2z"/>
	<path class="st0" d="M6.5,19l-0.4-0.7c1.4-0.8,3-2.2,4.4-3.8c-1.1,0.8-1.8,1.3-1.8,1.3l-0.5-0.6c0,0,1.3-1.1,3.5-2.4
		c0.6-0.9,1-1.9,1.3-2.9C13,9.9,13,9.7,13,9.6c-1.4-0.5-2.8-0.8-3.7-1C9.2,8.6,9.1,8.5,9,8.4C9,8.3,9,8.1,9.1,8
		c0.1-0.1,1.6-1.7,3.5-2.6c0.1-0.1,0.3,0,0.4,0.1c0.1,0.1,1.1,1.2,0.8,3.6c0.9,0.3,1.8,0.7,2.6,1.2c2.1-0.9,4.4-1.8,6.9-2.3
		c0.1,0,0.3,0,0.4,0.1c0.1,0.1,0.1,0.2,0.1,0.4c-1,2.5-3.6,5.2-3.7,5.3C20.1,13.9,20,14,19.8,14c-0.1,0-0.2-0.1-0.3-0.1
		c-0.8-1.1-1.9-1.9-3.1-2.6c-1.6,0.8-3.1,1.6-4.3,2.3C10.7,15.8,8.4,18,6.5,19z M17.3,10.8c1,0.6,1.9,1.4,2.6,2.2
		c0.6-0.7,2.1-2.4,3-4.1C20.8,9.4,19,10.1,17.3,10.8z M13.7,9.8c0,0.1-0.1,0.2-0.1,0.4c-0.2,0.6-0.4,1.3-0.7,1.9
		c0.8-0.5,1.7-1,2.7-1.4C15,10.4,14.4,10.1,13.7,9.8z M10.2,8c0.8,0.2,1.9,0.4,3,0.8c0.1-1.4-0.3-2.2-0.5-2.6
		C11.6,6.8,10.7,7.5,10.2,8z"/>
	<path class="st0" d="M10.2,11.6c0,3.3-2.7,5.9-4.7,7.8C5.1,19.8,4,19.8,4,19.8c0.3-0.3,0.6-0.6,0.9-0.9c1.9-1.8,4.5-4.3,4.5-7.3
		c0-3.5-1.4-4.9-2.5-6C6.4,5.1,6,4.6,5.7,4.1L6,4c0.3,0.1,0.5,0.2,0.8,0.3c0.2,0.3,0.4,0.5,0.7,0.8C8.6,6.2,10.2,7.8,10.2,11.6z"/>
	<path class="st0" d="M28.8,12.6c0,0-0.5,0.1-0.6,0.1c-6.6,0.7-13.3,2.6-17.2,4.2c-1.4,0.6-2.9,1.2-4.2,2c0,0,0,0,0,0
		c-0.8,0.5-2.7,1.4-4.2,2.2c2.2-2.4,6.5-4.2,8.1-4.9c3.8-1.5,10.3-3.4,16.8-4.1c-0.8-0.9-2.6-2.8-6.3-4.2C19.1,7,15.9,6.6,13,6.2
		C8.5,5.5,5.9,5.1,5.7,3.8c-0.1-0.2,0-0.5,0.1-0.7C6,3.5,6.4,3.8,6.6,4C6.7,4,6.8,4.1,6.8,4.1l0,0c1.1,0.6,3.9,1,6.3,1.3
		c2.9,0.4,6.2,0.9,8.4,1.7c5.2,2,6.9,4.8,7,4.9C28.6,12.2,28.8,12.6,28.8,12.6z"/>
</g>
</svg>
