<?xml version="1.0" encoding="utf-8"?>
<!-- Generator: Adobe Illustrator 25.2.1, SVG Export Plug-In . SVG Version: 6.00 Build 0)  -->
<svg version="1.1" id="Capa_1" xmlns="http://www.w3.org/2000/svg" xmlns:xlink="http://www.w3.org/1999/xlink" x="0px" y="0px"
	 viewBox="0 0 50 50" style="enable-background:new 0 0 50 50;" xml:space="preserve">
<style type="text/css">
	.st0{fill:#003E52;}
</style>
<g>
	<path class="st0" d="M46.1,38.4c-2.7-0.1-4.8,0.2-6.6,1c-0.5,0.2-1.3,0.2-1.4,0.8c0.3,0.3,0.3,0.7,0.5,1.1c0.4,0.7,1.1,1.6,1.8,2.1
		c0.7,0.5,1.4,1.1,2.2,1.6c1.3,0.8,2.8,1.3,4.1,2.1c0.7,0.5,1.5,1.1,2.2,1.6c0.4,0.3,0.6,0.7,1.1,0.9v-0.1c-0.2-0.3-0.3-0.7-0.5-1.1
		c-0.3-0.3-0.7-0.6-1-1c-1-1.3-2.2-2.5-3.5-3.4c-1.1-0.7-3.5-1.8-3.9-3c0,0,0,0-0.1-0.1c0.7-0.1,1.6-0.3,2.3-0.5
		c1.2-0.3,2.2-0.2,3.4-0.5c0.5-0.1,1.1-0.3,1.6-0.5V39c-0.6-0.6-1.1-1.4-1.7-2c-1.7-1.5-3.6-3-5.6-4.2c-1.1-0.7-2.4-1.1-3.5-1.7
		c-0.4-0.2-1.1-0.3-1.3-0.6c-0.6-0.7-1-1.7-1.4-2.6c-1-1.9-1.9-3.9-2.8-5.9c-0.6-1.3-1-2.7-1.7-3.9C26.7,12.2,22.9,8.7,17,5.3
		c-1.3-0.7-2.8-1-4.4-1.4c-0.8,0-1.7-0.1-2.5-0.1C9.6,3.5,9.1,2.9,8.6,2.6C6.6,1.4,1.6-1.3,0.2,2.2c-0.9,2.2,1.4,4.4,2.1,5.5
		c0.6,0.8,1.3,1.7,1.7,2.5c0.2,0.6,0.3,1.2,0.5,1.8c0.5,1.5,1.1,3.2,1.8,4.6c0.4,0.7,0.8,1.5,1.3,2.1c0.3,0.4,0.7,0.5,0.8,1.2
		C8,20.6,8,21.6,7.7,22.4C6.5,26.3,7,31,8.7,33.9c0.5,0.8,1.8,2.7,3.6,2c1.5-0.6,1.2-2.5,1.6-4.2c0.1-0.4,0-0.7,0.2-1
		c0,0,0,0.1,0,0.1c0.5,1,1,1.9,1.4,2.8c1.1,1.7,2.9,3.4,4.4,4.6c0.8,0.6,1.5,1.7,2.5,2v-0.1h-0.1c-0.2-0.3-0.5-0.4-0.8-0.7
		c-0.6-0.6-1.3-1.4-1.8-2c-1.4-1.9-2.7-4-3.8-6.2c-0.5-1.1-1-2.2-1.5-3.3c-0.2-0.4-0.2-1-0.5-1.2c-0.5,0.7-1.3,1.4-1.6,2.3
		c-0.6,1.5-0.7,3.3-1,5.1c-0.1,0-0.1,0-0.1,0.1c-1.1-0.3-1.5-1.4-1.9-2.3c-1-2.4-1.2-6.3-0.3-9.1c0.2-0.7,1.3-3,0.8-3.6
		c-0.2-0.6-0.9-1-1.3-1.5c-0.4-0.6-0.9-1.5-1.2-2.2c-0.8-1.9-1.2-4-2.1-5.9C5,8.6,4.3,7.7,3.7,6.9C3,5.9,2.3,5.3,1.8,4.2
		c-0.2-0.4-0.4-1-0.1-1.4c0.1-0.3,0.2-0.4,0.5-0.4C2.6,2,3.9,2.5,4.3,2.7c1.3,0.5,2.3,1,3.4,1.7c0.5,0.3,1,1,1.6,1.2H10
		c1.1,0.2,2.3,0.1,3.3,0.4c1.8,0.6,3.4,1.4,4.9,2.3c4.5,2.8,8.1,6.8,10.6,11.6c0.4,0.8,0.6,1.5,1,2.3c0.7,1.7,1.6,3.4,2.3,5
		c0.7,1.6,1.4,3.2,2.4,4.6c0.5,0.7,2.5,1.1,3.5,1.5c0.7,0.3,1.7,0.6,2.3,1c1.2,0.7,2.3,1.5,3.4,2.3C44.3,36.9,46,37.7,46.1,38.4
		L46.1,38.4L46.1,38.4z"/>
	<path class="st0" d="M11.4,8.9c-0.6,0-1,0.1-1.4,0.2c0,0,0,0,0,0.1H10c0.3,0.5,0.7,0.9,1.1,1.4c0.3,0.5,0.5,1.1,0.8,1.6
		c0,0,0.1-0.1,0.1-0.1c0.5-0.3,0.7-0.9,0.7-1.7c-0.2-0.2-0.2-0.5-0.4-0.7C12.1,9.3,11.6,9.1,11.4,8.9L11.4,8.9L11.4,8.9z"/>
</g>
</svg>
