<?xml version="1.0" encoding="utf-8"?>
<!-- Generator: Adobe Illustrator 25.2.1, SVG Export Plug-In . SVG Version: 6.00 Build 0)  -->
<svg version="1.1" id="Capa_1" xmlns="http://www.w3.org/2000/svg" xmlns:xlink="http://www.w3.org/1999/xlink" x="0px" y="0px"
	 viewBox="0 0 30 30" style="enable-background:new 0 0 30 30;" xml:space="preserve">
<style type="text/css">
	.st0{fill:#003E52;}
</style>
<g>
	<path class="st0" d="M0,26.5c3.8-0.7,6.1-2.7,7.1-6.3c0.7-2.8-0.2-6.1-2.2-7.9c0.5-0.1,0.8,0.1,1.2,0.2c5.1,1.4,9.8,3.6,13.6,7.4
		c1.7,1.7,3.1,3.7,4,6c0,0.1,0.1,0.2,0.1,0.3c0,0,0,0.1,0,0.2C16,26.5,8.1,26.5,0,26.5z"/>
	<path class="st0" d="M30,26.5c-1.8,0-3.7,0-5.5,0c-2-5.8-6-10-11-13.3c-1-0.6-2-1.2-3.1-1.7c-0.2-0.1-0.3-0.1-0.4-0.4
		C9.8,8.4,8.9,5.8,7.2,3.4c1.2,0.3,2.2,0.7,3.2,1.1C19.6,8.5,26,15,29.4,24.4C29.6,25.1,29.8,25.8,30,26.5z"/>
</g>
</svg>
