<?xml version="1.0" encoding="utf-8"?>
<!-- Generator: Adobe Illustrator 25.2.1, SVG Export Plug-In . SVG Version: 6.00 Build 0)  -->
<svg version="1.1" id="Capa_1" xmlns="http://www.w3.org/2000/svg" xmlns:xlink="http://www.w3.org/1999/xlink" x="0px" y="0px"
	 viewBox="0 0 50 50" style="enable-background:new 0 0 50 50;" xml:space="preserve">
<style type="text/css">
	.st0{fill:#003E52;}
</style>
<g>
	<path class="st0" d="M0,44.2c6.3-1.1,10.2-4.5,11.8-10.5C13,29,11.4,23.5,8.1,20.6c0.8-0.1,1.4,0.2,2,0.3
		c8.6,2.3,16.3,6.1,22.7,12.4c2.9,2.9,5.2,6.2,6.7,10c0.1,0.2,0.1,0.3,0.2,0.5c0,0.1,0,0.2,0.1,0.3C26.6,44.2,13.4,44.2,0,44.2z"/>
	<path class="st0" d="M50,44.1c-3,0-6.1,0-9.1,0c-3.4-9.7-9.9-16.7-18.4-22.2c-1.6-1.1-3.3-2-5.1-2.9c-0.3-0.1-0.6-0.2-0.6-0.6
		c-0.5-4.6-1.9-8.9-4.7-12.8c1.9,0.5,3.7,1.1,5.3,1.9c15.2,6.6,25.9,17.5,31.5,33.2C49.3,41.9,49.7,43,50,44.1z"/>
</g>
</svg>
