<?xml version="1.0" encoding="utf-8"?>
<!-- Generator: Adobe Illustrator 25.2.1, SVG Export Plug-In . SVG Version: 6.00 Build 0)  -->
<svg version="1.1" id="Capa_1" xmlns="http://www.w3.org/2000/svg" xmlns:xlink="http://www.w3.org/1999/xlink" x="0px" y="0px"
	 viewBox="0 0 30 30" style="enable-background:new 0 0 30 30;" xml:space="preserve">
<style type="text/css">
	.st0{fill:#003E52;}
</style>
<g>
	<path class="st0" d="M15,7.1C6.7,7.1,0,10.6,0,15s6.7,7.9,15,7.9s15-3.5,15-7.9S23.3,7.1,15,7.1z M15,22.3C7,22.3,0.6,19,0.6,15
		C0.6,11,7,7.7,15,7.7S29.4,11,29.4,15S23,22.3,15,22.3z"/>
	<g id="g3478">
		<path class="st0" d="M9.6,11.5H6.3l-1.5,7.9h1.7l0.4-2.1h1.5c0.7,0,1.2-0.1,1.6-0.2c0.4-0.1,0.8-0.4,1.1-0.7
			c0.3-0.3,0.5-0.6,0.7-0.9c0.2-0.3,0.3-0.7,0.4-1.1c0.2-0.9,0-1.7-0.4-2.2C11.3,11.8,10.6,11.5,9.6,11.5z M10.4,14.4
			c-0.1,0.6-0.3,1-0.7,1.3c-0.3,0.3-0.9,0.4-1.6,0.4h-1l0.6-3.3h1.2c0.7,0,1.1,0.1,1.3,0.4C10.5,13.4,10.5,13.8,10.4,14.4z"/>
		<path class="st0" d="M18.7,13.6c0.1-0.7,0-1.3-0.3-1.6c-0.4-0.3-1-0.5-2-0.5h-1.5l0.4-2.1h-1.7l-1.5,7.9h1.7l0.9-4.5H16
			c0.4,0,0.7,0.1,0.9,0.2c0.1,0.1,0.2,0.4,0.1,0.8l-0.7,3.5H18L18.7,13.6z"/>
		<path class="st0" d="M23,11.5L23,11.5h-3.3l-1.5,7.9h1.7l0.4-2.1h1.5c0.7,0,1.2-0.1,1.6-0.2s0.8-0.4,1.1-0.7
			c0.3-0.3,0.5-0.6,0.7-0.9c0.2-0.3,0.3-0.7,0.4-1.1c0.2-0.9,0-1.7-0.4-2.2C24.7,11.8,24,11.5,23,11.5z M23.8,14.4
			c-0.1,0.6-0.3,1-0.7,1.3c-0.3,0.3-0.9,0.4-1.6,0.4h-1l0.6-3.3h1.2c0.7,0,1.1,0.1,1.3,0.4C23.9,13.4,23.9,13.8,23.8,14.4z"/>
	</g>
</g>
</svg>
