<?xml version="1.0" encoding="utf-8"?>
<!-- Generator: Adobe Illustrator 25.2.1, SVG Export Plug-In . SVG Version: 6.00 Build 0)  -->
<svg version="1.1" id="Capa_1" xmlns="http://www.w3.org/2000/svg" xmlns:xlink="http://www.w3.org/1999/xlink" x="0px" y="0px"
	 viewBox="0 0 50 50" style="enable-background:new 0 0 50 50;" xml:space="preserve">
<style type="text/css">
	.st0{fill:#003E52;}
</style>
<g>
	<path class="st0" d="M25,11.8C11.2,11.8,0,17.7,0,25s11.2,13.2,25,13.2S50,32.3,50,25S38.8,11.8,25,11.8z M25,37.2
		C11.7,37.2,1,31.7,1,25c0-6.7,10.8-12.2,24-12.2S49,18.3,49,25S38.3,37.2,25,37.2z"/>
	<g id="g3478">
		<path class="st0" d="M16,19.2h-5.5L7.9,32.4h2.9l0.7-3.5h2.5c1.1,0,2-0.1,2.7-0.3s1.3-0.6,1.9-1.1c0.5-0.4,0.9-0.9,1.2-1.5
			c0.3-0.5,0.5-1.1,0.6-1.8c0.3-1.6,0.1-2.8-0.7-3.6C18.8,19.6,17.6,19.2,16,19.2z M17.3,23.9c-0.2,1-0.6,1.7-1.1,2.2
			c-0.6,0.4-1.4,0.7-2.6,0.7h-1.7l1.1-5.5h2c1.1,0,1.8,0.2,2.2,0.6C17.4,22.3,17.5,23,17.3,23.9z"/>
		<path class="st0" d="M31.2,22.7c0.2-1.2,0.1-2.1-0.5-2.7c-0.6-0.6-1.7-0.8-3.3-0.8h-2.5l0.7-3.5h-2.8l-2.6,13.2H23l1.5-7.5h2.3
			c0.7,0,1.2,0.1,1.4,0.4c0.2,0.2,0.3,0.7,0.1,1.4l-1.1,5.8H30L31.2,22.7z"/>
		<path class="st0" d="M38.4,19.2L38.4,19.2h-5.5l-2.6,13.2h2.9l0.7-3.5h2.5c1.1,0,2-0.1,2.7-0.3s1.3-0.6,1.9-1.1
			c0.5-0.4,0.9-0.9,1.2-1.5c0.3-0.5,0.5-1.1,0.6-1.8c0.3-1.6,0.1-2.8-0.7-3.6C41.2,19.6,40,19.2,38.4,19.2z M39.7,23.9
			c-0.2,1-0.6,1.7-1.1,2.2c-0.6,0.4-1.4,0.7-2.6,0.7h-1.7l1.1-5.5h2c1.1,0,1.8,0.2,2.2,0.6C39.8,22.3,39.9,23,39.7,23.9z"/>
	</g>
</g>
</svg>
