<?xml version="1.0" encoding="utf-8"?>
<!-- Generator: Adobe Illustrator 25.2.1, SVG Export Plug-In . SVG Version: 6.00 Build 0)  -->
<svg version="1.1" id="Capa_1" xmlns="http://www.w3.org/2000/svg" xmlns:xlink="http://www.w3.org/1999/xlink" x="0px" y="0px"
	 viewBox="0 0 30 30" style="enable-background:new 0 0 30 30;" xml:space="preserve">
<style type="text/css">
	.st0{fill:#003E52;}
</style>
<g>
	<path class="st0" d="M12.6,10.1C12.7,10.1,12.7,10.1,12.6,10.1c0.5,0,0.8-0.3,0.8-0.5c0,0,0-0.1-0.1-0.2c-0.1-0.1-0.4-0.3-0.7-0.3
		c-0.4,0-0.8,0-0.8,0.3c0,0.1,0.1,0.3,0.1,0.3C12.2,9.9,12.4,10,12.6,10.1z"/>
	<path class="st0" d="M22.8,9c-0.1-0.1-0.4-0.1-0.7-0.1c-0.3,0-0.5,0.1-0.6,0.3c0,0.1,0,0.1,0,0.1c0,0.2,0.3,0.4,0.7,0.4
		c0,0,0.1,0,0.1,0c0.2,0,0.4-0.2,0.6-0.3c0-0.1,0.1-0.2,0.1-0.3C22.9,9,22.8,9,22.8,9z"/>
	<path class="st0" d="M29.5,18c-0.1-0.3-0.6-1.3-2.2-0.9c-0.7,0.1-1.1,0.2-1.5,0.2c1.3-2.3,2.4-4.9,3.1-7.3c0.6-2.2,1-5.1-0.2-6.6
		C27,1.2,24.5,0,21.6,0c-1.6,0-3,0.3-3.7,0.5c-0.7-0.1-1.4-0.2-2.2-0.2c-1.4,0-2.7,0.3-3.8,0.9C11.3,1,10.4,0.8,9.3,0.6
		C6.7,0.2,4.6,0.5,3,1.6C1.2,2.9,0.3,5.2,0.5,8.3c0.1,1,0.6,4.1,1.5,7C2.5,17,3,18.4,3.6,19.5c0.8,1.5,1.7,2.4,2.6,2.7
		c0.5,0.2,1.5,0.3,2.5-0.5c0.4,0.4,1,0.7,1.5,0.9c1.3,0.3,2.5,0.2,3.5-0.2c0,0.2,0,0.4,0,0.5c0,0.2,0,0.5,0,0.7
		c0.1,1.5,0.2,2.7,0.5,3.5c0,0,0,0.1,0.1,0.2c0.2,0.5,0.4,1.3,1.1,1.9c0.4,0.4,1.1,0.8,2.2,0.8c0.3,0,0.7,0,1-0.1
		c1.1-0.2,2.4-0.6,3.3-1.9c0.9-1.2,1.3-3.1,1.4-6c0-0.1,0-0.2,0-0.2c0-0.1,0-0.1,0-0.2l0.2,0l0.1,0c1.1,0.1,2.5-0.2,3.4-0.6
		C27.8,20.7,30,19.5,29.5,18z M27.4,4.2c1,1.3-0.1,7.4-3.4,12.6c0,0-0.1-0.1-0.1-0.1c0,0,0,0,0-0.1c0.9-1.4,0.7-2.8,0.5-4.1
		c-0.1-0.5-0.1-1-0.1-1.4c0-0.5,0.1-0.9,0.1-1.3c0.1-0.5,0.2-1,0.1-1.6c0-0.1,0-0.1,0-0.2c-0.1-0.6-0.7-2.3-2-3.9
		c-0.7-0.9-1.8-1.8-3.3-2.4C21,1.3,24.9,1,27.4,4.2z M23.5,12.7c0.1,1.1,0.3,2.1-0.2,3.2c-0.1-0.1-0.2-0.3-0.2-0.4
		c-0.1-0.2-0.2-0.4-0.4-0.7c-0.7-1.3-2.4-4.4-1.6-5.6c0.4-0.6,1.6-0.7,2.6-0.5c0,0.4-0.1,0.8-0.1,1.2c-0.1,0.4-0.1,0.9-0.1,1.4
		C23.4,11.6,23.4,12.1,23.5,12.7z M8,19.8c-0.7,0.8-1.1,0.7-1.3,0.6c-1-0.3-2.1-2.4-3.2-5.8c-0.9-2.9-1.4-5.8-1.4-6.6
		C2,5.5,2.6,3.7,4,2.7c2.2-1.6,5.8-0.6,7.3-0.2c0,0,0,0-0.1,0.1C8.8,5.1,8.9,9.3,8.9,9.5c0,0.1,0,0.2,0,0.4c0,0.7,0.1,2-0.1,3.5
		C8.6,14.7,9.1,16,10,17c0.1,0.1,0.2,0.2,0.3,0.3C9.9,17.7,9,18.7,8,19.8z M9.8,9.8c0-0.1,0-0.2,0-0.2c0.3-0.3,2-1.2,3.1-0.9
		c0.5,0.1,0.9,0.5,1,1.1c0.7,3.2,0.1,4.5-0.4,5.6c-0.1,0.2-0.2,0.4-0.3,0.6l-0.1,0.2c-0.2,0.4-0.3,0.8-0.4,1.2c-0.8,0-1.6-0.3-2.1-1
		c-0.7-0.8-1.1-1.9-0.9-3C9.9,11.9,9.8,10.5,9.8,9.8z M14.6,19.3c0,0.1,0,0.2-0.1,0.2c-1.1,1.5-2.6,1.5-3.8,1.2
		c-0.2-0.1-0.4-0.2-0.6-0.2c0.1,0,0.3-0.1,0.6-0.2c1.5-0.3,1.8-0.5,2.3-1.2c0.1-0.1,0.3-0.3,0.4-0.5c0.3-0.3,0.4-0.3,0.6-0.2
		c0.2,0.1,0.4,0.3,0.4,0.6C14.5,19,14.6,19.1,14.6,19.3C14.6,19.2,14.6,19.2,14.6,19.3z M22.1,19.5c-0.1,0.8-0.5,4.5-0.7,5.8
		c-0.3,1.7-0.9,2.4-2.7,2.8c-1.9,0.4-2.5-0.5-3-1.6c-0.3-0.7-0.4-3.8-0.3-7.3c0,0,0-0.1,0-0.1c0-0.1,0-0.2-0.1-0.3
		c-0.1-0.5-0.5-0.9-0.9-1.1c-0.2-0.1-0.5-0.2-0.9-0.1c0.1-0.3,0.2-0.7,0.4-1.1l0.1-0.2c0.1-0.2,0.2-0.4,0.3-0.6
		c0.5-1.1,1.2-2.7,0.4-6.1c-0.3-1.3-1.2-1.9-2.7-1.8c-0.9,0.1-1.6,0.4-2,0.6c-0.1,0-0.2,0.1-0.2,0.1c0.1-1.3,0.5-3.8,2.1-5.3
		c1-1,2.3-1.5,3.8-1.4c3.1,0.1,5.1,1.6,6.2,3c1,1.1,1.5,2.3,1.7,2.9c-1.6-0.2-2.6,0.2-3.2,0.9c-1.2,1.7,0.6,4.9,1.5,6.5
		c0.2,0.3,0.3,0.5,0.3,0.6c0.3,0.7,0.7,1.1,0.9,1.5c0.1,0.1,0.2,0.2,0.2,0.3C22.9,17.6,22.1,18,22.1,19.5z M26.4,19.2
		c-0.5,0.2-1.3,0.4-2.1,0.4c-0.9,0-1.3-0.1-1.4-0.2v0c-0.1-1,0.3-1.1,0.7-1.2c0.1,0,0.1,0,0.2-0.1c0.1,0.1,0.2,0.2,0.4,0.2
		c0.7,0.3,1.8,0.3,3.3,0c0,0,0,0,0,0C27.4,18.7,27,19,26.4,19.2z"/>
</g>
</svg>
