<?xml version="1.0" encoding="utf-8"?>
<!-- Generator: Adobe Illustrator 25.2.1, SVG Export Plug-In . SVG Version: 6.00 Build 0)  -->
<svg version="1.1" id="Capa_1" xmlns="http://www.w3.org/2000/svg" xmlns:xlink="http://www.w3.org/1999/xlink" x="0px" y="0px"
	 viewBox="0 0 50 50" style="enable-background:new 0 0 50 50;" xml:space="preserve">
<style type="text/css">
	.st0{fill:#003E52;}
</style>
<g>
	<path class="st0" d="M21.1,16.8c0.1,0,0.1,0,0.2,0c0.6,0,1.2-0.5,1.2-0.8c0-0.1,0-0.2-0.1-0.3c-0.2-0.2-0.6-0.4-1.1-0.5
		c-0.6-0.1-1.3,0-1.4,0.5c0,0.2,0.1,0.4,0.2,0.6C20.3,16.5,20.7,16.7,21.1,16.8z"/>
	<path class="st0" d="M38,14.9c-0.2-0.2-0.6-0.2-1.1-0.2c-0.5,0.1-0.9,0.2-1,0.4c-0.1,0.1-0.1,0.2-0.1,0.2c0,0.3,0.5,0.7,1.1,0.7
		c0,0,0.1,0,0.1,0c0.3,0,0.7-0.3,0.9-0.6c0.1-0.1,0.2-0.3,0.2-0.5C38.1,15.1,38.1,15,38,14.9z"/>
	<path class="st0" d="M49.1,29.9c-0.2-0.5-0.9-2.1-3.7-1.6c-1.1,0.2-1.9,0.3-2.5,0.3c2.2-3.8,4.1-8.1,5.1-12.2
		C49,12.9,49.7,8,47.8,5.6C45,2,40.9,0.1,35.9,0c-2.6,0-5,0.5-6.2,0.9c-1.1-0.2-2.3-0.3-3.6-0.3c-2.4,0-4.5,0.5-6.3,1.5
		c-1-0.3-2.6-0.8-4.4-1.1C11.1,0.3,7.6,0.8,5.1,2.6C2,4.8,0.5,8.6,0.8,13.9c0.1,1.7,1,6.8,2.5,11.7c0.9,2.8,1.8,5.1,2.7,6.9
		c1.3,2.5,2.8,4,4.4,4.6c0.9,0.3,2.5,0.5,4.2-0.9c0.6,0.7,1.6,1.2,2.6,1.5c2.2,0.5,4.2,0.4,5.9-0.3c0,0.3,0,0.6,0,0.9
		c0,0.4,0,0.8,0,1.2c0.1,2.5,0.3,4.5,0.8,5.9c0,0.1,0.1,0.2,0.1,0.3c0.3,0.8,0.7,2.1,1.8,3.1c0.7,0.7,1.9,1.4,3.7,1.4
		c0.5,0,1.1-0.1,1.7-0.2c1.9-0.4,4-1,5.5-3.2c1.4-2.1,2.2-5.2,2.3-10.1c0-0.1,0-0.3,0-0.4c0-0.1,0-0.2,0-0.3l0.3,0l0.1,0
		c1.9,0.1,4.2-0.3,5.6-1C46.4,34.4,50,32.5,49.1,29.9z M45.6,7c1.7,2.2-0.2,12.3-5.7,21.1c-0.1-0.1-0.1-0.1-0.2-0.2
		c0,0,0-0.1-0.1-0.1c1.4-2.4,1.2-4.7,0.9-6.8c-0.1-0.9-0.2-1.7-0.2-2.4c0-0.8,0.1-1.5,0.2-2.1c0.1-0.8,0.3-1.7,0.2-2.7
		c0-0.1,0-0.2,0-0.4c-0.1-1-1.2-3.8-3.4-6.4c-1.2-1.4-3-3-5.4-4.1C35.1,2.2,41.4,1.7,45.6,7z M39.1,21.1c0.2,1.8,0.4,3.6-0.4,5.3
		c-0.1-0.2-0.3-0.5-0.4-0.7c-0.1-0.3-0.3-0.7-0.6-1.2c-1.2-2.2-4.1-7.3-2.6-9.4c0.7-1.1,2.6-1.1,4.3-0.9c0,0.7-0.1,1.3-0.2,2
		c-0.1,0.7-0.2,1.4-0.2,2.3C38.9,19.3,39,20.2,39.1,21.1z M13.4,33c-1.1,1.3-1.9,1.1-2.1,1C9.6,33.5,7.7,30,6,24.4
		c-1.5-4.8-2.3-9.6-2.4-11C3.4,9.1,4.4,6.1,6.7,4.5c3.7-2.6,9.7-1,12.2-0.3c0,0-0.1,0.1-0.1,0.1c-4,4.1-3.9,11-3.9,11.4
		c0,0.2,0,0.4,0,0.7c0.1,1.2,0.2,3.3-0.1,5.8c-0.3,2.3,0.4,4.5,1.9,6.1c0.2,0.2,0.3,0.3,0.5,0.5C16.5,29.5,15,31.1,13.4,33z
		 M16.3,16.3c0-0.2,0-0.3,0-0.4c0.6-0.5,3.3-2,5.2-1.5c0.9,0.2,1.4,0.8,1.6,1.8c1.2,5.3,0.2,7.6-0.6,9.3c-0.2,0.4-0.3,0.7-0.5,1.1
		l-0.1,0.3c-0.3,0.7-0.5,1.4-0.7,2c-1.3,0-2.6-0.6-3.6-1.6c-1.2-1.3-1.8-3.1-1.5-4.9C16.5,19.8,16.3,17.5,16.3,16.3z M24.3,32.1
		c0,0.1-0.1,0.3-0.1,0.4c-1.8,2.5-4.4,2.5-6.3,2c-0.4-0.1-0.7-0.3-0.9-0.4c0.2-0.1,0.5-0.2,1-0.3c2.5-0.5,2.9-0.9,3.8-2
		c0.2-0.2,0.4-0.5,0.7-0.9c0.5-0.5,0.7-0.4,1.1-0.3c0.3,0.1,0.6,0.5,0.7,0.9c0,0.1,0.1,0.2,0.1,0.3C24.3,32,24.3,32.1,24.3,32.1z
		 M36.9,32.6c-0.1,1.3-0.8,7.5-1.2,9.7c-0.5,2.9-1.6,4-4.6,4.6c-3.1,0.7-4.2-0.9-4.9-2.7c-0.5-1.2-0.7-6.4-0.5-12.2
		c0-0.1,0-0.1,0-0.2c0-0.1,0-0.3-0.1-0.4c-0.2-0.8-0.8-1.5-1.5-1.8c-0.3-0.1-0.8-0.3-1.4-0.2c0.1-0.5,0.4-1.2,0.6-1.8l0.1-0.3
		c0.1-0.3,0.3-0.6,0.4-1c0.8-1.9,2-4.4,0.7-10.2c-0.5-2.2-2-3.2-4.4-3c-1.4,0.2-2.7,0.7-3.4,1c-0.1,0.1-0.3,0.1-0.4,0.2
		c0.2-2.2,0.9-6.3,3.4-8.8c1.6-1.6,3.8-2.4,6.4-2.4c5.2,0.1,8.5,2.7,10.3,4.9c1.6,1.9,2.5,3.8,2.8,4.8c-2.6-0.3-4.4,0.3-5.3,1.5
		c-2,2.8,1.1,8.2,2.5,10.8c0.3,0.5,0.5,0.9,0.6,1.1c0.5,1.1,1.1,1.9,1.5,2.5c0.1,0.2,0.3,0.3,0.4,0.5C38.2,29.4,36.8,29.9,36.9,32.6
		z M44.1,32.1c-0.8,0.4-2.2,0.7-3.4,0.7c-1.4,0.1-2.1-0.2-2.3-0.3v0c-0.1-1.7,0.5-1.8,1.2-2c0.1,0,0.2-0.1,0.3-0.1
		c0.2,0.1,0.4,0.3,0.7,0.4c1.2,0.5,3.1,0.5,5.5,0c0,0,0,0,0,0C45.7,31.1,45,31.6,44.1,32.1z"/>
</g>
</svg>
