<?xml version="1.0" encoding="utf-8"?>
<!-- Generator: Adobe Illustrator 25.2.1, SVG Export Plug-In . SVG Version: 6.00 Build 0)  -->
<svg version="1.1" id="Capa_1" xmlns="http://www.w3.org/2000/svg" xmlns:xlink="http://www.w3.org/1999/xlink" x="0px" y="0px"
	 viewBox="0 0 30 30" style="enable-background:new 0 0 30 30;" xml:space="preserve">
<style type="text/css">
	.st0{fill:#003E52;}
</style>
<path id="path1948" class="st0" d="M14.9,0c-1.2,0-2.4,0.1-3.4,0.3C8.5,0.8,7.9,1.9,7.9,4v2.7h7.2v0.9H7.9H5.2
	c-2.1,0-3.9,1.2-4.5,3.6c-0.7,2.7-0.7,4.4,0,7.3c0.5,2.1,1.7,3.6,3.8,3.6H7v-3.3c0-2.4,2-4.4,4.5-4.4h7.1c2,0,3.6-1.6,3.6-3.6V4
	c0-1.9-1.6-3.4-3.6-3.7C17.4,0.1,16.1,0,14.9,0z M11,2.2c0.7,0,1.3,0.6,1.3,1.4c0,0.8-0.6,1.4-1.3,1.4c-0.7,0-1.3-0.6-1.3-1.4
	C9.7,2.8,10.3,2.2,11,2.2z"/>
<g id="path1950">
	<path class="st0" d="M25.8,7.9L25.8,7.9c0.9,0,1.6,0.3,2.2,0.9c0.3,0.3,0.5,0.6,0.7,1.1c0.2,0.4,0.3,0.9,0.5,1.4
		c0.2,0.7,0.3,1.4,0.4,2c0.1,0.6,0.1,1.2,0.1,1.8c0,0.6,0,1.1-0.1,1.7c-0.1,0.5-0.2,1.1-0.4,1.6c-0.2,0.6-0.4,1.1-0.6,1.5
		c-0.2,0.4-0.4,0.8-0.7,1.1c-0.3,0.3-0.5,0.5-0.9,0.7c-0.3,0.2-0.7,0.2-1.2,0.2h-3.6h-7.1h-0.3v0.3v0.9v0.3h0.3h6.8v2.4
		c0,0.4-0.1,0.9-0.3,1.2c-0.2,0.3-0.4,0.7-0.7,0.9c-0.6,0.5-1.4,0.9-2.4,1.2c-1.2,0.4-2.4,0.5-3.5,0.5c-0.6,0-1.2,0-1.7-0.1
		c-0.6-0.1-1.1-0.2-1.7-0.4c-0.5-0.1-0.9-0.3-1.3-0.5c-0.4-0.2-0.8-0.5-1.1-0.7c-0.3-0.3-0.6-0.6-0.7-0.9c-0.2-0.4-0.3-0.8-0.3-1.2
		V19c0-0.4,0.1-0.9,0.3-1.3c0.2-0.4,0.4-0.8,0.7-1.1c0.3-0.3,0.7-0.6,1-0.7c0.4-0.2,0.8-0.3,1.3-0.3h7.1c2.6,0,4.8-2.2,4.8-4.8V7.9
		L25.8,7.9 M19.1,27.9c0.9,0,1.6-0.7,1.6-1.7c0-0.9-0.7-1.7-1.6-1.7s-1.6,0.7-1.6,1.7C17.4,27.2,18.2,27.9,19.1,27.9 M25.8,7.6
		l-2.7,0v3.2c0,2.5-2.1,4.5-4.5,4.5h-7.1c-2,0-3.6,1.7-3.6,3.6v6.8c0,1.9,1.7,3.1,3.6,3.6c1.2,0.3,2.3,0.5,3.6,0.5
		c1.1,0,2.3-0.2,3.6-0.5c1.8-0.5,3.6-1.6,3.6-3.6v-2.7h-7.1v-0.9h7.1h3.6c2.1,0,2.9-1.5,3.6-3.6c0.7-2.2,0.7-4.4,0-7.3
		C28.9,9.2,27.9,7.6,25.8,7.6L25.8,7.6z M19.1,27.6c-0.7,0-1.3-0.6-1.3-1.4c0-0.8,0.6-1.4,1.3-1.4c0.7,0,1.3,0.6,1.3,1.4
		C20.4,27,19.8,27.6,19.1,27.6L19.1,27.6z"/>
</g>
</svg>
