<?xml version="1.0" encoding="utf-8"?>
<!-- Generator: Adobe Illustrator 25.2.1, SVG Export Plug-In . SVG Version: 6.00 Build 0)  -->
<svg version="1.1" id="Capa_1" xmlns="http://www.w3.org/2000/svg" xmlns:xlink="http://www.w3.org/1999/xlink" x="0px" y="0px"
	 viewBox="0 0 50 50" style="enable-background:new 0 0 50 50;" xml:space="preserve">
<style type="text/css">
	.st0{fill:#003E52;}
</style>
<path id="path1948" class="st0" d="M24.8,0c-2,0-4,0.2-5.7,0.5c-5,0.9-6,2.8-6,6.2v4.5H25v1.5H13.1H8.6c-3.5,0-6.5,2.1-7.5,6
	c-1.1,4.5-1.1,7.4,0,12.1c0.8,3.5,2.9,6,6.3,6h4.1v-5.4c0-3.9,3.4-7.4,7.5-7.4H31c3.3,0,6-2.7,6-6.1V6.7c0-3.2-2.7-5.7-6-6.2
	C29,0.1,26.8,0,24.8,0z M18.3,3.6c1.2,0,2.2,1,2.2,2.3c0,1.3-1,2.3-2.2,2.3c-1.2,0-2.2-1-2.2-2.3C16.1,4.7,17.1,3.6,18.3,3.6z"/>
<g id="path1950">
	<path class="st0" d="M42.9,13.2L42.9,13.2c1.5,0,2.7,0.5,3.6,1.6c0.4,0.5,0.8,1.1,1.1,1.8c0.3,0.7,0.6,1.4,0.8,2.3
		c0.3,1.2,0.5,2.3,0.7,3.3c0.2,1.1,0.2,2,0.2,3c0,1-0.1,1.9-0.2,2.8c-0.1,0.9-0.4,1.8-0.7,2.7c-0.3,1-0.6,1.8-0.9,2.4
		c-0.3,0.7-0.7,1.3-1.1,1.8c-0.4,0.5-0.9,0.9-1.4,1.1c-0.6,0.3-1.2,0.4-2,0.4h-6H25.1h-0.5V37v1.5V39h0.5h11.4v4
		c0,0.7-0.2,1.4-0.5,2.1c-0.3,0.6-0.7,1.1-1.2,1.6c-0.9,0.8-2.3,1.5-3.9,2c-2.1,0.6-4,0.9-5.9,0.9c-1,0-1.9-0.1-2.9-0.2
		c-0.9-0.1-1.9-0.4-2.9-0.7c-0.8-0.2-1.5-0.5-2.2-0.8c-0.7-0.4-1.3-0.8-1.8-1.2c-0.5-0.5-0.9-1-1.2-1.6c-0.3-0.6-0.4-1.3-0.4-2V31.7
		c0-0.7,0.1-1.4,0.4-2.1c0.3-0.7,0.7-1.3,1.2-1.8c0.5-0.5,1.1-0.9,1.7-1.2c0.7-0.3,1.4-0.4,2.1-0.4H31c4.3,0,8-3.7,8-8.1v-4.8
		L42.9,13.2 M31.8,46.6c1.5,0,2.7-1.2,2.7-2.8c0-1.5-1.2-2.8-2.7-2.8c-1.5,0-2.7,1.2-2.7,2.8C29,45.3,30.2,46.6,31.8,46.6
		 M42.9,12.7l-4.5,0V18c0,4.1-3.5,7.6-7.5,7.6H19.1c-3.3,0-6,2.8-6,6.1V43c0,3.2,2.8,5.1,6,6.1c2,0.6,3.9,0.9,5.9,0.9
		c1.9,0,3.8-0.3,6-0.9c3-0.9,6-2.6,6-6.1v-4.5H25.1V37H37h6c3.5,0,4.8-2.4,6-6c1.2-3.7,1.2-7.3,0-12.1C48,15.3,46.4,12.7,42.9,12.7
		L42.9,12.7z M31.8,46.1c-1.2,0-2.2-1-2.2-2.3c0-1.3,1-2.3,2.2-2.3c1.2,0,2.2,1,2.2,2.3C34,45,33,46.1,31.8,46.1L31.8,46.1z"/>
</g>
</svg>
