<?xml version="1.0" encoding="utf-8"?>
<!-- Generator: Adobe Illustrator 25.2.1, SVG Export Plug-In . SVG Version: 6.00 Build 0)  -->
<svg version="1.1" id="Capa_1" xmlns="http://www.w3.org/2000/svg" xmlns:xlink="http://www.w3.org/1999/xlink" x="0px" y="0px"
	 viewBox="0 0 30 30" style="enable-background:new 0 0 30 30;" xml:space="preserve">
<style type="text/css">
	.st0{fill:#003E52;}
</style>
<circle class="st0" cx="15" cy="15" r="2.7"/>
<path class="st0" d="M15,21c-2,0-3.9-0.1-5.7-0.4c-1.8-0.3-3.3-0.7-4.7-1.2c-1.4-0.5-2.5-1.2-3.3-1.9c-0.4-0.4-0.7-0.8-1-1.2
	C0.1,15.9,0,15.5,0,15c0-0.5,0.1-0.9,0.4-1.4c0.2-0.4,0.5-0.8,1-1.2c0.8-0.7,1.9-1.3,3.3-1.9c1.4-0.5,2.9-0.9,4.7-1.2
	C11.1,9.1,13,9,15,9s3.9,0.1,5.7,0.4c1.8,0.3,3.3,0.7,4.7,1.2c1.4,0.5,2.5,1.2,3.3,1.9c0.4,0.4,0.7,0.8,1,1.2
	c0.2,0.4,0.4,0.9,0.4,1.4c0,0.5-0.1,0.9-0.4,1.4c-0.2,0.4-0.5,0.8-1,1.2c-0.8,0.7-1.9,1.3-3.3,1.9c-1.4,0.5-2.9,0.9-4.7,1.2
	C18.9,20.9,17,21,15,21z M15,10c-3.8,0-7.4,0.6-10.1,1.6C2.4,12.5,1,13.8,1,15s1.4,2.5,3.9,3.4c2.7,1,6.3,1.6,10.1,1.6
	s7.4-0.6,10.1-1.6c2.5-1,3.9-2.2,3.9-3.4s-1.4-2.5-3.9-3.4C22.4,10.5,18.8,10,15,10z"/>
<path class="st0" d="M21,28.4c-0.4,0-0.9-0.1-1.4-0.2c-1-0.3-2.1-1-3.2-1.9c-1.1-0.9-2.3-2.1-3.4-3.5c-1.2-1.4-2.3-3-3.2-4.7
	c-1-1.7-1.8-3.5-2.5-5.2C6.6,11.2,6.2,9.6,6,8.2c-0.2-1.5-0.2-2.7,0-3.8c0.1-0.5,0.3-1,0.5-1.4c0.3-0.4,0.6-0.8,1-1s0.9-0.4,1.3-0.4
	c0.5,0,1,0.1,1.5,0.2c1,0.3,2.1,1,3.2,1.9c1.1,0.9,2.3,2.1,3.4,3.5c1.2,1.4,2.3,3,3.2,4.7c1,1.7,1.8,3.5,2.5,5.2
	c0.6,1.7,1.1,3.2,1.3,4.7c0.2,1.5,0.2,2.7,0,3.8c-0.1,0.5-0.3,1-0.5,1.4c-0.3,0.4-0.6,0.8-1,1s-0.9,0.4-1.3,0.4
	C21.1,28.4,21.1,28.4,21,28.4z M8.9,2.6c-0.4,0-0.7,0.1-1,0.2C6.9,3.5,6.5,5.4,7,8c0.5,2.8,1.8,6.2,3.7,9.5c1.9,3.3,4.2,6.1,6.4,7.9
	c1.5,1.3,2.9,1.9,4,1.9c0.4,0,0.7-0.1,1-0.2c1.1-0.6,1.4-2.5,1-5.1c-0.5-2.8-1.8-6.2-3.7-9.5c-1.9-3.3-4.2-6.1-6.4-7.9
	C11.4,3.3,10,2.6,8.9,2.6z"/>
<path class="st0" d="M8.9,28.4c0,0-0.1,0-0.1,0c-0.5,0-1-0.1-1.3-0.4c-0.4-0.2-0.7-0.6-1-1c-0.2-0.4-0.4-0.9-0.5-1.4
	c-0.2-1-0.2-2.3,0-3.8c0.2-1.4,0.7-3,1.3-4.7c0.7-1.7,1.5-3.5,2.5-5.2l0.4,0.3L9.8,12c1-1.7,2.1-3.3,3.2-4.7
	c1.1-1.4,2.3-2.5,3.4-3.5c1.2-0.9,2.2-1.6,3.2-1.9c0.5-0.2,1-0.3,1.5-0.2c0.5,0,1,0.1,1.3,0.4s0.7,0.6,1,1c0.2,0.4,0.4,0.9,0.5,1.4
	c0.2,1,0.2,2.3,0,3.8c-0.2,1.4-0.7,3-1.3,4.7c-0.7,1.7-1.5,3.5-2.5,5.2c-1,1.7-2.1,3.3-3.2,4.7c-1.1,1.4-2.3,2.5-3.4,3.5
	c-1.2,0.9-2.2,1.6-3.2,1.9C9.8,28.3,9.4,28.4,8.9,28.4z M21,2.6c-1.1,0-2.4,0.7-4,1.9c-2.2,1.8-4.5,4.6-6.4,7.9
	C8.7,15.8,7.4,19.2,7,22c-0.4,2.6,0,4.5,1,5.1c0.3,0.2,0.6,0.2,1,0.2c1.1,0,2.4-0.7,4-1.9c2.2-1.8,4.5-4.6,6.4-7.9
	c1.9-3.3,3.2-6.7,3.7-9.5c0.4-2.6,0-4.5-1-5.1C21.7,2.7,21.4,2.6,21,2.6z"/>
</svg>
