<?xml version="1.0" encoding="utf-8"?>
<!-- Generator: Adobe Illustrator 25.2.1, SVG Export Plug-In . SVG Version: 6.00 Build 0)  -->
<svg version="1.1" id="Capa_1" xmlns="http://www.w3.org/2000/svg" xmlns:xlink="http://www.w3.org/1999/xlink" x="0px" y="0px"
	 viewBox="0 0 50 50" style="enable-background:new 0 0 50 50;" xml:space="preserve">
<style type="text/css">
	.st0{fill:#003E52;}
</style>
<circle class="st0" cx="25" cy="25" r="4.5"/>
<path class="st0" d="M25,35.1c-3.3,0-6.5-0.2-9.5-0.7c-2.9-0.5-5.6-1.2-7.8-2c-2.3-0.9-4.1-1.9-5.4-3.1c-0.7-0.6-1.2-1.3-1.6-2
	C0.2,26.5,0,25.8,0,25s0.2-1.5,0.6-2.3c0.4-0.7,0.9-1.3,1.6-2c1.3-1.2,3.1-2.2,5.4-3.1c2.3-0.9,4.9-1.5,7.8-2c3-0.5,6.2-0.7,9.5-0.7
	s6.5,0.2,9.5,0.7c2.9,0.5,5.6,1.2,7.8,2c2.3,0.9,4.1,1.9,5.4,3.1c0.7,0.6,1.2,1.3,1.6,2c0.4,0.7,0.6,1.5,0.6,2.3s-0.2,1.5-0.6,2.3
	c-0.4,0.7-0.9,1.3-1.6,2c-1.3,1.2-3.1,2.2-5.4,3.1c-2.3,0.9-4.9,1.5-7.8,2C31.5,34.8,28.3,35.1,25,35.1z M25,16.6
	c-6.4,0-12.3,0.9-16.8,2.6C4,20.8,1.7,22.9,1.7,25s2.4,4.2,6.5,5.7c4.5,1.7,10.4,2.6,16.8,2.6s12.3-0.9,16.8-2.6
	c4.2-1.6,6.5-3.7,6.5-5.7s-2.4-4.2-6.5-5.7C37.3,17.6,31.3,16.6,25,16.6z"/>
<path class="st0" d="M35.1,47.3c-0.7,0-1.5-0.1-2.3-0.4c-1.7-0.5-3.5-1.6-5.4-3.2c-1.9-1.5-3.8-3.5-5.7-5.8c-1.9-2.4-3.8-5-5.4-7.9
	c-1.7-2.9-3-5.8-4.1-8.6c-1.1-2.8-1.8-5.4-2.2-7.8c-0.4-2.4-0.4-4.6,0-6.3c0.2-0.9,0.5-1.7,0.9-2.4c0.4-0.7,1-1.3,1.7-1.6
	s1.4-0.6,2.2-0.6c0.8,0,1.6,0.1,2.5,0.4c1.7,0.5,3.5,1.6,5.4,3.2c1.9,1.5,3.8,3.5,5.7,5.8c1.9,2.4,3.8,5,5.4,7.9
	c1.7,2.9,3,5.8,4.1,8.6c1.1,2.8,1.8,5.4,2.2,7.8c0.4,2.4,0.4,4.6,0,6.3c-0.2,0.9-0.5,1.7-0.9,2.4c-0.4,0.7-1,1.3-1.7,1.6
	c-0.7,0.4-1.4,0.6-2.2,0.6C35.2,47.3,35.1,47.3,35.1,47.3z M14.9,4.4c-0.6,0-1.1,0.1-1.6,0.4c-1.8,1-2.4,4.1-1.7,8.5
	c0.8,4.7,2.9,10.4,6.1,15.9c3.2,5.5,7,10.2,10.7,13.2c2.6,2.1,4.9,3.2,6.6,3.2c0.6,0,1.1-0.1,1.6-0.4c1.8-1,2.4-4.1,1.7-8.5
	c-0.8-4.7-2.9-10.4-6.1-15.9c-3.2-5.5-7-10.2-10.7-13.2C19,5.5,16.7,4.4,14.9,4.4z"/>
<path class="st0" d="M14.9,47.3c-0.1,0-0.1,0-0.2,0c-0.8,0-1.6-0.2-2.2-0.6c-0.7-0.4-1.2-0.9-1.7-1.6c-0.4-0.7-0.7-1.4-0.9-2.4
	c-0.4-1.7-0.4-3.8,0-6.3c0.4-2.4,1.1-5,2.2-7.8c1.1-2.9,2.5-5.8,4.1-8.6l0.7,0.4L16.3,20c1.7-2.9,3.5-5.5,5.4-7.9
	c1.9-2.3,3.8-4.2,5.7-5.8c1.9-1.6,3.7-2.6,5.4-3.2c0.9-0.3,1.7-0.4,2.5-0.4c0.8,0,1.6,0.2,2.2,0.6s1.2,0.9,1.7,1.6
	c0.4,0.7,0.7,1.4,0.9,2.4c0.4,1.7,0.4,3.8,0,6.3c-0.4,2.4-1.1,5-2.2,7.8c-1.1,2.9-2.5,5.8-4.1,8.6c-1.7,2.9-3.5,5.5-5.4,7.9
	c-1.9,2.3-3.8,4.2-5.7,5.8c-1.9,1.6-3.7,2.6-5.4,3.2C16.4,47.1,15.6,47.3,14.9,47.3z M35,4.4c-1.8,0-4.1,1.1-6.6,3.2
	c-3.7,3-7.5,7.7-10.7,13.2c-3.2,5.5-5.3,11.1-6.1,15.9c-0.7,4.4-0.1,7.5,1.7,8.5c0.5,0.3,1,0.4,1.6,0.4c1.8,0,4.1-1.1,6.6-3.2
	c3.7-3,7.5-7.7,10.7-13.2c3.2-5.5,5.3-11.1,6.1-15.9c0.7-4.4,0.1-7.5-1.7-8.5C36.2,4.5,35.7,4.4,35,4.4z"/>
</svg>
