<?xml version="1.0" encoding="utf-8"?>
<!-- Generator: Adobe Illustrator 25.2.1, SVG Export Plug-In . SVG Version: 6.00 Build 0)  -->
<svg version="1.1" id="Capa_1" xmlns="http://www.w3.org/2000/svg" xmlns:xlink="http://www.w3.org/1999/xlink" x="0px" y="0px"
	 viewBox="0 0 50 50" style="enable-background:new 0 0 50 50;" xml:space="preserve">
<style type="text/css">
	.st0{fill:#003E52;}
	.st1{fill:none;}
</style>
<g>
	<path class="st0" d="M39.6,1c0.1,0,0.1-0.1,0.2-0.1C39.7,1,39.6,1,39.6,1z"/>
	<path class="st0" d="M40.1,0.7C40.2,0.7,40.2,0.7,40.1,0.7C40.2,0.7,40.2,0.7,40.1,0.7z"/>
	<path class="st0" d="M39.4,1.1C39.4,1.1,39.4,1.1,39.4,1.1C39.4,1.1,39.4,1.1,39.4,1.1z"/>
	<path class="st0" d="M39.5,1.1C39.5,1,39.5,1,39.5,1.1C39.5,1,39.5,1,39.5,1.1z"/>
	<path class="st0" d="M39.8,0.8C39.9,0.8,39.9,0.8,39.8,0.8C39.9,0.8,39.9,0.8,39.8,0.8z"/>
	<path class="st0" d="M39.9,0.8c0.1,0,0.1-0.1,0.2-0.1C40,0.7,40,0.8,39.9,0.8z"/>
	<path class="st0" d="M40.1,0.7C40.1,0.7,40.1,0.7,40.1,0.7C40.1,0.7,40.1,0.7,40.1,0.7z"/>
	<path class="st0" d="M39.8,0.9C39.8,0.9,39.8,0.9,39.8,0.9C39.8,0.9,39.8,0.9,39.8,0.9z"/>
	<path class="st0" d="M39.4,1.1C39.4,1.1,39.4,1.1,39.4,1.1C39.4,1.1,39.4,1.1,39.4,1.1z"/>
	<path class="st0" d="M39.7,0.9C39.7,0.9,39.7,0.9,39.7,0.9C39.7,0.9,39.7,0.9,39.7,0.9z"/>
	<path class="st0" d="M38.8,1.5C38.8,1.5,38.9,1.5,38.8,1.5C38.9,1.5,38.8,1.5,38.8,1.5z"/>
	<path class="st0" d="M38.8,1.6C38.8,1.6,38.8,1.5,38.8,1.6C38.8,1.5,38.8,1.6,38.8,1.6z"/>
	<path class="st0" d="M38.9,1.5C38.9,1.5,38.9,1.4,38.9,1.5C38.9,1.4,38.9,1.5,38.9,1.5z"/>
	<path class="st0" d="M38.7,1.6C38.7,1.6,38.7,1.6,38.7,1.6C38.7,1.6,38.7,1.6,38.7,1.6z"/>
	<path class="st0" d="M38.6,1.7C38.6,1.7,38.6,1.7,38.6,1.7C38.6,1.7,38.6,1.7,38.6,1.7z"/>
	<path class="st0" d="M39.2,1.3C39.2,1.2,39.2,1.2,39.2,1.3C39.2,1.2,39.2,1.2,39.2,1.3z"/>
	<path class="st0" d="M39,1.4C39,1.4,39,1.4,39,1.4C39,1.4,39,1.4,39,1.4z"/>
	<path class="st0" d="M39.3,1.2C39.3,1.2,39.3,1.2,39.3,1.2C39.3,1.2,39.3,1.2,39.3,1.2z"/>
	<path class="st0" d="M39.1,1.3C39.1,1.3,39.2,1.3,39.1,1.3C39.2,1.3,39.1,1.3,39.1,1.3z"/>
	<path class="st0" d="M39.1,1.3C39.1,1.3,39.1,1.3,39.1,1.3C39.1,1.3,39.1,1.3,39.1,1.3z"/>
	<path class="st0" d="M41.4,0.2C41.4,0.2,41.4,0.2,41.4,0.2C41.4,0.2,41.4,0.2,41.4,0.2z"/>
	<path class="st0" d="M41.7,0.1C41.7,0.1,41.7,0.1,41.7,0.1C41.7,0.1,41.7,0.1,41.7,0.1z"/>
	<path class="st0" d="M41.5,0.1C41.5,0.1,41.5,0.1,41.5,0.1C41.5,0.1,41.5,0.1,41.5,0.1z"/>
	<path class="st0" d="M41.6,0.1C41.6,0.1,41.6,0.1,41.6,0.1C41.6,0.1,41.6,0.1,41.6,0.1z"/>
	<path class="st0" d="M42,0C42,0,42,0,42,0C42,0,42,0,42,0z"/>
	<path class="st0" d="M41.9,0.1C41.9,0.1,41.9,0.1,41.9,0.1C41.9,0.1,41.9,0.1,41.9,0.1z"/>
	<path class="st0" d="M41.9,0.1C41.9,0.1,42,0.1,41.9,0.1C42,0.1,41.9,0.1,41.9,0.1z"/>
	<path class="st0" d="M41.7,0.1C41.7,0.1,41.8,0.1,41.7,0.1C41.8,0.1,41.7,0.1,41.7,0.1z"/>
	<path class="st0" d="M38.5,1.7C38.5,1.7,38.6,1.7,38.5,1.7C38.6,1.7,38.5,1.7,38.5,1.7z"/>
	<path class="st0" d="M41.8,0.1C41.8,0.1,41.8,0.1,41.8,0.1C41.8,0.1,41.8,0.1,41.8,0.1z"/>
	<path class="st0" d="M40.4,0.5C40.5,0.5,40.5,0.5,40.4,0.5C40.5,0.5,40.5,0.5,40.4,0.5z"/>
	<path class="st0" d="M41.2,0.2c0.1,0,0.1,0,0.2,0C41.3,0.2,41.3,0.2,41.2,0.2z"/>
	<path class="st0" d="M40.5,0.5C40.5,0.5,40.5,0.5,40.5,0.5C40.5,0.5,40.5,0.5,40.5,0.5z"/>
	<path class="st0" d="M40.6,0.5c0.1,0,0.1,0,0.2-0.1C40.7,0.4,40.6,0.5,40.6,0.5z"/>
	<path class="st0" d="M40.2,0.6c0.1,0,0.1-0.1,0.2-0.1C40.3,0.6,40.3,0.6,40.2,0.6z"/>
	<path class="st0" d="M40.7,0.4C40.7,0.4,40.8,0.4,40.7,0.4C40.8,0.4,40.7,0.4,40.7,0.4z"/>
	<path class="st0" d="M40.8,0.4C40.8,0.4,40.8,0.4,40.8,0.4C40.8,0.4,40.8,0.4,40.8,0.4z"/>
	<path class="st0" d="M41.1,0.3C41.1,0.3,41.1,0.3,41.1,0.3C41.1,0.3,41.1,0.3,41.1,0.3z"/>
	<path class="st0" d="M41.1,0.2C41.2,0.2,41.2,0.2,41.1,0.2C41.2,0.2,41.2,0.2,41.1,0.2z"/>
	<path class="st0" d="M40.9,0.4c0.1,0,0.1-0.1,0.2-0.1C41,0.3,40.9,0.3,40.9,0.4z"/>
	<path class="st0" d="M41.4,0.2C41.5,0.2,41.5,0.2,41.4,0.2C41.5,0.2,41.5,0.2,41.4,0.2z"/>
	<path class="st0" d="M44.2,0.4C44.2,0.4,44.2,0.4,44.2,0.4C44.2,0.4,44.2,0.4,44.2,0.4z"/>
	<path class="st0" d="M44.1,0.3C44.1,0.3,44.1,0.3,44.1,0.3C44.1,0.3,44.1,0.3,44.1,0.3z"/>
	<path class="st0" d="M43.6,0.2C43.6,0.2,43.6,0.2,43.6,0.2C43.6,0.2,43.6,0.2,43.6,0.2z"/>
	<path class="st0" d="M43.9,0.2C43.9,0.2,43.9,0.2,43.9,0.2C43.9,0.2,43.9,0.2,43.9,0.2z"/>
	<path class="st0" d="M44.3,0.4C44.3,0.4,44.3,0.4,44.3,0.4C44.3,0.4,44.3,0.4,44.3,0.4z"/>
	<path class="st0" d="M43.7,0.2C43.7,0.2,43.7,0.2,43.7,0.2C43.7,0.2,43.7,0.2,43.7,0.2z"/>
	<path class="st0" d="M44.4,0.5C44.4,0.5,44.4,0.5,44.4,0.5C44.4,0.5,44.4,0.5,44.4,0.5z"/>
	<path class="st0" d="M44.8,0.7C44.8,0.7,44.8,0.7,44.8,0.7C44.8,0.7,44.8,0.7,44.8,0.7z"/>
	<path class="st0" d="M44.9,0.8C44.9,0.8,44.9,0.8,44.9,0.8C44.9,0.8,44.9,0.8,44.9,0.8z"/>
	<path class="st0" d="M44.5,0.5C44.5,0.5,44.5,0.5,44.5,0.5C44.5,0.5,44.5,0.5,44.5,0.5z"/>
	<path class="st0" d="M44.7,0.7C44.7,0.7,44.7,0.7,44.7,0.7C44.7,0.7,44.7,0.7,44.7,0.7z"/>
	<path class="st0" d="M42.9,0C42.9,0,42.9,0,42.9,0C42.9,0,42.9,0,42.9,0z"/>
	<path class="st0" d="M42.9,0C42.9,0,42.9,0,42.9,0C42.9,0,42.9,0,42.9,0z"/>
	<path class="st0" d="M38.5,1.8C38.5,1.8,38.5,1.8,38.5,1.8C38.5,1.8,38.5,1.8,38.5,1.8z"/>
	<path class="st0" d="M42.7,0C42.7,0,42.7,0,42.7,0C42.7,0,42.7,0,42.7,0z"/>
	<path class="st0" d="M43.5,0.1C43.5,0.1,43.5,0.1,43.5,0.1C43.5,0.1,43.5,0.1,43.5,0.1z"/>
	<path class="st0" d="M43,0C43,0,43,0,43,0C43,0,43,0,43,0z"/>
	<path class="st0" d="M43.6,0.1L43.6,0.1C43.6,0.1,43.6,0.1,43.6,0.1z"/>
	<path class="st0" d="M43.3,0.1C43.3,0.1,43.3,0.1,43.3,0.1C43.3,0.1,43.3,0.1,43.3,0.1z"/>
	<path class="st0" d="M43.1,0C43.1,0,43.1,0,43.1,0C43.1,0,43.1,0,43.1,0z"/>
	<path class="st0" d="M42.8,0C42.8,0,42.8,0,42.8,0C42.8,0,42.8,0,42.8,0z"/>
	<path class="st0" d="M33.8,32.6c-0.1,0-0.1,0.1-0.2,0.1C33.6,32.7,33.7,32.6,33.8,32.6z"/>
	<path class="st0" d="M33.3,32.9C33.3,32.9,33.3,32.9,33.3,32.9C33.3,32.9,33.3,32.9,33.3,32.9z"/>
	<path class="st0" d="M38,2.2C38,2.1,38.1,2.1,38,2.2C38.1,2.1,38,2.1,38,2.2z"/>
	<path class="st0" d="M33.4,32.8C33.4,32.8,33.4,32.8,33.4,32.8C33.4,32.8,33.4,32.8,33.4,32.8z"/>
	<path class="st0" d="M45,0.8C45,0.8,45,0.8,45,0.8C45,0.8,45,0.8,45,0.8z"/>
	<path class="st0" d="M38.3,1.9C38.3,1.9,38.3,1.9,38.3,1.9C38.3,1.9,38.3,1.9,38.3,1.9z"/>
	<path class="st0" d="M38.4,1.8C38.4,1.8,38.4,1.8,38.4,1.8C38.4,1.8,38.4,1.8,38.4,1.8z"/>
	<path class="st0" d="M38.3,2C38.3,2,38.3,2,38.3,2C38.3,2,38.3,2,38.3,2z"/>
	<path class="st0" d="M38.2,2C38.2,2,38.2,2,38.2,2C38.2,2,38.2,2,38.2,2z"/>
	<path class="st0" d="M38.1,2.1C38.1,2.1,38.1,2.1,38.1,2.1C38.1,2.1,38.1,2.1,38.1,2.1z"/>
	<path class="st0" d="M45.1,0.9C45.1,0.9,45.1,1,45.1,0.9C45.1,1,45.1,0.9,45.1,0.9z"/>
	<path class="st0" d="M45.2,1C45.2,1,45.2,1,45.2,1C45.2,1,45.2,1,45.2,1z"/>
	<path class="st0" d="M45,0.9C45,0.9,45,0.9,45,0.9C45,0.9,45,0.9,45,0.9z"/>
	<path class="st0" d="M47.3,4.7C47.3,4.7,47.3,4.7,47.3,4.7C47.3,4.7,47.3,4.7,47.3,4.7z"/>
	<path class="st0" d="M47.5,6.2c0,0.1,0,0.2,0,0.4C47.5,6.5,47.5,6.3,47.5,6.2z"/>
	<path class="st0" d="M47.4,5.2c0,0.1,0,0.1,0,0.2C47.4,5.3,47.4,5.3,47.4,5.2z"/>
	<path class="st0" d="M40.5,23.9L40.5,23.9c-1.5,0.5-3.1,1.2-4.4,1.9C37.5,25.1,39.1,24.4,40.5,23.9z"/>
	<path class="st0" d="M34.8,32.1L34.8,32.1c0,0-0.4,0.2-1,0.5C34.4,32.2,34.8,32.1,34.8,32.1z"/>
	<path class="st0" d="M47.5,6C47.5,6,47.5,6,47.5,6C47.5,6,47.5,6,47.5,6z"/>
	<path class="st0" d="M44.6,0.6C44.6,0.6,44.6,0.6,44.6,0.6C44.6,0.6,44.6,0.6,44.6,0.6z"/>
	<polygon class="st0" points="45.3,1.1 45.3,1.1 45.3,1.1 45.3,1.1 45.3,1.1 	"/>
	<path class="st0" d="M42.4,0C42.4,0,42.5,0,42.4,0C42.5,0,42.4,0,42.4,0z"/>
	<path class="st0" d="M42.5,0C42.5,0,42.5,0,42.5,0C42.5,0,42.5,0,42.5,0z"/>
	<path class="st0" d="M42.4,0C42.4,0,42.4,0,42.4,0C42.4,0,42.4,0,42.4,0z"/>
	<path class="st0" d="M42.6,0C42.6,0,42.6,0,42.6,0L42.6,0C42.6,0,42.6,0,42.6,0z"/>
	<path class="st0" d="M42.3,0C42.3,0,42.3,0,42.3,0C42.3,0,42.3,0,42.3,0z"/>
	<path class="st0" d="M27.3,44.4L27.3,44.4c0,0,0,0.1,0,0.1c0.2,2,0.5,3.8,0.8,5c-0.4-1.2-0.7-2.9-0.8-5
		C27.3,44.4,27.3,44.4,27.3,44.4z"/>
	<path class="st0" d="M28.6,49.8L28.6,49.8c-0.6-1.9-0.9-4.2-0.9-6.9C27.7,45.6,28,48,28.6,49.8z"/>
	<path class="st0" d="M33,27.5c0,0,1.3-0.8,3.1-1.7C34.3,26.7,33,27.5,33,27.5L33,27.5z"/>
	<path class="st0" d="M44.4,3.5L44.4,3.5c-4.1,3.7-9.8,15.9-11.4,20.4c-1.9,5-3.2,9.7-4,14.3l0,0c0.8-4.5,2.1-9.2,4-14.3
		C34.6,19.4,40.2,7.3,44.4,3.5z"/>
	<path class="st0" d="M42.2,0C42.2,0,42.2,0,42.2,0C42.2,0,42.2,0,42.2,0z"/>
	<path class="st0" d="M42.1,0C42.1,0,42.1,0,42.1,0C42.1,0,42.1,0,42.1,0z"/>
	<path class="st0" d="M42.2,0C42.2,0,42.2,0,42.2,0C42.2,0,42.2,0,42.2,0z"/>
	<path class="st1" d="M25.2,33.1c0,0,0-0.1-0.1-0.2c-6.5,0.4-15,2.4-20.8,4.5V6c0-1.3,1-2.3,2.3-2.3h28.7c0,0,0.1-0.1,0.1-0.1
		c0.2-0.2,0.4-0.5,0.6-0.7H6.7C4.9,2.9,3.5,4.3,3.5,6v32.6c5.9-2.3,14.5-4.5,21.9-4.9c0-0.1-0.1-0.2-0.1-0.3
		C25.3,33.3,25.2,33.2,25.2,33.1z"/>
	<path class="st0" d="M36.7,3.5c-0.1,0.1-0.1,0.1-0.2,0.2C36.5,3.7,36.6,3.6,36.7,3.5z"/>
	<path class="st0" d="M36.1,4.1c0,0,0.1-0.1,0.1-0.1C36.2,4,36.1,4.1,36.1,4.1L36.1,4.1z"/>
	<path class="st0" d="M36.5,3.7c0,0-0.1,0.1-0.1,0.1C36.4,3.8,36.4,3.8,36.5,3.7z"/>
	<path class="st0" d="M27.2,43.7c0,0.2,0,0.4,0,0.6l0,0l0,0C27.2,44.2,27.2,44,27.2,43.7z"/>
	<path class="st0" d="M27.1,39.5c0,0.4,0,0.8,0,1.2C27.1,40.3,27.1,39.9,27.1,39.5z"/>
	<path class="st0" d="M27.1,38.3c-0.1-0.8-0.2-1.5-0.4-2.3C26.9,36.8,27,37.5,27.1,38.3l0,0.5l0,0L27.1,38.3z"/>
	<path class="st0" d="M27.1,39.5c0-0.2,0-0.4,0-0.7C27.1,39,27.1,39.2,27.1,39.5z"/>
	<path class="st0" d="M26.3,38.8l0-0.4c-0.2-1.5-0.5-3-0.9-4.5c0-0.1,0-0.1,0-0.2C18,34.2,9.4,36.4,3.5,38.7V6
		c0-1.7,1.4-3.1,3.1-3.1h29.4c0.1-0.1,0.1-0.1,0.2-0.2l0,0l0,0l0.4-0.4l0.1-0.1c-5.7,0-30.1,0-30.1,0C4.6,2.2,2.8,3.9,2.8,6
		C4.6,50.2-6,44.1,26.4,44.4C26.3,42.5,26.2,40.6,26.3,38.8z"/>
	<path class="st0" d="M25.3,30.8c0.2,0.5,0.5,1.2,0.7,2C25.8,32.1,25.5,31.3,25.3,30.8z"/>
	<path class="st0" d="M28.8,17.2c0,0.1-0.1,0.2-0.1,0.3C28.8,17.4,28.8,17.3,28.8,17.2z"/>
	<path class="st0" d="M28.6,18c0,0.1-0.1,0.2-0.1,0.3C28.5,18.2,28.5,18.1,28.6,18z"/>
	<path class="st0" d="M28.7,17.7c0,0,0,0.1,0,0.1C28.6,17.8,28.6,17.8,28.7,17.7z"/>
	<path class="st0" d="M30.3,13.6c0,0.1-0.1,0.2-0.1,0.3C30.2,13.8,30.3,13.7,30.3,13.6z"/>
	<path class="st0" d="M31.1,11.9c0,0.1-0.1,0.2-0.1,0.2C31,12.1,31.1,12,31.1,11.9z"/>
	<path class="st0" d="M28.3,27c0-0.1,0-0.1-0.1-0.2c-0.3-0.7-1.1-2.1-1.4-2.7c-0.1,0.4-0.3,0.9-0.4,1.3c0.1-0.4,0.3-0.9,0.4-1.3
		c0.4,0.6,1.1,2,1.4,2.7C28.2,26.9,28.3,27,28.3,27l0.1,0.3c0.2,0.5,0.2,0.6,0.2,0.6l0,0c0,0,0-0.2-0.2-0.6L28.3,27z"/>
	<path class="st0" d="M31.3,11.6c0,0.1-0.1,0.2-0.1,0.2C31.2,11.7,31.3,11.6,31.3,11.6z"/>
	<path class="st0" d="M36.1,4.1c-1.7,2-3.3,4.5-4.7,7.2C32.8,8.6,34.4,6.1,36.1,4.1L36.1,4.1L36.1,4.1z"/>
	<path class="st0" d="M30.6,13c0,0.1-0.1,0.1-0.1,0.2C30.5,13.2,30.6,13.1,30.6,13z"/>
	<path class="st0" d="M29.2,16.2c-0.1,0.2-0.1,0.3-0.2,0.5C29.1,16.5,29.2,16.3,29.2,16.2z"/>
	<path class="st0" d="M27.1,23.2C27.1,23.2,27.1,23.2,27.1,23.2c0.3-1.5,0.7-3.1,1.3-4.7C27.8,20.1,27.4,21.7,27.1,23.2
		C27.1,23.2,27.1,23.2,27.1,23.2z"/>
	<path class="st0" d="M27.3,23.7c0,0.1,0.1,0.2,0.1,0.3C27.4,23.8,27.4,23.8,27.3,23.7z"/>
	<path class="st0" d="M28.4,27l-0.1-0.5c-0.2-0.8-0.4-1.6-0.7-2.4c0.3,0.8,0.6,1.6,0.7,2.4L28.4,27z"/>
	<path class="st0" d="M24.4,29.6c0.1-0.6,0.2-1.3,0.5-2.2l0.2-0.7l0,0l0,0l0.3-1.2l0,0c0.2-0.5,0.3-1.1,0.5-1.6l0.3-0.9l0-0.1
		c0.6-3.1,1.9-6.8,3.5-10.2c0.8-1.8,1.7-3.4,2.6-4.9c0.9-1.5,1.9-2.9,2.9-4.1H6.7c-1.3,0-2.3,1-2.3,2.3v31.4
		c5.8-2.2,14.3-4.1,20.8-4.5c-0.1-0.5-0.4-1.3-0.6-1.8C24.3,30.8,24.3,30.4,24.4,29.6z"/>
	<path class="st0" d="M30.9,12.4c-0.1,0.2-0.2,0.3-0.2,0.5C30.7,12.7,30.8,12.6,30.9,12.4z"/>
	<path class="st0" d="M29.1,16.6c0,0.1-0.1,0.2-0.1,0.3C29,16.9,29,16.8,29.1,16.6z"/>
	<path class="st0" d="M42.5,0C42.5,0,42.5,0,42.5,0C42.5,0,42.5,0,42.5,0C42.5,0,42.4,0,42.5,0c-0.1,0-0.1,0-0.1,0c0,0,0,0,0,0
		c0,0,0,0,0,0c0,0,0,0,0,0c0,0,0,0-0.1,0c0,0,0,0,0,0c0,0,0,0,0,0c0,0,0,0,0,0c0,0,0,0,0,0c0,0,0,0,0,0c0,0,0,0,0,0c0,0,0,0,0,0
		c0,0,0,0,0,0c0,0-0.1,0-0.1,0c0,0,0,0,0,0c0,0,0,0,0,0c0,0,0,0,0,0c0,0,0,0,0,0c0,0,0,0,0,0c0,0,0,0,0,0c0,0,0,0,0,0c0,0,0,0,0,0
		c0,0,0,0,0,0c0,0-0.1,0-0.1,0c0,0,0,0,0,0c0,0,0,0,0,0c0,0,0,0,0,0c0,0,0,0,0,0c0,0,0,0,0,0c0,0,0,0,0,0c0,0,0,0,0,0
		c-0.1,0-0.1,0-0.2,0c0,0,0,0,0,0c0,0,0,0,0,0c0,0,0,0,0,0c0,0,0,0,0,0c0,0,0,0,0,0c-0.1,0-0.1,0.1-0.2,0.1c0,0,0,0,0,0c0,0,0,0,0,0
		c0,0,0,0,0,0c0,0,0,0,0,0c0,0,0,0,0,0c-0.1,0-0.1,0-0.2,0.1c0,0,0,0,0,0c0,0,0,0-0.1,0c0,0,0,0,0,0c0,0,0,0,0,0c0,0,0,0,0,0
		c-0.1,0-0.1,0.1-0.2,0.1c0,0,0,0,0,0c0,0,0,0,0,0c0,0,0,0,0,0c0,0,0,0,0,0c0,0,0,0,0,0c-0.1,0-0.1,0.1-0.2,0.1c0,0,0,0,0,0
		c0,0,0,0,0,0c0,0,0,0,0,0c0,0,0,0,0,0c0,0,0,0,0,0c0,0,0,0,0,0c0,0,0,0,0,0C39.7,1,39.6,1,39.6,1c0,0,0,0,0,0c0,0,0,0,0,0
		c0,0,0,0,0,0c0,0,0,0,0,0c0,0,0,0,0,0c0,0,0,0,0,0c0,0,0,0,0,0c0,0-0.1,0-0.1,0.1c0,0,0,0,0,0c0,0,0,0,0,0c0,0,0,0,0,0c0,0,0,0,0,0
		c0,0,0,0,0,0c0,0,0,0,0,0c0,0,0,0,0,0c0,0,0,0,0,0c0,0,0,0-0.1,0c0,0,0,0,0,0c0,0,0,0,0,0c0,0,0,0,0,0c0,0,0,0,0,0c0,0,0,0,0,0
		c0,0,0,0,0,0c0,0,0,0,0,0c0,0,0,0-0.1,0c0,0,0,0,0,0c0,0,0,0-0.1,0c0,0,0,0,0,0c0,0,0,0,0,0c0,0,0,0,0,0c0,0,0,0,0,0c0,0,0,0,0,0
		c0,0,0,0,0,0c0,0,0,0,0,0c0,0,0,0-0.1,0.1c0,0,0,0,0,0c0,0,0,0,0,0c0,0,0,0,0,0c0,0,0,0,0,0c0,0,0,0,0,0c0,0,0,0,0,0c0,0,0,0,0,0
		c0,0,0,0-0.1,0.1l0,0l-0.7,0.7l-0.4,0.4c-0.1,0.1-0.1,0.1-0.2,0.2c-0.1,0.1-0.1,0.1-0.2,0.2c0,0-0.1,0.1-0.1,0.1
		c0,0-0.1,0.1-0.1,0.1c0,0-0.1,0.1-0.1,0.1c-1.7,2-3.3,4.5-4.7,7.2c0,0.1-0.1,0.1-0.1,0.2c0,0.1-0.1,0.2-0.1,0.2
		c0,0.1-0.1,0.1-0.1,0.2c0,0.1-0.1,0.2-0.1,0.2s-0.1,0.2-0.1,0.2c-0.1,0.2-0.2,0.3-0.2,0.5c0,0,0,0.1-0.1,0.1c0,0.1-0.1,0.1-0.1,0.2
		c-0.1,0.1-0.1,0.2-0.2,0.4c0,0.1-0.1,0.2-0.1,0.3c-0.1,0.2-0.2,0.4-0.3,0.6c0,0.1-0.1,0.2-0.1,0.3c0,0.1,0,0.1-0.1,0.2
		c0,0.1-0.1,0.2-0.1,0.3c0,0.1,0,0.1-0.1,0.2c0,0.1-0.1,0.2-0.1,0.3c0,0.1-0.1,0.2-0.1,0.3c-0.1,0.2-0.1,0.3-0.2,0.5
		c0,0.1-0.1,0.2-0.1,0.3c0,0.1-0.1,0.2-0.1,0.3c0,0.1-0.1,0.2-0.1,0.3c0,0.1,0,0.1-0.1,0.2c0,0,0,0.1,0,0.1c0,0.1,0,0.1-0.1,0.2
		c0,0.1-0.1,0.2-0.1,0.3c0,0.1,0,0.1-0.1,0.2c-0.5,1.6-1,3.2-1.3,4.7c0,0,0,0,0,0c0.1,0.1,0.1,0.3,0.2,0.5c0,0.1,0.1,0.2,0.1,0.3
		c0,0,0,0.1,0.1,0.1c0.3,0.8,0.6,1.6,0.7,2.4l0.1,0.5l0,0.2l0.2,0.8l0,0l0,0c0,0,0-0.2-0.2-0.6L28.3,27c0-0.1,0-0.1-0.1-0.2
		c-0.3-0.7-1.1-2.1-1.4-2.7c-0.1,0.4-0.3,0.9-0.4,1.3c-0.1,0.4-0.2,0.8-0.3,1.1c1,1.8,1.6,5,1.6,5s0,0,0,0c0,0,0,0,0,0c0,0,0,0,0,0
		c0-0.1-0.1-0.4-0.3-0.8c-0.2-0.6-1.3-2.6-1.6-3c-0.5,1.7-0.6,2.8-0.5,3.1c0,0,0,0.1,0,0.1c0.2,0.5,0.5,1.2,0.7,2c0,0,0,0,0,0
		c0,0.1,0.1,0.2,0.1,0.3c0,0.2,0.1,0.3,0.1,0.5c0.1,0.6,0.3,1.1,0.4,1.7c0,0.2,0.1,0.4,0.1,0.6c0.1,0.8,0.3,1.5,0.4,2.3l0,0.5l0,0
		l0,0c0,0,0,0,0,0c0,0.2,0,0.4,0,0.7c0,0.4,0,0.8,0,1.2c0,1,0,2,0.1,3.1c0,0.2,0,0.4,0,0.6c0,0,0,0.1,0,0.1c0.2,2,0.5,3.8,0.8,5
		c0.1,0.2,0.1,0.4,0.2,0.6l0.3-0.2c-0.6-1.9-0.9-4.2-0.9-6.9c0-0.4,0-0.9,0-1.4c0.2-5,1.3-11,3.5-17.3c3.6-9.5,8.6-17.1,13.1-20.8
		l0,0l0,0c-4.1,3.7-9.8,15.9-11.4,20.4c-1.9,5-3.2,9.7-4,14.3c0.9-2.7,3-4.4,4.4-5.3c0,0,0,0,0,0c0,0,0.1,0,0.1-0.1c0,0,0,0,0,0
		c0,0,0.1,0,0.1-0.1c0.1,0,0.2-0.1,0.2-0.1c0,0,0,0,0,0c0.6-0.3,1-0.5,1-0.5s2.2-2.7,4.8-6.6l-4.9,1.3L33,27.5l0,0l0,0
		c0,0,1.3-0.8,3.1-1.7c0,0,0,0,0,0c1.3-0.7,2.9-1.4,4.4-1.9c2.5-3.9,5.1-8.7,6.3-13c0.1-0.2,0.1-0.5,0.2-0.7
		c0.3-1.3,0.5-2.5,0.5-3.7c0-0.1,0-0.2,0-0.4c0-0.1,0-0.2,0-0.2c0,0,0,0,0,0c0-0.2,0-0.4,0-0.6c0-0.1,0-0.1,0-0.2
		c0-0.1,0-0.3-0.1-0.4c0,0,0,0,0,0c-0.3-1.4-0.9-2.7-2-3.6l0,0l0,0c0,0,0,0-0.1-0.1c0,0,0,0,0,0c0,0,0,0-0.1-0.1c0,0,0,0,0,0
		c0,0,0,0-0.1-0.1c0,0,0,0,0,0c0,0,0,0-0.1-0.1c0,0,0,0,0,0c0,0,0,0-0.1,0c0,0,0,0,0,0c0,0,0,0-0.1,0c0,0,0,0,0,0c0,0,0,0-0.1,0
		c0,0,0,0,0,0c0,0,0,0-0.1,0c0,0,0,0,0,0c0,0-0.1-0.1-0.2-0.1c0,0,0,0,0,0c0,0-0.1,0-0.1,0c0,0,0,0,0,0c0,0-0.1,0-0.1,0c0,0,0,0,0,0
		c0,0-0.1,0-0.1,0c0,0,0,0,0,0c-0.1,0-0.1,0-0.2-0.1c0,0,0,0,0,0c-0.1,0-0.1,0-0.2-0.1c0,0,0,0,0,0c-0.1,0-0.1,0-0.2-0.1
		c0,0,0,0,0,0c0,0-0.1,0-0.1,0h0c0,0-0.1,0-0.1,0h0c0,0-0.1,0-0.1,0c0,0,0,0,0,0c-0.1,0-0.1,0-0.2,0c0,0,0,0,0,0c-0.1,0-0.1,0-0.2,0
		c0,0,0,0,0,0c0,0-0.1,0-0.1,0c0,0,0,0,0,0C43,0,43,0,43,0c0,0,0,0,0,0c0,0-0.1,0-0.1,0c0,0,0,0,0,0c0,0,0,0-0.1,0c0,0,0,0,0,0
		c0,0-0.1,0-0.1,0c0,0,0,0,0,0C42.6,0,42.6,0,42.5,0C42.6,0,42.6,0,42.5,0C42.6,0,42.5,0,42.5,0z"/>
	<path class="st0" d="M38,2.2C38,2.2,38,2.2,38,2.2C38,2.2,38,2.2,38,2.2L38,2.2z"/>
	<path class="st0" d="M45.2,1C45.2,1,45.3,1.1,45.2,1C45.3,1.1,45.2,1,45.2,1z"/>
	<path class="st0" d="M47.3,4.8c0,0.1,0.1,0.3,0.1,0.4C47.4,5.1,47.3,4.9,47.3,4.8z"/>
	<path class="st0" d="M36.7,3.5c0.1-0.1,0.1-0.1,0.2-0.2l0.4-0.4l-0.4,0.4C36.8,3.4,36.7,3.5,36.7,3.5z"/>
	<path class="st0" d="M47.4,5.4c0,0.2,0,0.4,0,0.6C47.4,5.8,47.4,5.6,47.4,5.4z"/>
	<path class="st0" d="M33.8,32.6C33.8,32.6,33.8,32.6,33.8,32.6C33.8,32.6,33.8,32.6,33.8,32.6z"/>
	<path class="st0" d="M42.1,0C42.1,0,42.1,0,42.1,0C42.1,0,42.1,0,42.1,0z"/>
	<polygon class="st0" points="28.6,28 28.6,28 28.4,27.2 28.4,27 28.4,27.2 	"/>
	<path class="st0" d="M33.4,32.8C33.4,32.8,33.4,32.8,33.4,32.8C33.4,32.8,33.4,32.8,33.4,32.8z"/>
	<path class="st0" d="M33.5,32.7C33.5,32.8,33.5,32.8,33.5,32.7C33.5,32.8,33.5,32.8,33.5,32.7z"/>
	<path class="st0" d="M47.5,6c0,0.1,0,0.2,0,0.2C47.5,6.1,47.5,6.1,47.5,6z"/>
	<path class="st0" d="M47.5,6.6c0,1.2-0.2,2.4-0.5,3.7C47.3,9,47.5,7.7,47.5,6.6z"/>
	<path class="st0" d="M36.1,25.8C36.1,25.8,36.1,25.8,36.1,25.8C36.1,25.8,36.1,25.8,36.1,25.8z"/>
	<path class="st0" d="M40.5,23.9c2.5-3.9,5.1-8.7,6.3-13C45.6,15.3,43,20,40.5,23.9L40.5,23.9z"/>
	<path class="st0" d="M47,10.3c-0.1,0.2-0.1,0.5-0.2,0.7C46.9,10.7,46.9,10.5,47,10.3z"/>
	<path class="st0" d="M45.1,1C45.1,1,45.2,1,45.1,1C45.2,1,45.1,1,45.1,1z"/>
	<path class="st0" d="M43.6,0.1C43.6,0.1,43.6,0.1,43.6,0.1C43.6,0.1,43.6,0.1,43.6,0.1z"/>
	<path class="st0" d="M47.3,4.7c-0.3-1.4-0.9-2.7-2-3.6l0,0C46.4,2.1,47,3.3,47.3,4.7z"/>
	<path class="st0" d="M43.3,0.1c0.1,0,0.1,0,0.2,0C43.4,0.1,43.4,0.1,43.3,0.1z"/>
	<path class="st0" d="M43.5,0.1C43.5,0.1,43.5,0.1,43.5,0.1C43.5,0.1,43.5,0.1,43.5,0.1z"/>
	<path class="st0" d="M43.6,0.2C43.7,0.2,43.7,0.2,43.6,0.2C43.7,0.2,43.7,0.2,43.6,0.2z"/>
	<path class="st0" d="M34.6,26.8l4.9-1.3c-2.6,3.9-4.8,6.6-4.8,6.6l0,0c0,0,2.2-2.7,4.8-6.6L34.6,26.8L33,27.5l0,0L34.6,26.8z"/>
	<path class="st0" d="M43.9,0.2c0.1,0,0.1,0,0.2,0.1C44,0.3,44,0.3,43.9,0.2z"/>
	<path class="st0" d="M43.7,0.2c0.1,0,0.1,0,0.2,0.1C43.8,0.2,43.8,0.2,43.7,0.2z"/>
	<path class="st0" d="M42.8,0C42.8,0,42.8,0,42.8,0C42.8,0,42.8,0,42.8,0z"/>
	<path class="st0" d="M42.7,0C42.7,0,42.7,0,42.7,0C42.7,0,42.7,0,42.7,0z"/>
	<path class="st0" d="M42.6,0C42.6,0,42.6,0,42.6,0C42.6,0,42.6,0,42.6,0z"/>
	<path class="st0" d="M43.1,0c0.1,0,0.1,0,0.2,0C43.2,0.1,43.2,0.1,43.1,0z"/>
	<path class="st0" d="M43,0C43.1,0,43.1,0,43,0C43.1,0,43.1,0,43,0z"/>
	<path class="st0" d="M42.9,0C42.9,0,42.9,0,42.9,0C42.9,0,42.9,0,42.9,0z"/>
	<path class="st0" d="M43,0C43,0,43,0,43,0C43,0,43,0,43,0z"/>
	<path class="st0" d="M44.3,0.4C44.3,0.4,44.4,0.4,44.3,0.4C44.4,0.4,44.3,0.4,44.3,0.4z"/>
	<path class="st0" d="M44.8,0.7C44.8,0.7,44.9,0.7,44.8,0.7C44.9,0.7,44.8,0.7,44.8,0.7z"/>
	<path class="st0" d="M44.7,0.7C44.7,0.7,44.8,0.7,44.7,0.7C44.8,0.7,44.7,0.7,44.7,0.7z"/>
	<path class="st0" d="M27.2,38.8C27.2,38.8,27.2,38.8,27.2,38.8C27.2,38.8,27.2,38.8,27.2,38.8L27.2,38.8z"/>
	<path class="st0" d="M45,0.8C45,0.8,45,0.9,45,0.8C45,0.9,45,0.8,45,0.8z"/>
	<path class="st0" d="M44.6,0.6C44.7,0.6,44.7,0.6,44.6,0.6C44.7,0.6,44.7,0.6,44.6,0.6z"/>
	<path class="st0" d="M44.9,0.8C44.9,0.8,44.9,0.8,44.9,0.8C44.9,0.8,44.9,0.8,44.9,0.8z"/>
	<path class="st0" d="M44.5,0.5c0,0,0.1,0.1,0.2,0.1C44.6,0.6,44.5,0.5,44.5,0.5z"/>
	<path class="st0" d="M44.2,0.4C44.3,0.4,44.3,0.4,44.2,0.4C44.3,0.4,44.3,0.4,44.2,0.4z"/>
	<path class="st0" d="M44.1,0.3c0.1,0,0.1,0,0.2,0.1C44.2,0.3,44.1,0.3,44.1,0.3z"/>
	<path class="st0" d="M31.2,24.3c-2.1,6.3-3.3,12.3-3.5,17.3c0,0.5,0,0.9,0,1.4c0-0.4,0-0.9,0-1.4C28,36.6,29.1,30.6,31.2,24.3
		c3.6-9.5,8.6-17.1,13.1-20.8l0,0C39.8,7.2,34.8,14.8,31.2,24.3z"/>
	<path class="st0" d="M45.1,0.9C45.1,0.9,45.1,0.9,45.1,0.9C45.1,0.9,45.1,0.9,45.1,0.9z"/>
	<path class="st0" d="M28.1,49.4c0.1,0.2,0.1,0.4,0.2,0.6l0.3-0.2l0,0L28.3,50C28.2,49.8,28.2,49.6,28.1,49.4z"/>
	<path class="st0" d="M28.9,38.1L28.9,38.1c0.9-2.7,3-4.4,4.4-5.3C31.9,33.8,29.8,35.5,28.9,38.1z"/>
	<path class="st0" d="M44.4,0.5C44.4,0.5,44.4,0.5,44.4,0.5C44.4,0.5,44.4,0.5,44.4,0.5z"/>
	<path class="st0" d="M27.2,43.7c-0.1-1-0.1-2-0.1-3.1C27.1,41.7,27.1,42.7,27.2,43.7z"/>
	<path class="st0" d="M40.7,0.4C40.7,0.4,40.7,0.4,40.7,0.4C40.7,0.4,40.7,0.4,40.7,0.4z"/>
	<path class="st0" d="M41.1,0.3C41.1,0.3,41.1,0.3,41.1,0.3C41.1,0.3,41.1,0.3,41.1,0.3z"/>
	<path class="st0" d="M36.3,3.9c0,0-0.1,0.1-0.1,0.1C36.3,4,36.3,3.9,36.3,3.9z"/>
	<path class="st0" d="M40.8,0.4C40.8,0.4,40.8,0.4,40.8,0.4C40.8,0.4,40.8,0.4,40.8,0.4z"/>
	<path class="st0" d="M40.5,0.5C40.6,0.5,40.6,0.5,40.5,0.5C40.6,0.5,40.6,0.5,40.5,0.5z"/>
	<path class="st0" d="M42.5,0C42.5,0,42.6,0,42.5,0C42.6,0,42.5,0,42.5,0z"/>
	<path class="st0" d="M39.8,0.9C39.8,0.8,39.8,0.8,39.8,0.9C39.8,0.8,39.8,0.8,39.8,0.9z"/>
	<path class="st0" d="M41.1,0.3C41.1,0.3,41.1,0.3,41.1,0.3C41.1,0.3,41.1,0.3,41.1,0.3z"/>
	<path class="st0" d="M40.8,0.4C40.8,0.4,40.8,0.4,40.8,0.4C40.9,0.4,40.8,0.4,40.8,0.4z"/>
	<path class="st0" d="M40.5,0.5C40.5,0.5,40.5,0.5,40.5,0.5C40.5,0.5,40.5,0.5,40.5,0.5z"/>
	<path class="st0" d="M40.1,0.7C40.1,0.7,40.1,0.7,40.1,0.7C40.1,0.7,40.1,0.7,40.1,0.7z"/>
	<path class="st0" d="M31,12.2c0,0.1-0.1,0.2-0.1,0.2C30.9,12.3,31,12.3,31,12.2z"/>
	<path class="st0" d="M39.9,0.8C39.9,0.8,39.9,0.8,39.9,0.8C39.9,0.8,39.9,0.8,39.9,0.8z"/>
	<path class="st0" d="M40.1,0.7C40.1,0.7,40.1,0.7,40.1,0.7C40.1,0.7,40.1,0.7,40.1,0.7z"/>
	<path class="st0" d="M40.2,0.7C40.2,0.7,40.2,0.6,40.2,0.7C40.2,0.6,40.2,0.7,40.2,0.7z"/>
	<path class="st0" d="M31.2,11.8c0,0.1-0.1,0.1-0.1,0.2C31.1,11.9,31.2,11.8,31.2,11.8z"/>
	<path class="st0" d="M40.4,0.5C40.4,0.5,40.4,0.5,40.4,0.5C40.4,0.5,40.4,0.5,40.4,0.5z"/>
	<path class="st0" d="M31.4,11.3c0,0.1-0.1,0.1-0.1,0.2C31.3,11.5,31.4,11.4,31.4,11.3z"/>
	<path class="st0" d="M38,2.2C38,2.2,38,2.2,38,2.2L38,2.2L38,2.2C38,2.2,38,2.2,38,2.2z"/>
	<path class="st0" d="M41.8,0.1C41.8,0.1,41.9,0.1,41.8,0.1C41.9,0.1,41.8,0.1,41.8,0.1z"/>
	<path class="st0" d="M42.2,0C42.2,0,42.2,0,42.2,0C42.2,0,42.2,0,42.2,0z"/>
	<path class="st0" d="M41.8,0.1C41.8,0.1,41.8,0.1,41.8,0.1C41.8,0.1,41.8,0.1,41.8,0.1z"/>
	<path class="st0" d="M41.7,0.1C41.7,0.1,41.7,0.1,41.7,0.1C41.7,0.1,41.7,0.1,41.7,0.1z"/>
	<path class="st0" d="M41.9,0.1C41.9,0.1,41.9,0.1,41.9,0.1C41.9,0.1,41.9,0.1,41.9,0.1z"/>
	<path class="st0" d="M42,0.1C42,0,42,0,42,0.1C42,0,42,0,42,0.1z"/>
	<path class="st0" d="M42.3,0C42.3,0,42.3,0,42.3,0C42.3,0,42.3,0,42.3,0z"/>
	<path class="st0" d="M42.1,0C42.1,0,42.1,0,42.1,0C42.1,0,42.1,0,42.1,0z"/>
	<path class="st0" d="M41.4,0.2C41.4,0.2,41.4,0.2,41.4,0.2C41.4,0.2,41.4,0.2,41.4,0.2z"/>
	<path class="st0" d="M41.7,0.1C41.7,0.1,41.7,0.1,41.7,0.1C41.7,0.1,41.7,0.1,41.7,0.1z"/>
	<path class="st0" d="M42.4,0C42.4,0,42.4,0,42.4,0C42.4,0,42.4,0,42.4,0z"/>
	<path class="st0" d="M42.5,0C42.5,0,42.5,0,42.5,0C42.5,0,42.5,0,42.5,0z"/>
	<path class="st0" d="M41.2,0.2C41.2,0.2,41.2,0.2,41.2,0.2C41.2,0.2,41.2,0.2,41.2,0.2z"/>
	<path class="st0" d="M41.4,0.2C41.4,0.2,41.4,0.2,41.4,0.2C41.4,0.2,41.4,0.2,41.4,0.2z"/>
	<path class="st0" d="M41.5,0.2C41.5,0.1,41.5,0.1,41.5,0.2C41.5,0.1,41.5,0.1,41.5,0.2z"/>
	<path class="st0" d="M41.6,0.1C41.6,0.1,41.6,0.1,41.6,0.1C41.6,0.1,41.6,0.1,41.6,0.1z"/>
	<path class="st0" d="M42.3,0C42.3,0,42.4,0,42.3,0C42.4,0,42.3,0,42.3,0z"/>
	<path class="st0" d="M27.4,23.9c0,0,0,0.1,0.1,0.1C27.5,24,27.5,24,27.4,23.9z"/>
	<path class="st0" d="M28.5,18.3c0,0.1,0,0.1-0.1,0.2C28.4,18.4,28.4,18.4,28.5,18.3z"/>
	<path class="st0" d="M38.9,1.5C38.9,1.5,38.9,1.5,38.9,1.5C38.9,1.5,38.9,1.5,38.9,1.5z"/>
	<path class="st0" d="M38.6,1.7C38.6,1.7,38.6,1.7,38.6,1.7C38.6,1.7,38.6,1.7,38.6,1.7z"/>
	<path class="st0" d="M38.5,1.8C38.5,1.8,38.5,1.7,38.5,1.8C38.5,1.7,38.5,1.8,38.5,1.8z"/>
	<path class="st0" d="M27.1,23.2c0.1,0.1,0.1,0.3,0.2,0.5C27.3,23.5,27.2,23.4,27.1,23.2z"/>
	<path class="st0" d="M38.8,1.5C38.8,1.5,38.8,1.5,38.8,1.5C38.8,1.5,38.8,1.5,38.8,1.5z"/>
	<path class="st0" d="M28.6,17.8c0,0.1,0,0.1-0.1,0.2C28.6,18,28.6,17.9,28.6,17.8z"/>
	<path class="st0" d="M38.7,1.6C38.7,1.6,38.8,1.6,38.7,1.6C38.8,1.6,38.7,1.6,38.7,1.6z"/>
	<path class="st0" d="M38.6,1.7C38.7,1.6,38.7,1.6,38.6,1.7C38.7,1.6,38.7,1.6,38.6,1.7z"/>
	<path class="st0" d="M38.4,1.8C38.4,1.8,38.5,1.8,38.4,1.8C38.5,1.8,38.4,1.8,38.4,1.8z"/>
	<path class="st0" d="M38.1,2.1C38.1,2.1,38.2,2,38.1,2.1C38.2,2,38.1,2.1,38.1,2.1z"/>
	<path class="st0" d="M27.6,31.6C27.6,31.6,27.6,31.6,27.6,31.6C27.6,31.6,27.6,31.6,27.6,31.6z"/>
	<path class="st0" d="M38.2,2C38.2,2,38.2,2,38.2,2C38.2,2,38.2,2,38.2,2z"/>
	<path class="st0" d="M38.1,2.1C38.1,2.1,38.1,2.1,38.1,2.1C38.1,2.1,38.1,2.1,38.1,2.1z"/>
	<path class="st0" d="M38.3,2C38.3,1.9,38.3,1.9,38.3,2C38.3,1.9,38.3,1.9,38.3,2z"/>
	<path class="st0" d="M38.4,1.9C38.4,1.9,38.4,1.9,38.4,1.9C38.4,1.9,38.4,1.9,38.4,1.9z"/>
	<path class="st0" d="M26.3,25.5c-0.1,0.4-0.2,0.8-0.3,1.1C26.1,26.3,26.2,25.9,26.3,25.5z"/>
	<path class="st0" d="M25.7,27.7c-0.5,1.7-0.6,2.8-0.5,3.1c0,0,0,0.1,0,0.1c0,0,0-0.1,0-0.1C25.1,30.5,25.3,29.3,25.7,27.7
		c0.3,0.5,1.4,2.4,1.6,3c0.2,0.5,0.3,0.7,0.3,0.8c0-0.1-0.1-0.4-0.3-0.8C27.1,30.1,26,28.1,25.7,27.7z"/>
	<path class="st0" d="M39.3,1.2C39.3,1.1,39.4,1.1,39.3,1.2C39.4,1.1,39.3,1.1,39.3,1.2z"/>
	<path class="st0" d="M29.7,15c0,0.1-0.1,0.2-0.1,0.3C29.6,15.3,29.7,15.1,29.7,15z"/>
	<path class="st0" d="M39.5,1.1C39.5,1.1,39.5,1.1,39.5,1.1C39.5,1.1,39.5,1.1,39.5,1.1z"/>
	<path class="st0" d="M29.9,14.6c0,0.1-0.1,0.2-0.1,0.3C29.8,14.8,29.9,14.7,29.9,14.6z"/>
	<path class="st0" d="M39.4,1.1C39.4,1.1,39.4,1.1,39.4,1.1C39.4,1.1,39.4,1.1,39.4,1.1z"/>
	<path class="st0" d="M39.5,1C39.5,1,39.5,1,39.5,1C39.5,1,39.5,1,39.5,1z"/>
	<path class="st0" d="M39.8,0.9C39.8,0.9,39.8,0.9,39.8,0.9C39.8,0.9,39.8,0.9,39.8,0.9z"/>
	<path class="st0" d="M30.5,13.2c-0.1,0.1-0.1,0.2-0.2,0.4C30.4,13.5,30.4,13.4,30.5,13.2z"/>
	<path class="st0" d="M39.7,0.9C39.7,0.9,39.7,0.9,39.7,0.9C39.7,0.9,39.7,0.9,39.7,0.9z"/>
	<path class="st0" d="M30.7,12.9c0,0,0,0.1-0.1,0.1C30.6,13,30.6,12.9,30.7,12.9z"/>
	<path class="st0" d="M39,1.4C39,1.4,39,1.4,39,1.4C39.1,1.4,39,1.4,39,1.4z"/>
	<path class="st0" d="M28.9,17c0,0.1-0.1,0.2-0.1,0.3C28.9,17.2,28.9,17.1,28.9,17z"/>
	<path class="st0" d="M38.9,1.4C39,1.4,39,1.4,38.9,1.4C39,1.4,39,1.4,38.9,1.4z"/>
	<path class="st0" d="M39.1,1.3C39.1,1.3,39.1,1.3,39.1,1.3C39.1,1.3,39.1,1.3,39.1,1.3z"/>
	<path class="st0" d="M39.2,1.3C39.2,1.3,39.2,1.3,39.2,1.3C39.2,1.3,39.2,1.3,39.2,1.3z"/>
	<path class="st0" d="M29.5,15.5c0,0.1-0.1,0.2-0.1,0.3C29.4,15.7,29.5,15.6,29.5,15.5z"/>
	<path class="st0" d="M39.2,1.2C39.2,1.2,39.2,1.2,39.2,1.2C39.2,1.2,39.2,1.2,39.2,1.2z"/>
	<path class="st0" d="M28.7,17.5c0,0.1,0,0.1-0.1,0.2C28.7,17.6,28.7,17.6,28.7,17.5z"/>
</g>
</svg>
