<?xml version="1.0" encoding="utf-8"?>
<!-- Generator: Adobe Illustrator 25.2.1, SVG Export Plug-In . SVG Version: 6.00 Build 0)  -->
<svg version="1.1" id="Capa_1" xmlns="http://www.w3.org/2000/svg" xmlns:xlink="http://www.w3.org/1999/xlink" x="0px" y="0px"
	 viewBox="0 0 30 30" style="enable-background:new 0 0 30 30;" xml:space="preserve">
<style type="text/css">
	.st0{fill:#003E52;}
	.st1{fill:none;}
</style>
<g>
	<path class="st0" d="M23.7,0.6C23.8,0.6,23.8,0.6,23.7,0.6C23.8,0.6,23.8,0.6,23.7,0.6z"/>
	<path class="st0" d="M24.1,0.4C24.1,0.4,24.1,0.4,24.1,0.4C24.1,0.4,24.1,0.4,24.1,0.4z"/>
	<path class="st0" d="M23.7,0.7C23.7,0.7,23.7,0.6,23.7,0.7C23.7,0.6,23.7,0.7,23.7,0.7z"/>
	<path class="st0" d="M23.7,0.6C23.7,0.6,23.7,0.6,23.7,0.6C23.7,0.6,23.7,0.6,23.7,0.6z"/>
	<path class="st0" d="M23.9,0.5C23.9,0.5,23.9,0.5,23.9,0.5C23.9,0.5,23.9,0.5,23.9,0.5z"/>
	<path class="st0" d="M23.9,0.5C24,0.5,24,0.4,23.9,0.5C24,0.4,24,0.5,23.9,0.5z"/>
	<path class="st0" d="M24,0.4C24.1,0.4,24.1,0.4,24,0.4C24.1,0.4,24.1,0.4,24,0.4z"/>
	<path class="st0" d="M23.9,0.5C23.9,0.5,23.9,0.5,23.9,0.5C23.9,0.5,23.9,0.5,23.9,0.5z"/>
	<path class="st0" d="M23.6,0.7C23.6,0.7,23.6,0.7,23.6,0.7C23.6,0.7,23.6,0.7,23.6,0.7z"/>
	<path class="st0" d="M23.8,0.5C23.8,0.5,23.8,0.5,23.8,0.5C23.8,0.5,23.8,0.5,23.8,0.5z"/>
	<path class="st0" d="M23.3,0.9C23.3,0.9,23.3,0.9,23.3,0.9C23.3,0.9,23.3,0.9,23.3,0.9z"/>
	<path class="st0" d="M23.3,0.9C23.3,0.9,23.3,0.9,23.3,0.9C23.3,0.9,23.3,0.9,23.3,0.9z"/>
	<path class="st0" d="M23.3,0.9C23.3,0.9,23.4,0.9,23.3,0.9C23.4,0.9,23.3,0.9,23.3,0.9z"/>
	<path class="st0" d="M23.2,1C23.2,1,23.2,1,23.2,1C23.2,1,23.2,1,23.2,1z"/>
	<path class="st0" d="M23.2,1C23.2,1,23.2,1,23.2,1C23.2,1,23.2,1,23.2,1z"/>
	<path class="st0" d="M23.5,0.8C23.5,0.7,23.5,0.7,23.5,0.8C23.5,0.7,23.5,0.7,23.5,0.8z"/>
	<path class="st0" d="M23.4,0.8C23.4,0.8,23.4,0.8,23.4,0.8C23.4,0.8,23.4,0.8,23.4,0.8z"/>
	<path class="st0" d="M23.6,0.7C23.6,0.7,23.6,0.7,23.6,0.7C23.6,0.7,23.6,0.7,23.6,0.7z"/>
	<path class="st0" d="M23.5,0.8C23.5,0.8,23.5,0.8,23.5,0.8C23.5,0.8,23.5,0.8,23.5,0.8z"/>
	<path class="st0" d="M23.4,0.8C23.4,0.8,23.5,0.8,23.4,0.8C23.5,0.8,23.4,0.8,23.4,0.8z"/>
	<path class="st0" d="M24.8,0.1C24.8,0.1,24.8,0.1,24.8,0.1C24.8,0.1,24.8,0.1,24.8,0.1z"/>
	<path class="st0" d="M25,0.1C25,0.1,25,0.1,25,0.1C25,0.1,25,0.1,25,0.1z"/>
	<path class="st0" d="M24.9,0.1C24.9,0.1,24.9,0.1,24.9,0.1C24.9,0.1,24.9,0.1,24.9,0.1z"/>
	<path class="st0" d="M24.9,0.1C25,0.1,25,0.1,24.9,0.1C25,0.1,25,0.1,24.9,0.1z"/>
	<path class="st0" d="M25.2,0C25.2,0,25.2,0,25.2,0C25.2,0,25.2,0,25.2,0z"/>
	<path class="st0" d="M25.1,0C25.1,0,25.1,0,25.1,0C25.1,0,25.1,0,25.1,0z"/>
	<path class="st0" d="M25.1,0C25.2,0,25.2,0,25.1,0C25.2,0,25.2,0,25.1,0z"/>
	<path class="st0" d="M25,0.1C25,0.1,25.1,0.1,25,0.1C25.1,0.1,25,0.1,25,0.1z"/>
	<path class="st0" d="M23.1,1C23.1,1,23.1,1,23.1,1C23.1,1,23.1,1,23.1,1z"/>
	<path class="st0" d="M25.1,0C25.1,0,25.1,0,25.1,0C25.1,0,25.1,0,25.1,0z"/>
	<path class="st0" d="M24.3,0.3C24.3,0.3,24.3,0.3,24.3,0.3C24.3,0.3,24.3,0.3,24.3,0.3z"/>
	<path class="st0" d="M24.7,0.1C24.8,0.1,24.8,0.1,24.7,0.1C24.8,0.1,24.8,0.1,24.7,0.1z"/>
	<path class="st0" d="M24.3,0.3C24.3,0.3,24.3,0.3,24.3,0.3C24.3,0.3,24.3,0.3,24.3,0.3z"/>
	<path class="st0" d="M24.3,0.3c0,0,0.1,0,0.1,0C24.4,0.3,24.4,0.3,24.3,0.3z"/>
	<path class="st0" d="M24.1,0.4c0,0,0.1,0,0.1-0.1C24.2,0.3,24.2,0.4,24.1,0.4z"/>
	<path class="st0" d="M24.4,0.2C24.4,0.2,24.5,0.2,24.4,0.2C24.5,0.2,24.4,0.2,24.4,0.2z"/>
	<path class="st0" d="M24.5,0.2C24.5,0.2,24.5,0.2,24.5,0.2C24.5,0.2,24.5,0.2,24.5,0.2z"/>
	<path class="st0" d="M24.7,0.2C24.7,0.2,24.7,0.2,24.7,0.2C24.7,0.2,24.7,0.2,24.7,0.2z"/>
	<path class="st0" d="M24.7,0.1C24.7,0.1,24.7,0.1,24.7,0.1C24.7,0.1,24.7,0.1,24.7,0.1z"/>
	<path class="st0" d="M24.5,0.2c0,0,0.1,0,0.1,0C24.6,0.2,24.6,0.2,24.5,0.2z"/>
	<path class="st0" d="M24.9,0.1C24.9,0.1,24.9,0.1,24.9,0.1C24.9,0.1,24.9,0.1,24.9,0.1z"/>
	<path class="st0" d="M26.5,0.2C26.5,0.2,26.5,0.2,26.5,0.2C26.5,0.2,26.5,0.2,26.5,0.2z"/>
	<path class="st0" d="M26.4,0.2C26.4,0.2,26.4,0.2,26.4,0.2C26.4,0.2,26.4,0.2,26.4,0.2z"/>
	<path class="st0" d="M26.2,0.1C26.2,0.1,26.2,0.1,26.2,0.1C26.2,0.1,26.2,0.1,26.2,0.1z"/>
	<path class="st0" d="M26.3,0.1C26.3,0.1,26.3,0.1,26.3,0.1C26.3,0.1,26.3,0.1,26.3,0.1z"/>
	<path class="st0" d="M26.6,0.3C26.6,0.3,26.6,0.3,26.6,0.3C26.6,0.3,26.6,0.3,26.6,0.3z"/>
	<path class="st0" d="M26.2,0.1C26.2,0.1,26.2,0.1,26.2,0.1C26.2,0.1,26.2,0.1,26.2,0.1z"/>
	<path class="st0" d="M26.6,0.3C26.6,0.3,26.6,0.3,26.6,0.3C26.6,0.3,26.6,0.3,26.6,0.3z"/>
	<path class="st0" d="M26.9,0.4C26.9,0.4,26.9,0.4,26.9,0.4C26.9,0.4,26.9,0.4,26.9,0.4z"/>
	<path class="st0" d="M26.9,0.5C26.9,0.5,26.9,0.5,26.9,0.5C26.9,0.5,26.9,0.5,26.9,0.5z"/>
	<path class="st0" d="M26.7,0.3C26.7,0.3,26.7,0.3,26.7,0.3C26.7,0.3,26.7,0.3,26.7,0.3z"/>
	<path class="st0" d="M26.8,0.4C26.8,0.4,26.8,0.4,26.8,0.4C26.8,0.4,26.8,0.4,26.8,0.4z"/>
	<path class="st0" d="M25.7,0C25.7,0,25.7,0,25.7,0C25.7,0,25.7,0,25.7,0z"/>
	<path class="st0" d="M25.8,0C25.8,0,25.8,0,25.8,0C25.8,0,25.8,0,25.8,0z"/>
	<path class="st0" d="M23.1,1.1C23.1,1.1,23.1,1.1,23.1,1.1C23.1,1.1,23.1,1.1,23.1,1.1z"/>
	<path class="st0" d="M25.6,0C25.6,0,25.6,0,25.6,0C25.6,0,25.6,0,25.6,0z"/>
	<path class="st0" d="M26.1,0.1C26.1,0.1,26.1,0.1,26.1,0.1C26.1,0.1,26.1,0.1,26.1,0.1z"/>
	<path class="st0" d="M25.8,0C25.8,0,25.8,0,25.8,0C25.8,0,25.8,0,25.8,0z"/>
	<path class="st0" d="M26.1,0.1L26.1,0.1C26.1,0.1,26.1,0.1,26.1,0.1z"/>
	<path class="st0" d="M26,0C26,0,26,0,26,0C26,0,26,0,26,0z"/>
	<path class="st0" d="M25.9,0C25.9,0,25.9,0,25.9,0C25.9,0,25.9,0,25.9,0z"/>
	<path class="st0" d="M25.7,0C25.7,0,25.7,0,25.7,0C25.7,0,25.7,0,25.7,0z"/>
	<path class="st0" d="M20.3,19.6c0,0-0.1,0.1-0.1,0.1C20.2,19.6,20.2,19.6,20.3,19.6z"/>
	<path class="st0" d="M20,19.7C20,19.7,20,19.7,20,19.7C20,19.7,20,19.7,20,19.7z"/>
	<path class="st0" d="M22.8,1.3C22.8,1.3,22.8,1.3,22.8,1.3C22.8,1.3,22.8,1.3,22.8,1.3z"/>
	<path class="st0" d="M20.1,19.7C20.1,19.7,20.1,19.7,20.1,19.7C20.1,19.7,20.1,19.7,20.1,19.7z"/>
	<path class="st0" d="M27,0.5C27,0.5,27,0.5,27,0.5C27,0.5,27,0.5,27,0.5z"/>
	<path class="st0" d="M23,1.1C23,1.1,23,1.1,23,1.1C23,1.1,23,1.1,23,1.1z"/>
	<path class="st0" d="M23,1.1C23,1.1,23.1,1.1,23,1.1C23.1,1.1,23,1.1,23,1.1z"/>
	<path class="st0" d="M23,1.2C23,1.2,23,1.2,23,1.2C23,1.2,23,1.2,23,1.2z"/>
	<path class="st0" d="M22.9,1.2C22.9,1.2,22.9,1.2,22.9,1.2C22.9,1.2,22.9,1.2,22.9,1.2z"/>
	<path class="st0" d="M22.9,1.3C22.9,1.3,22.9,1.2,22.9,1.3C22.9,1.2,22.9,1.3,22.9,1.3z"/>
	<path class="st0" d="M27.1,0.6C27.1,0.6,27.1,0.6,27.1,0.6C27.1,0.6,27.1,0.6,27.1,0.6z"/>
	<path class="st0" d="M27.1,0.6C27.1,0.6,27.1,0.6,27.1,0.6C27.1,0.6,27.1,0.6,27.1,0.6z"/>
	<path class="st0" d="M27,0.5C27,0.5,27,0.5,27,0.5C27,0.5,27,0.5,27,0.5z"/>
	<path class="st0" d="M28.4,2.8C28.4,2.8,28.4,2.8,28.4,2.8C28.4,2.8,28.4,2.8,28.4,2.8z"/>
	<path class="st0" d="M28.5,3.7c0,0.1,0,0.1,0,0.2C28.5,3.9,28.5,3.8,28.5,3.7z"/>
	<path class="st0" d="M28.4,3.1c0,0,0,0.1,0,0.1C28.4,3.2,28.4,3.2,28.4,3.1z"/>
	<path class="st0" d="M24.3,14.4L24.3,14.4c-0.9,0.3-1.9,0.7-2.7,1.1C22.5,15.1,23.4,14.6,24.3,14.4z"/>
	<path class="st0" d="M20.9,19.3L20.9,19.3c0,0-0.2,0.1-0.6,0.3C20.6,19.3,20.9,19.3,20.9,19.3z"/>
	<path class="st0" d="M28.5,3.6C28.5,3.6,28.5,3.6,28.5,3.6C28.5,3.6,28.5,3.6,28.5,3.6z"/>
	<path class="st0" d="M26.8,0.4C26.8,0.4,26.8,0.4,26.8,0.4C26.8,0.4,26.8,0.4,26.8,0.4z"/>
	<polygon class="st0" points="27.2,0.6 27.2,0.6 27.2,0.7 27.2,0.7 27.2,0.7 	"/>
	<path class="st0" d="M25.5,0C25.5,0,25.5,0,25.5,0C25.5,0,25.5,0,25.5,0z"/>
	<path class="st0" d="M25.5,0C25.5,0,25.5,0,25.5,0C25.5,0,25.5,0,25.5,0z"/>
	<path class="st0" d="M25.4,0C25.4,0,25.4,0,25.4,0C25.4,0,25.4,0,25.4,0z"/>
	<path class="st0" d="M25.6,0C25.6,0,25.6,0,25.6,0L25.6,0C25.6,0,25.6,0,25.6,0z"/>
	<path class="st0" d="M25.4,0C25.4,0,25.4,0,25.4,0C25.4,0,25.4,0,25.4,0z"/>
	<path class="st0" d="M16.4,26.6L16.4,26.6C16.4,26.6,16.4,26.7,16.4,26.6c0.1,1.3,0.3,2.3,0.5,3C16.6,29,16.5,27.9,16.4,26.6
		C16.4,26.7,16.4,26.6,16.4,26.6z"/>
	<path class="st0" d="M17.2,29.9L17.2,29.9c-0.4-1.1-0.5-2.5-0.5-4.1C16.6,27.4,16.8,28.8,17.2,29.9z"/>
	<path class="st0" d="M19.8,16.5c0,0,0.8-0.5,1.9-1C20.6,16,19.8,16.5,19.8,16.5L19.8,16.5z"/>
	<path class="st0" d="M26.6,2.1L26.6,2.1c-2.5,2.2-5.9,9.5-6.9,12.2c-1.1,3-1.9,5.8-2.4,8.6l0,0c0.5-2.7,1.3-5.5,2.4-8.6
		C20.8,11.6,24.1,4.4,26.6,2.1z"/>
	<path class="st0" d="M25.3,0C25.3,0,25.3,0,25.3,0C25.3,0,25.3,0,25.3,0z"/>
	<path class="st0" d="M25.3,0C25.3,0,25.3,0,25.3,0C25.3,0,25.3,0,25.3,0z"/>
	<path class="st0" d="M25.3,0C25.3,0,25.3,0,25.3,0C25.3,0,25.3,0,25.3,0z"/>
	<path class="st1" d="M15.1,19.9c0,0,0-0.1,0-0.1c-3.9,0.2-9,1.4-12.5,2.7V3.6c0-0.8,0.6-1.4,1.4-1.4h17.2c0,0,0-0.1,0.1-0.1
		c0.1-0.1,0.2-0.3,0.4-0.4H4c-1,0-1.9,0.8-1.9,1.9v19.6c3.5-1.4,8.7-2.7,13.1-2.9c0-0.1,0-0.1,0-0.2C15.2,20,15.1,19.9,15.1,19.9z"
		/>
	<path class="st0" d="M22,2.1c0,0-0.1,0.1-0.1,0.1C21.9,2.2,22,2.2,22,2.1z"/>
	<path class="st0" d="M21.7,2.5C21.7,2.5,21.7,2.4,21.7,2.5C21.7,2.4,21.7,2.5,21.7,2.5L21.7,2.5z"/>
	<path class="st0" d="M21.9,2.2C21.9,2.3,21.8,2.3,21.9,2.2C21.8,2.3,21.9,2.3,21.9,2.2z"/>
	<path class="st0" d="M16.3,26.2c0,0.1,0,0.2,0,0.4l0,0l0,0C16.3,26.5,16.3,26.4,16.3,26.2z"/>
	<path class="st0" d="M16.3,23.7c0,0.2,0,0.5,0,0.7C16.3,24.2,16.3,23.9,16.3,23.7z"/>
	<path class="st0" d="M16.3,23c-0.1-0.5-0.1-0.9-0.2-1.4C16.1,22.1,16.2,22.5,16.3,23l0,0.3l0,0L16.3,23z"/>
	<path class="st0" d="M16.3,23.7c0-0.1,0-0.3,0-0.4C16.3,23.4,16.3,23.5,16.3,23.7z"/>
	<path class="st0" d="M15.8,23.3l0-0.2c-0.1-0.9-0.3-1.8-0.5-2.7c0,0,0-0.1,0-0.1c-4.4,0.2-9.6,1.6-13.1,2.9V3.6
		c0-1,0.8-1.9,1.9-1.9h17.7c0,0,0.1-0.1,0.1-0.1l0,0l0,0L22,1.4l0.1-0.1c-3.4,0-18.1,0-18.1,0c-1.3,0-2.3,1-2.3,2.3
		c1.1,26.5-5.3,22.8,14.1,23C15.8,25.5,15.7,24.4,15.8,23.3z"/>
	<path class="st0" d="M15.2,18.5c0.1,0.3,0.3,0.7,0.4,1.2C15.5,19.2,15.3,18.8,15.2,18.5z"/>
	<path class="st0" d="M17.3,10.3c0,0.1,0,0.1-0.1,0.2C17.3,10.5,17.3,10.4,17.3,10.3z"/>
	<path class="st0" d="M17.1,10.8c0,0.1,0,0.1-0.1,0.2C17.1,10.9,17.1,10.9,17.1,10.8z"/>
	<path class="st0" d="M17.2,10.6C17.2,10.7,17.2,10.7,17.2,10.6C17.2,10.7,17.2,10.7,17.2,10.6z"/>
	<path class="st0" d="M18.2,8.2c0,0.1-0.1,0.1-0.1,0.2C18.1,8.3,18.2,8.2,18.2,8.2z"/>
	<path class="st0" d="M18.7,7.2c0,0,0,0.1-0.1,0.1C18.6,7.3,18.6,7.2,18.7,7.2z"/>
	<path class="st0" d="M17,16.2c0,0,0-0.1,0-0.1c-0.2-0.4-0.6-1.2-0.9-1.6c-0.1,0.3-0.2,0.5-0.3,0.8c0.1-0.3,0.2-0.5,0.3-0.8
		c0.2,0.4,0.7,1.2,0.9,1.6C16.9,16.2,17,16.2,17,16.2l0.1,0.2c0.1,0.3,0.1,0.4,0.1,0.4l0,0c0,0,0-0.1-0.1-0.4L17,16.2z"/>
	<path class="st0" d="M18.8,6.9c0,0,0,0.1-0.1,0.1C18.7,7,18.8,7,18.8,6.9z"/>
	<path class="st0" d="M21.7,2.5c-1,1.2-2,2.7-2.8,4.3C19.7,5.2,20.6,3.7,21.7,2.5L21.7,2.5L21.7,2.5z"/>
	<path class="st0" d="M18.4,7.8c0,0,0,0.1-0.1,0.1C18.3,7.9,18.3,7.9,18.4,7.8z"/>
	<path class="st0" d="M17.5,9.7c0,0.1-0.1,0.2-0.1,0.3C17.5,9.9,17.5,9.8,17.5,9.7z"/>
	<path class="st0" d="M16.3,13.9C16.3,13.9,16.3,13.9,16.3,13.9c0.2-0.9,0.4-1.9,0.8-2.8C16.7,12.1,16.4,13,16.3,13.9
		C16.3,13.9,16.3,13.9,16.3,13.9z"/>
	<path class="st0" d="M16.4,14.2c0,0.1,0,0.1,0.1,0.2C16.4,14.3,16.4,14.3,16.4,14.2z"/>
	<path class="st0" d="M17,16.2l-0.1-0.3c-0.1-0.5-0.3-1-0.4-1.4c0.2,0.5,0.3,0.9,0.4,1.4L17,16.2z"/>
	<path class="st0" d="M14.7,17.8c0.1-0.3,0.1-0.8,0.3-1.3l0.1-0.4l0,0l0,0l0.2-0.7l0,0c0.1-0.3,0.2-0.7,0.3-1l0.2-0.5l0,0
		c0.4-1.9,1.1-4.1,2.1-6.1c0.5-1.1,1-2.1,1.6-3c0.6-0.9,1.2-1.7,1.7-2.4H4c-0.8,0-1.4,0.6-1.4,1.4v18.8c3.5-1.3,8.6-2.5,12.5-2.7
		c-0.1-0.3-0.2-0.8-0.4-1.1C14.6,18.5,14.6,18.2,14.7,17.8z"/>
	<path class="st0" d="M18.5,7.4c0,0.1-0.1,0.2-0.1,0.3C18.4,7.6,18.5,7.5,18.5,7.4z"/>
	<path class="st0" d="M17.4,10c0,0.1,0,0.1-0.1,0.2C17.4,10.1,17.4,10.1,17.4,10z"/>
	<path class="st0" d="M25.5,0C25.5,0,25.5,0,25.5,0C25.5,0,25.5,0,25.5,0C25.5,0,25.5,0,25.5,0C25.5,0,25.4,0,25.5,0
		C25.4,0,25.4,0,25.5,0c-0.1,0-0.1,0-0.1,0c0,0,0,0,0,0c0,0,0,0,0,0c0,0,0,0,0,0c0,0,0,0,0,0c0,0,0,0,0,0c0,0,0,0,0,0s0,0,0,0
		c0,0,0,0,0,0c0,0,0,0,0,0s0,0,0,0c0,0,0,0,0,0c0,0,0,0,0,0c0,0,0,0,0,0c0,0,0,0,0,0c0,0,0,0,0,0c0,0,0,0,0,0c0,0,0,0,0,0
		c0,0,0,0,0,0c0,0,0,0,0,0c0,0,0,0,0,0c0,0,0,0-0.1,0c0,0,0,0,0,0c0,0,0,0,0,0c0,0,0,0,0,0c0,0,0,0,0,0c0,0,0,0,0,0c0,0,0,0,0,0
		c0,0,0,0,0,0c0,0-0.1,0-0.1,0c0,0,0,0,0,0c0,0,0,0,0,0c0,0,0,0,0,0c0,0,0,0,0,0c0,0,0,0,0,0c0,0-0.1,0-0.1,0c0,0,0,0,0,0
		c0,0,0,0,0,0c0,0,0,0,0,0c0,0,0,0,0,0c0,0,0,0,0,0c0,0-0.1,0-0.1,0c0,0,0,0,0,0c0,0,0,0,0,0c0,0,0,0,0,0c0,0,0,0,0,0c0,0,0,0,0,0
		c0,0-0.1,0-0.1,0.1c0,0,0,0,0,0c0,0,0,0,0,0c0,0,0,0,0,0c0,0,0,0,0,0c0,0,0,0,0,0c0,0-0.1,0-0.1,0.1c0,0,0,0,0,0c0,0,0,0,0,0
		c0,0,0,0,0,0c0,0,0,0,0,0c0,0,0,0,0,0c0,0,0,0,0,0c0,0,0,0,0,0c0,0-0.1,0-0.1,0.1c0,0,0,0,0,0c0,0,0,0,0,0c0,0,0,0,0,0c0,0,0,0,0,0
		c0,0,0,0,0,0c0,0,0,0,0,0c0,0,0,0,0,0c0,0,0,0-0.1,0c0,0,0,0,0,0c0,0,0,0,0,0c0,0,0,0,0,0c0,0,0,0,0,0c0,0,0,0,0,0c0,0,0,0,0,0
		c0,0,0,0,0,0c0,0,0,0,0,0c0,0,0,0,0,0c0,0,0,0,0,0c0,0,0,0,0,0c0,0,0,0,0,0c0,0,0,0,0,0c0,0,0,0,0,0c0,0,0,0,0,0c0,0,0,0,0,0
		c0,0,0,0,0,0c0,0,0,0,0,0c0,0,0,0,0,0c0,0,0,0,0,0c0,0,0,0,0,0c0,0,0,0,0,0c0,0,0,0,0,0c0,0,0,0,0,0c0,0,0,0,0,0c0,0,0,0,0,0
		c0,0,0,0,0,0c0,0,0,0,0,0c0,0,0,0,0,0c0,0,0,0,0,0c0,0,0,0,0,0c0,0,0,0,0,0c0,0,0,0,0,0c0,0,0,0,0,0c0,0,0,0,0,0l0,0l-0.4,0.4
		L22.1,2c0,0-0.1,0.1-0.1,0.1c0,0-0.1,0.1-0.1,0.1c0,0-0.1,0.1-0.1,0.1c0,0,0,0-0.1,0.1c0,0-0.1,0.1-0.1,0.1c-1,1.2-2,2.7-2.8,4.3
		c0,0,0,0.1-0.1,0.1c0,0,0,0.1-0.1,0.1c0,0,0,0.1,0,0.1c0,0,0,0.1-0.1,0.1c0,0,0,0.1-0.1,0.1c0,0.1-0.1,0.2-0.1,0.3c0,0,0,0,0,0.1
		c0,0,0,0.1-0.1,0.1c0,0.1-0.1,0.1-0.1,0.2c0,0.1-0.1,0.1-0.1,0.2c-0.1,0.1-0.1,0.3-0.2,0.4c0,0.1-0.1,0.1-0.1,0.2c0,0,0,0.1,0,0.1
		c0,0.1-0.1,0.1-0.1,0.2c0,0,0,0.1,0,0.1c0,0.1-0.1,0.1-0.1,0.2c0,0.1-0.1,0.1-0.1,0.2c0,0.1-0.1,0.2-0.1,0.3c0,0.1,0,0.1-0.1,0.2
		c0,0.1,0,0.1-0.1,0.2c0,0.1,0,0.1-0.1,0.2c0,0,0,0.1,0,0.1c0,0,0,0,0,0.1c0,0,0,0.1,0,0.1c0,0.1,0,0.1-0.1,0.2c0,0,0,0.1,0,0.1
		c-0.3,1-0.6,1.9-0.8,2.8c0,0,0,0,0,0c0,0.1,0.1,0.2,0.1,0.3c0,0.1,0,0.1,0.1,0.2c0,0,0,0.1,0,0.1c0.2,0.5,0.3,0.9,0.4,1.4l0.1,0.3
		l0,0.1l0.1,0.5l0,0l0,0c0,0,0-0.1-0.1-0.4L17,16.2c0,0,0-0.1,0-0.1c-0.2-0.4-0.6-1.2-0.9-1.6c-0.1,0.3-0.2,0.5-0.3,0.8
		c-0.1,0.2-0.1,0.5-0.2,0.7c0.6,1.1,1,3,1,3s0,0,0,0c0,0,0,0,0,0c0,0,0,0,0,0c0-0.1-0.1-0.2-0.2-0.5c-0.1-0.4-0.8-1.6-1-1.8
		c-0.3,1-0.4,1.7-0.3,1.8c0,0,0,0,0,0.1c0.1,0.3,0.3,0.7,0.4,1.2c0,0,0,0,0,0c0,0.1,0,0.1,0.1,0.2c0,0.1,0,0.2,0.1,0.3
		c0.1,0.3,0.2,0.7,0.2,1c0,0.1,0,0.2,0.1,0.3c0.1,0.5,0.2,0.9,0.2,1.4l0,0.3l0,0l0,0c0,0,0,0,0,0c0,0.1,0,0.3,0,0.4
		c0,0.2,0,0.5,0,0.7c0,0.6,0,1.2,0.1,1.8c0,0.1,0,0.2,0,0.4c0,0,0,0,0,0.1c0.1,1.2,0.3,2.3,0.5,3c0,0.1,0.1,0.2,0.1,0.3l0.2-0.1
		c-0.4-1.1-0.5-2.5-0.5-4.1c0-0.3,0-0.5,0-0.8c0.1-3,0.8-6.6,2.1-10.4c2.2-5.7,5.1-10.3,7.9-12.5l0,0l0,0c-2.5,2.2-5.9,9.5-6.9,12.2
		c-1.1,3-1.9,5.8-2.4,8.6c0.5-1.6,1.8-2.6,2.7-3.2c0,0,0,0,0,0c0,0,0,0,0.1,0c0,0,0,0,0,0c0,0,0,0,0,0c0,0,0.1-0.1,0.1-0.1
		c0,0,0,0,0,0c0.3-0.2,0.6-0.3,0.6-0.3s1.3-1.6,2.9-4l-2.9,0.8l-0.9,0.4l0,0l0,0c0,0,0.8-0.5,1.9-1c0,0,0,0,0,0
		c0.8-0.4,1.8-0.8,2.7-1.1c1.5-2.3,3-5.2,3.8-7.8c0-0.1,0.1-0.3,0.1-0.4c0.2-0.8,0.3-1.5,0.3-2.2c0-0.1,0-0.1,0-0.2c0,0,0-0.1,0-0.1
		c0,0,0,0,0,0c0-0.1,0-0.2,0-0.3c0,0,0-0.1,0-0.1c0-0.1,0-0.2,0-0.3c0,0,0,0,0,0c-0.2-0.9-0.6-1.6-1.2-2.2l0,0l0,0c0,0,0,0,0,0
		c0,0,0,0,0,0c0,0,0,0,0,0c0,0,0,0,0,0c0,0,0,0,0,0c0,0,0,0,0,0c0,0,0,0,0,0c0,0,0,0,0,0c0,0,0,0,0,0c0,0,0,0,0,0c0,0,0,0,0,0
		c0,0,0,0,0,0c0,0,0,0,0,0c0,0,0,0,0,0c0,0,0,0,0,0c0,0,0,0,0,0c0,0-0.1,0-0.1-0.1c0,0,0,0,0,0c0,0,0,0,0,0c0,0,0,0,0,0c0,0,0,0,0,0
		c0,0,0,0,0,0c0,0,0,0,0,0c0,0,0,0,0,0c0,0-0.1,0-0.1,0c0,0,0,0,0,0c0,0-0.1,0-0.1,0c0,0,0,0,0,0c0,0-0.1,0-0.1,0c0,0,0,0,0,0
		c0,0,0,0,0,0h0c0,0,0,0,0,0h0c0,0,0,0,0,0c0,0,0,0,0,0c0,0-0.1,0-0.1,0c0,0,0,0,0,0c0,0-0.1,0-0.1,0c0,0,0,0,0,0c0,0,0,0,0,0
		c0,0,0,0,0,0c0,0,0,0,0,0c0,0,0,0,0,0c0,0,0,0,0,0c0,0,0,0,0,0c0,0,0,0,0,0c0,0,0,0,0,0C25.6,0,25.6,0,25.5,0C25.6,0,25.6,0,25.5,0
		C25.6,0,25.6,0,25.5,0C25.6,0,25.6,0,25.5,0C25.5,0,25.5,0,25.5,0z"/>
	<path class="st0" d="M22.8,1.3C22.8,1.3,22.8,1.3,22.8,1.3C22.8,1.3,22.8,1.3,22.8,1.3L22.8,1.3z"/>
	<path class="st0" d="M27.1,0.6C27.1,0.6,27.2,0.6,27.1,0.6C27.2,0.6,27.1,0.6,27.1,0.6z"/>
	<path class="st0" d="M28.4,2.9c0,0.1,0,0.2,0,0.3C28.4,3,28.4,2.9,28.4,2.9z"/>
	<path class="st0" d="M22,2.1c0,0,0.1-0.1,0.1-0.1l0.3-0.2L22.1,2C22.1,2,22,2.1,22,2.1z"/>
	<path class="st0" d="M28.4,3.2c0,0.1,0,0.2,0,0.3C28.5,3.5,28.5,3.4,28.4,3.2z"/>
	<path class="st0" d="M20.3,19.5C20.3,19.6,20.3,19.6,20.3,19.5C20.3,19.6,20.3,19.6,20.3,19.5z"/>
	<path class="st0" d="M25.2,0C25.2,0,25.2,0,25.2,0C25.2,0,25.2,0,25.2,0z"/>
	<polygon class="st0" points="17.1,16.8 17.1,16.8 17,16.3 17,16.2 17,16.3 	"/>
	<path class="st0" d="M20.1,19.7C20,19.7,20,19.7,20.1,19.7C20,19.7,20,19.7,20.1,19.7z"/>
	<path class="st0" d="M20.1,19.6C20.1,19.7,20.1,19.7,20.1,19.6C20.1,19.7,20.1,19.7,20.1,19.6z"/>
	<path class="st0" d="M28.5,3.6c0,0,0,0.1,0,0.1C28.5,3.7,28.5,3.6,28.5,3.6z"/>
	<path class="st0" d="M28.5,3.9c0,0.7-0.1,1.4-0.3,2.2C28.4,5.4,28.5,4.6,28.5,3.9z"/>
	<path class="st0" d="M21.7,15.5C21.7,15.5,21.7,15.5,21.7,15.5C21.7,15.5,21.7,15.5,21.7,15.5z"/>
	<path class="st0" d="M24.3,14.4c1.5-2.3,3-5.2,3.8-7.8C27.4,9.2,25.8,12,24.3,14.4L24.3,14.4z"/>
	<path class="st0" d="M28.2,6.2c0,0.1-0.1,0.3-0.1,0.4C28.1,6.4,28.2,6.3,28.2,6.2z"/>
	<path class="st0" d="M27.1,0.6C27.1,0.6,27.1,0.6,27.1,0.6C27.1,0.6,27.1,0.6,27.1,0.6z"/>
	<path class="st0" d="M26.1,0.1C26.1,0.1,26.2,0.1,26.1,0.1C26.2,0.1,26.1,0.1,26.1,0.1z"/>
	<path class="st0" d="M28.4,2.8c-0.2-0.9-0.6-1.6-1.2-2.2l0,0C27.8,1.2,28.2,2,28.4,2.8z"/>
	<path class="st0" d="M26,0C26,0,26,0.1,26,0C26,0.1,26,0,26,0z"/>
	<path class="st0" d="M26.1,0.1C26.1,0.1,26.1,0.1,26.1,0.1C26.1,0.1,26.1,0.1,26.1,0.1z"/>
	<path class="st0" d="M26.2,0.1C26.2,0.1,26.2,0.1,26.2,0.1C26.2,0.1,26.2,0.1,26.2,0.1z"/>
	<path class="st0" d="M20.8,16.1l2.9-0.8c-1.5,2.3-2.9,4-2.9,4l0,0c0,0,1.3-1.6,2.9-4L20.8,16.1l-0.9,0.4l0,0L20.8,16.1z"/>
	<path class="st0" d="M26.3,0.1C26.4,0.2,26.4,0.2,26.3,0.1C26.4,0.2,26.4,0.2,26.3,0.1z"/>
	<path class="st0" d="M26.2,0.1C26.3,0.1,26.3,0.1,26.2,0.1C26.3,0.1,26.3,0.1,26.2,0.1z"/>
	<path class="st0" d="M25.7,0C25.7,0,25.7,0,25.7,0C25.7,0,25.7,0,25.7,0z"/>
	<path class="st0" d="M25.6,0C25.6,0,25.6,0,25.6,0C25.6,0,25.6,0,25.6,0z"/>
	<path class="st0" d="M25.6,0C25.6,0,25.6,0,25.6,0C25.6,0,25.6,0,25.6,0z"/>
	<path class="st0" d="M25.9,0C25.9,0,25.9,0,25.9,0C25.9,0,25.9,0,25.9,0z"/>
	<path class="st0" d="M25.8,0C25.8,0,25.9,0,25.8,0C25.9,0,25.8,0,25.8,0z"/>
	<path class="st0" d="M25.7,0C25.7,0,25.7,0,25.7,0C25.7,0,25.7,0,25.7,0z"/>
	<path class="st0" d="M25.8,0C25.8,0,25.8,0,25.8,0C25.8,0,25.8,0,25.8,0z"/>
	<path class="st0" d="M26.6,0.3C26.6,0.3,26.6,0.3,26.6,0.3C26.6,0.3,26.6,0.3,26.6,0.3z"/>
	<path class="st0" d="M26.9,0.4C26.9,0.4,26.9,0.4,26.9,0.4C26.9,0.4,26.9,0.4,26.9,0.4z"/>
	<path class="st0" d="M26.8,0.4C26.8,0.4,26.9,0.4,26.8,0.4C26.9,0.4,26.8,0.4,26.8,0.4z"/>
	<path class="st0" d="M16.3,23.3C16.3,23.3,16.3,23.3,16.3,23.3C16.3,23.3,16.3,23.3,16.3,23.3L16.3,23.3z"/>
	<path class="st0" d="M27,0.5C27,0.5,27,0.5,27,0.5C27,0.5,27,0.5,27,0.5z"/>
	<path class="st0" d="M26.8,0.4C26.8,0.4,26.8,0.4,26.8,0.4C26.8,0.4,26.8,0.4,26.8,0.4z"/>
	<path class="st0" d="M26.9,0.5C26.9,0.5,27,0.5,26.9,0.5C27,0.5,26.9,0.5,26.9,0.5z"/>
	<path class="st0" d="M26.7,0.3C26.7,0.3,26.8,0.3,26.7,0.3C26.8,0.3,26.7,0.3,26.7,0.3z"/>
	<path class="st0" d="M26.5,0.2C26.6,0.2,26.6,0.2,26.5,0.2C26.6,0.2,26.6,0.2,26.5,0.2z"/>
	<path class="st0" d="M26.4,0.2C26.5,0.2,26.5,0.2,26.4,0.2C26.5,0.2,26.5,0.2,26.4,0.2z"/>
	<path class="st0" d="M18.7,14.6c-1.3,3.8-2,7.4-2.1,10.4c0,0.3,0,0.5,0,0.8c0-0.3,0-0.5,0-0.8C16.8,21.9,17.5,18.3,18.7,14.6
		c2.2-5.7,5.1-10.3,7.9-12.5l0,0C23.9,4.3,20.9,8.9,18.7,14.6z"/>
	<path class="st0" d="M27,0.5C27,0.5,27.1,0.6,27,0.5C27.1,0.6,27,0.5,27,0.5z"/>
	<path class="st0" d="M16.9,29.7c0,0.1,0.1,0.2,0.1,0.3l0.2-0.1l0,0L17,30C16.9,29.9,16.9,29.8,16.9,29.7z"/>
	<path class="st0" d="M17.3,22.9L17.3,22.9c0.5-1.6,1.8-2.6,2.7-3.2C19.1,20.3,17.9,21.3,17.3,22.9z"/>
	<path class="st0" d="M26.6,0.3C26.7,0.3,26.7,0.3,26.6,0.3C26.7,0.3,26.7,0.3,26.6,0.3z"/>
	<path class="st0" d="M16.3,26.2c0-0.6-0.1-1.2-0.1-1.8C16.3,25,16.3,25.6,16.3,26.2z"/>
	<path class="st0" d="M24.4,0.2C24.4,0.2,24.4,0.2,24.4,0.2C24.4,0.2,24.4,0.2,24.4,0.2z"/>
	<path class="st0" d="M24.7,0.2C24.7,0.2,24.7,0.2,24.7,0.2C24.7,0.2,24.7,0.2,24.7,0.2z"/>
	<path class="st0" d="M21.8,2.3C21.8,2.3,21.8,2.4,21.8,2.3C21.8,2.4,21.8,2.3,21.8,2.3z"/>
	<path class="st0" d="M24.5,0.2C24.5,0.2,24.5,0.2,24.5,0.2C24.5,0.2,24.5,0.2,24.5,0.2z"/>
	<path class="st0" d="M24.3,0.3C24.3,0.3,24.3,0.3,24.3,0.3C24.3,0.3,24.3,0.3,24.3,0.3z"/>
	<path class="st0" d="M25.5,0C25.5,0,25.5,0,25.5,0C25.5,0,25.5,0,25.5,0z"/>
	<path class="st0" d="M23.9,0.5C23.9,0.5,23.9,0.5,23.9,0.5C23.9,0.5,23.9,0.5,23.9,0.5z"/>
	<path class="st0" d="M24.6,0.2C24.6,0.2,24.6,0.2,24.6,0.2C24.6,0.2,24.6,0.2,24.6,0.2z"/>
	<path class="st0" d="M24.5,0.2C24.5,0.2,24.5,0.2,24.5,0.2C24.5,0.2,24.5,0.2,24.5,0.2z"/>
	<path class="st0" d="M24.3,0.3C24.3,0.3,24.3,0.3,24.3,0.3C24.3,0.3,24.3,0.3,24.3,0.3z"/>
	<path class="st0" d="M24,0.4C24,0.4,24,0.4,24,0.4C24,0.4,24,0.4,24,0.4z"/>
	<path class="st0" d="M18.6,7.3c0,0,0,0.1-0.1,0.1C18.6,7.4,18.6,7.4,18.6,7.3z"/>
	<path class="st0" d="M23.9,0.5C23.9,0.5,23.9,0.5,23.9,0.5C23.9,0.5,23.9,0.5,23.9,0.5z"/>
	<path class="st0" d="M24.1,0.4C24.1,0.4,24.1,0.4,24.1,0.4C24.1,0.4,24.1,0.4,24.1,0.4z"/>
	<path class="st0" d="M24.1,0.4C24.1,0.4,24.1,0.4,24.1,0.4C24.1,0.4,24.1,0.4,24.1,0.4z"/>
	<path class="st0" d="M18.7,7.1C18.7,7.1,18.7,7.1,18.7,7.1C18.7,7.1,18.7,7.1,18.7,7.1z"/>
	<path class="st0" d="M24.3,0.3C24.3,0.3,24.3,0.3,24.3,0.3C24.3,0.3,24.3,0.3,24.3,0.3z"/>
	<path class="st0" d="M18.8,6.8c0,0,0,0.1-0.1,0.1C18.8,6.9,18.8,6.8,18.8,6.8z"/>
	<path class="st0" d="M22.8,1.3C22.8,1.3,22.8,1.3,22.8,1.3L22.8,1.3L22.8,1.3C22.8,1.3,22.8,1.3,22.8,1.3z"/>
	<path class="st0" d="M25.1,0C25.1,0,25.1,0,25.1,0C25.1,0,25.1,0,25.1,0z"/>
	<path class="st0" d="M25.3,0C25.3,0,25.3,0,25.3,0C25.3,0,25.3,0,25.3,0z"/>
	<path class="st0" d="M25.1,0.1C25.1,0.1,25.1,0.1,25.1,0.1C25.1,0.1,25.1,0.1,25.1,0.1z"/>
	<path class="st0" d="M25,0.1C25,0.1,25,0.1,25,0.1C25,0.1,25,0.1,25,0.1z"/>
	<path class="st0" d="M25.1,0C25.1,0,25.1,0,25.1,0C25.1,0,25.1,0,25.1,0z"/>
	<path class="st0" d="M25.2,0C25.2,0,25.2,0,25.2,0C25.2,0,25.2,0,25.2,0z"/>
	<path class="st0" d="M25.4,0C25.4,0,25.4,0,25.4,0C25.4,0,25.4,0,25.4,0z"/>
	<path class="st0" d="M25.3,0C25.3,0,25.3,0,25.3,0C25.3,0,25.3,0,25.3,0z"/>
	<path class="st0" d="M24.9,0.1C24.9,0.1,24.9,0.1,24.9,0.1C24.9,0.1,24.9,0.1,24.9,0.1z"/>
	<path class="st0" d="M25,0.1C25,0.1,25,0.1,25,0.1C25,0.1,25,0.1,25,0.1z"/>
	<path class="st0" d="M25.4,0C25.4,0,25.5,0,25.4,0C25.5,0,25.4,0,25.4,0z"/>
	<path class="st0" d="M25.5,0C25.5,0,25.5,0,25.5,0C25.5,0,25.5,0,25.5,0z"/>
	<path class="st0" d="M24.7,0.1C24.7,0.1,24.7,0.1,24.7,0.1C24.7,0.1,24.7,0.1,24.7,0.1z"/>
	<path class="st0" d="M24.8,0.1C24.8,0.1,24.8,0.1,24.8,0.1C24.8,0.1,24.8,0.1,24.8,0.1z"/>
	<path class="st0" d="M24.9,0.1C24.9,0.1,24.9,0.1,24.9,0.1C24.9,0.1,24.9,0.1,24.9,0.1z"/>
	<path class="st0" d="M24.9,0.1C24.9,0.1,24.9,0.1,24.9,0.1C24.9,0.1,24.9,0.1,24.9,0.1z"/>
	<path class="st0" d="M25.4,0C25.4,0,25.4,0,25.4,0C25.4,0,25.4,0,25.4,0z"/>
	<path class="st0" d="M16.5,14.4C16.5,14.4,16.5,14.4,16.5,14.4C16.5,14.4,16.5,14.4,16.5,14.4z"/>
	<path class="st0" d="M17.1,11c0,0,0,0.1,0,0.1C17,11.1,17.1,11,17.1,11z"/>
	<path class="st0" d="M23.3,0.9C23.3,0.9,23.3,0.9,23.3,0.9C23.3,0.9,23.3,0.9,23.3,0.9z"/>
	<path class="st0" d="M23.1,1C23.2,1,23.2,1,23.1,1C23.2,1,23.2,1,23.1,1z"/>
	<path class="st0" d="M23.1,1.1C23.1,1.1,23.1,1,23.1,1.1C23.1,1,23.1,1.1,23.1,1.1z"/>
	<path class="st0" d="M16.3,13.9c0,0.1,0.1,0.2,0.1,0.3C16.4,14.1,16.3,14,16.3,13.9z"/>
	<path class="st0" d="M23.3,0.9C23.3,0.9,23.3,0.9,23.3,0.9C23.3,0.9,23.3,0.9,23.3,0.9z"/>
	<path class="st0" d="M17.2,10.7c0,0,0,0.1,0,0.1C17.1,10.8,17.2,10.7,17.2,10.7z"/>
	<path class="st0" d="M23.2,1C23.2,0.9,23.3,0.9,23.2,1C23.3,0.9,23.2,0.9,23.2,1z"/>
	<path class="st0" d="M23.2,1C23.2,1,23.2,1,23.2,1C23.2,1,23.2,1,23.2,1z"/>
	<path class="st0" d="M23.1,1.1C23.1,1.1,23.1,1.1,23.1,1.1C23.1,1.1,23.1,1.1,23.1,1.1z"/>
	<path class="st0" d="M22.9,1.2C22.9,1.2,22.9,1.2,22.9,1.2C22.9,1.2,22.9,1.2,22.9,1.2z"/>
	<path class="st0" d="M16.6,19C16.6,19,16.6,19,16.6,19C16.6,19,16.6,19,16.6,19z"/>
	<path class="st0" d="M22.9,1.2C22.9,1.2,22.9,1.2,22.9,1.2C22.9,1.2,22.9,1.2,22.9,1.2z"/>
	<path class="st0" d="M22.8,1.3C22.8,1.3,22.9,1.3,22.8,1.3C22.9,1.3,22.8,1.3,22.8,1.3z"/>
	<path class="st0" d="M23,1.2C23,1.2,23,1.2,23,1.2C23,1.2,23,1.2,23,1.2z"/>
	<path class="st0" d="M23,1.1C23,1.1,23,1.1,23,1.1C23,1.1,23,1.1,23,1.1z"/>
	<path class="st0" d="M15.8,15.3c-0.1,0.2-0.1,0.5-0.2,0.7C15.7,15.8,15.7,15.5,15.8,15.3z"/>
	<path class="st0" d="M15.4,16.6c-0.3,1-0.4,1.7-0.3,1.8c0,0,0,0,0,0.1c0,0,0,0,0-0.1C15,18.3,15.2,17.6,15.4,16.6
		c0.2,0.3,0.8,1.4,1,1.8c0.1,0.3,0.2,0.4,0.2,0.5c0-0.1-0.1-0.2-0.2-0.5C16.2,18.1,15.6,16.9,15.4,16.6z"/>
	<path class="st0" d="M23.6,0.7C23.6,0.7,23.6,0.7,23.6,0.7C23.6,0.7,23.6,0.7,23.6,0.7z"/>
	<path class="st0" d="M17.8,9c0,0.1-0.1,0.1-0.1,0.2C17.8,9.2,17.8,9.1,17.8,9z"/>
	<path class="st0" d="M23.7,0.6C23.7,0.6,23.7,0.6,23.7,0.6C23.7,0.6,23.7,0.6,23.7,0.6z"/>
	<path class="st0" d="M17.9,8.7c0,0.1-0.1,0.1-0.1,0.2C17.9,8.9,17.9,8.8,17.9,8.7z"/>
	<path class="st0" d="M23.6,0.7C23.6,0.7,23.6,0.7,23.6,0.7C23.6,0.7,23.6,0.7,23.6,0.7z"/>
	<path class="st0" d="M23.7,0.6C23.7,0.6,23.7,0.6,23.7,0.6C23.7,0.6,23.7,0.6,23.7,0.6z"/>
	<path class="st0" d="M23.9,0.5C23.9,0.5,23.9,0.5,23.9,0.5C23.9,0.5,23.9,0.5,23.9,0.5z"/>
	<path class="st0" d="M18.3,7.9c0,0.1-0.1,0.1-0.1,0.2C18.2,8.1,18.3,8,18.3,7.9z"/>
	<path class="st0" d="M23.8,0.6C23.8,0.6,23.8,0.6,23.8,0.6C23.8,0.6,23.8,0.6,23.8,0.6z"/>
	<path class="st0" d="M18.4,7.7C18.4,7.8,18.4,7.8,18.4,7.7C18.4,7.8,18.4,7.8,18.4,7.7z"/>
	<path class="st0" d="M23.4,0.8C23.4,0.8,23.4,0.8,23.4,0.8C23.4,0.8,23.4,0.8,23.4,0.8z"/>
	<path class="st0" d="M17.4,10.2c0,0.1,0,0.1-0.1,0.2C17.3,10.3,17.3,10.2,17.4,10.2z"/>
	<path class="st0" d="M23.4,0.9C23.4,0.9,23.4,0.8,23.4,0.9C23.4,0.8,23.4,0.9,23.4,0.9z"/>
	<path class="st0" d="M23.5,0.8C23.5,0.8,23.5,0.8,23.5,0.8C23.5,0.8,23.5,0.8,23.5,0.8z"/>
	<path class="st0" d="M23.5,0.8C23.5,0.8,23.5,0.8,23.5,0.8C23.5,0.8,23.5,0.8,23.5,0.8z"/>
	<path class="st0" d="M17.7,9.3c0,0.1-0.1,0.1-0.1,0.2C17.6,9.4,17.7,9.4,17.7,9.3z"/>
	<path class="st0" d="M23.5,0.7C23.5,0.7,23.5,0.7,23.5,0.7C23.5,0.7,23.5,0.7,23.5,0.7z"/>
	<path class="st0" d="M17.2,10.5c0,0,0,0.1,0,0.1C17.2,10.6,17.2,10.5,17.2,10.5z"/>
</g>
</svg>
