<?xml version="1.0" encoding="utf-8"?>
<!-- Generator: Adobe Illustrator 25.2.1, SVG Export Plug-In . SVG Version: 6.00 Build 0)  -->
<svg version="1.1" id="Capa_1" xmlns="http://www.w3.org/2000/svg" xmlns:xlink="http://www.w3.org/1999/xlink" x="0px" y="0px"
	 viewBox="0 0 50 50" style="enable-background:new 0 0 50 50;" xml:space="preserve">
<style type="text/css">
	.st0{fill:#003E52;}
</style>
<path class="st0" d="M45.1,0H4.9C2.2,0,0,2.2,0,4.9v40.2C0,47.8,2.2,50,4.9,50h40.2c2.7,0,4.9-2.2,4.9-4.9V4.9C50,2.2,47.8,0,45.1,0
	z M29,27.7h-6.3v17.9h-5V27.7h-6.2v-4H29L29,27.7L29,27.7z M45.2,42.4c-0.5,0.8-1.1,1.5-1.9,2c-0.8,0.5-1.7,0.9-2.8,1.1
	c-1.1,0.2-2.2,0.3-3.3,0.3c-1.2,0-2.3-0.1-3.4-0.3c-1.1-0.2-2-0.5-2.8-0.9v-4.9l0,0c0.9,0.7,1.8,1.3,2.9,1.7c1,0.4,2.1,0.6,3.1,0.6
	c0.6,0,1.2-0.1,1.6-0.2c0.5-0.1,0.8-0.3,1.2-0.5c0.3-0.2,0.5-0.4,0.7-0.7c0.2-0.3,0.2-0.6,0.2-0.9c0-0.4-0.1-0.8-0.4-1.1
	c-0.2-0.3-0.6-0.6-1-0.9c-0.4-0.3-0.9-0.6-1.5-0.8c-0.6-0.3-1.2-0.5-1.9-0.8c-1.7-0.7-3-1.6-3.8-2.6c-0.8-1-1.3-2.3-1.3-3.7
	c0-1.1,0.2-2.1,0.7-2.9c0.5-0.8,1.1-1.5,1.9-2c0.8-0.5,1.7-0.9,2.7-1.2c1-0.2,2.1-0.4,3.3-0.4c1.1,0,2.2,0.1,3,0.2
	c0.9,0.1,1.7,0.3,2.4,0.6v4.6c-0.4-0.3-0.8-0.5-1.2-0.7s-0.9-0.4-1.3-0.5c-0.5-0.1-0.9-0.2-1.4-0.3c-0.5-0.1-0.9-0.1-1.3-0.1
	c-0.6,0-1.1,0.1-1.5,0.2c-0.5,0.1-0.8,0.3-1.2,0.4c-0.3,0.2-0.6,0.4-0.7,0.7c-0.2,0.3-0.3,0.6-0.3,0.9c0,0.4,0.1,0.7,0.3,1
	c0.2,0.3,0.5,0.6,0.8,0.8c0.4,0.3,0.8,0.5,1.3,0.8c0.5,0.2,1.1,0.5,1.7,0.8c0.9,0.4,1.7,0.8,2.4,1.2c0.7,0.4,1.3,0.9,1.8,1.4
	c0.5,0.5,0.9,1.1,1.1,1.8c0.3,0.7,0.4,1.4,0.4,2.3C45.9,40.6,45.7,41.6,45.2,42.4z"/>
</svg>
