<?xml version="1.0" encoding="utf-8"?>
<!-- Generator: Adobe Illustrator 25.2.1, SVG Export Plug-In . SVG Version: 6.00 Build 0)  -->
<svg version="1.1" id="Capa_1" xmlns="http://www.w3.org/2000/svg" xmlns:xlink="http://www.w3.org/1999/xlink" x="0px" y="0px"
	 viewBox="0 0 30 30" style="enable-background:new 0 0 30 30;" xml:space="preserve">
<style type="text/css">
	.st0{fill:#003E52;}
</style>
<path class="st0" d="M27.1,0H2.9C1.3,0,0,1.3,0,2.9v24.1C0,28.7,1.3,30,2.9,30h24.1c1.6,0,2.9-1.3,2.9-2.9V2.9C30,1.3,28.7,0,27.1,0
	z M17.4,16.6h-3.8v10.7h-3V16.6H6.9v-2.4h10.5L17.4,16.6L17.4,16.6z M27.1,25.5c-0.3,0.5-0.7,0.9-1.1,1.2c-0.5,0.3-1,0.5-1.7,0.7
	c-0.6,0.1-1.3,0.2-2,0.2c-0.7,0-1.4-0.1-2.1-0.2s-1.2-0.3-1.7-0.5v-2.9l0,0c0.5,0.4,1.1,0.8,1.7,1c0.6,0.2,1.3,0.3,1.9,0.3
	c0.4,0,0.7,0,1-0.1c0.3-0.1,0.5-0.2,0.7-0.3c0.2-0.1,0.3-0.3,0.4-0.4c0.1-0.2,0.1-0.3,0.1-0.5c0-0.3-0.1-0.5-0.2-0.7
	c-0.1-0.2-0.3-0.4-0.6-0.6c-0.3-0.2-0.6-0.3-0.9-0.5c-0.3-0.2-0.7-0.3-1.1-0.5c-1-0.4-1.8-0.9-2.3-1.6c-0.5-0.6-0.8-1.4-0.8-2.2
	c0-0.7,0.1-1.3,0.4-1.8c0.3-0.5,0.6-0.9,1.1-1.2c0.5-0.3,1-0.6,1.6-0.7c0.6-0.1,1.3-0.2,2-0.2c0.7,0,1.3,0,1.8,0.1s1,0.2,1.5,0.4
	v2.7c-0.2-0.2-0.5-0.3-0.7-0.4c-0.3-0.1-0.5-0.2-0.8-0.3c-0.3-0.1-0.5-0.1-0.8-0.2c-0.3,0-0.5-0.1-0.8-0.1c-0.3,0-0.6,0-0.9,0.1
	c-0.3,0.1-0.5,0.2-0.7,0.3c-0.2,0.1-0.3,0.3-0.4,0.4c-0.1,0.2-0.2,0.3-0.2,0.5c0,0.2,0.1,0.4,0.2,0.6c0.1,0.2,0.3,0.3,0.5,0.5
	c0.2,0.2,0.5,0.3,0.8,0.5c0.3,0.1,0.7,0.3,1,0.5c0.5,0.2,1,0.5,1.4,0.7c0.4,0.2,0.8,0.5,1.1,0.8c0.3,0.3,0.5,0.7,0.7,1.1
	s0.2,0.9,0.2,1.4C27.5,24.3,27.4,25,27.1,25.5z"/>
</svg>
